mtllib model_0.mtl
o model_0
v -26.862459182739258 150.1951141357422 0.06888812780380249 
v -24.260343551635742 150.1951141357422 0.06888812780380249 
v -26.862459182739258 152.54270935058594 5.505395889282227 
v -24.260343551635742 152.54270935058594 5.505395889282227 
v -26.862459182739258 158.10276794433594 7.852977275848389 
v -24.260343551635742 157.97921752929688 7.852977752685547 
v -26.862459182739258 163.53927612304688 5.505393981933594 
v -24.260343551635742 163.53927612304688 5.505393981933594 
v -26.862459182739258 165.88685607910156 -0.054671429097652435 
v -24.260343551635742 165.88685607910156 -0.054671429097652435 
v -26.862459182739258 163.53927612304688 -5.4911789894104 
v -24.260343551635742 163.53927612304688 -5.4911789894104 
v -26.862459182739258 157.9792022705078 -7.838760852813721 
v -24.260343551635742 157.9792022705078 -7.838760852813721 
v -26.862459182739258 152.54270935058594 -5.491177082061768 
v -24.260343551635742 152.54270935058594 -5.491177082061768 
v -26.862459182739258 150.1951141357422 0.06888812780380249 
v -24.260343551635742 150.1951141357422 0.06888812780380249 
v -48.171897888183594 158.04922485351562 -12.952370643615723 
v -47.32868194580078 162.27957153320312 -12.952371597290039 
v -47.32868194580078 162.27957153320312 -21.679025650024414 
v -44.9239501953125 165.8704376220703 -21.679025650024414 
v -48.171897888183594 158.04922485351562 -21.67902374267578 
v -47.32868194580078 153.80247497558594 -12.952370643615723 
v -47.32868194580078 153.80247497558594 -21.67902374267578 
v -44.9239501953125 150.2115936279297 -12.952369689941406 
v -44.9239501953125 150.2115936279297 -21.67902374267578 
v -41.332462310791016 147.80128479003906 -12.952369689941406 
v -41.332462310791016 147.80128479003906 -21.67902183532715 
v -37.09555435180664 146.9650421142578 -12.95236873626709 
v -37.09555435180664 146.9650421142578 -21.67902183532715 
v -32.858642578125 146.9650421142578 -12.95236873626709 
v -32.858642578125 146.9650421142578 -21.67902183532715 
v -29.26715850830078 146.9650421142578 -12.95236873626709 
v -29.26715850830078 146.9650421142578 -21.67902183532715 
v -26.862424850463867 146.9650421142578 -12.95236873626709 
v -26.862424850463867 146.9650421142578 -21.67902183532715 
v -26.862424850463867 146.96505737304688 12.973421096801758 
v -29.26715850830078 146.96505737304688 12.973421096801758 
v -32.858642578125 146.96505737304688 12.973421096801758 
v -29.26715850830078 146.96505737304688 21.67889404296875 
v -32.858642578125 146.96505737304688 21.67889404296875 
v -37.09555435180664 146.96505737304688 12.973421096801758 
v -37.09555435180664 146.96505737304688 21.67889404296875 
v -41.332462310791016 147.80128479003906 12.973420143127441 
v -41.332462310791016 147.80128479003906 21.67889404296875 
v -44.9239501953125 150.2115936279297 12.973420143127441 
v -44.9239501953125 150.21160888671875 21.678892135620117 
v -47.32868194580078 153.80247497558594 12.973419189453125 
v -47.32868194580078 153.80247497558594 21.678892135620117 
v -48.171897888183594 158.04922485351562 12.973419189453125 
v -48.171897888183594 158.04922485351562 21.678892135620117 
v -47.32868194580078 162.27957153320312 12.973418235778809 
v -47.32868194580078 162.27957153320312 21.678890228271484 
v -44.9239501953125 165.87045288085938 12.973417282104492 
v -44.9239501953125 165.87045288085938 21.678890228271484 
v -41.332462310791016 168.28076171875 12.973417282104492 
v -41.332462310791016 168.28076171875 21.678890228271484 
v -37.09555435180664 169.1169891357422 12.973417282104492 
v -37.09555435180664 169.11700439453125 21.678890228271484 
v -32.858642578125 169.1169891357422 12.973417282104492 
v -32.858642578125 169.11700439453125 21.678890228271484 
v -29.26715850830078 169.1169891357422 12.973417282104492 
v -29.26715850830078 169.11700439453125 21.678890228271484 
v -26.862424850463867 169.1169891357422 12.973417282104492 
v -26.862424850463867 169.11700439453125 21.678890228271484 
v -26.862424850463867 146.96505737304688 12.973421096801758 
v -26.862424850463867 146.96505737304688 21.67889404296875 
v -26.862424850463867 146.96505737304688 21.67889404296875 
v -26.862424850463867 146.9650421142578 -12.95236873626709 
v -26.862424850463867 169.1169891357422 -12.952372550964355 
v -29.26715850830078 169.1169891357422 -12.952372550964355 
v -32.858642578125 169.1169891357422 -12.952372550964355 
v -29.26715850830078 169.1169891357422 -21.679025650024414 
v -32.858642578125 169.1169891357422 -21.679025650024414 
v -37.09555435180664 169.1169891357422 -12.952372550964355 
v -37.09555435180664 169.1169891357422 -21.679025650024414 
v -41.332462310791016 168.28076171875 -12.952372550964355 
v -41.332462310791016 168.28076171875 -21.679025650024414 
v -44.9239501953125 165.8704376220703 -12.952372550964355 
v -26.862424850463867 146.9650421142578 -21.67902183532715 
v -26.862424850463867 169.1169891357422 -21.679025650024414 
v -41.332462310791016 147.80128479003906 -12.952369689941406 
v -37.09555435180664 146.9650421142578 -12.95236873626709 
v -41.332462310791016 146.17800903320312 -11.872127532958984 
v -37.09555435180664 146.17800903320312 -11.872127532958984 
v -32.858642578125 146.9650421142578 -12.95236873626709 
v -32.858642578125 146.17800903320312 -11.872127532958984 
v -37.09555435180664 142.53794860839844 -6.428557872772217 
v -32.858642578125 142.53794860839844 -6.428557872772217 
v -37.09555435180664 141.25900268554688 -0.010654546320438385 
v -32.858642578125 141.25900268554688 -0.010654546320438385 
v -37.09555435180664 142.53794860839844 6.42842960357666 
v -32.858642578125 142.53794860839844 6.42842960357666 
v -37.09555435180664 146.17800903320312 11.871997833251953 
v -32.858642578125 146.17800903320312 11.871997833251953 
v -37.09555435180664 146.96505737304688 12.973421096801758 
v -32.858642578125 146.96505737304688 12.973421096801758 
v -41.332462310791016 147.80128479003906 12.973420143127441 
v -41.332462310791016 146.17800903320312 11.871997833251953 
v -41.332462310791016 142.53794860839844 6.42842960357666 
v -41.332462310791016 141.25900268554688 -0.010654546320438385 
v -41.332462310791016 142.53794860839844 -6.428557872772217 
v -41.332462310791016 168.28076171875 12.973417282104492 
v -37.09555435180664 169.1169891357422 12.973417282104492 
v -41.332462310791016 169.90403747558594 11.871994018554688 
v -37.09555435180664 169.90403747558594 11.871994018554688 
v -32.858642578125 169.1169891357422 12.973417282104492 
v -32.858642578125 169.90403747558594 11.871994018554688 
v -37.09555435180664 173.54409790039062 6.428424835205078 
v -32.858642578125 173.54409790039062 6.428424835205078 
v -37.09555435180664 174.8230438232422 -0.010660014115273952 
v -32.858642578125 174.8230438232422 -0.010660014115273952 
v -37.09555435180664 173.54409790039062 -6.428563117980957 
v -32.858642578125 173.54409790039062 -6.428563117980957 
v -37.09555435180664 169.90403747558594 -11.87213134765625 
v -32.858642578125 169.90403747558594 -11.87213134765625 
v -37.09555435180664 169.1169891357422 -12.952372550964355 
v -32.858642578125 169.1169891357422 -12.952372550964355 
v -41.332462310791016 168.28076171875 -12.952372550964355 
v -41.332462310791016 169.90403747558594 -11.87213134765625 
v -41.332462310791016 173.54409790039062 -6.428563117980957 
v -41.332462310791016 174.8230438232422 -0.010660014115273952 
v -41.332462310791016 173.54409790039062 6.428424835205078 
v -26.862424850463867 146.96505737304688 21.67889404296875 
v -26.862424850463867 169.11700439453125 21.678890228271484 
v -29.26715850830078 146.96505737304688 21.67889404296875 
v -32.858642578125 146.96505737304688 21.67889404296875 
v -37.09555435180664 146.96505737304688 21.67889404296875 
v -41.332462310791016 147.80128479003906 21.67889404296875 
v -44.9239501953125 150.21160888671875 21.678892135620117 
v -47.32868194580078 153.80247497558594 21.678892135620117 
v -48.171897888183594 158.04922485351562 21.678892135620117 
v -47.32868194580078 162.27957153320312 21.678890228271484 
v -44.9239501953125 165.87045288085938 21.678890228271484 
v -41.332462310791016 168.28076171875 21.678890228271484 
v -37.09555435180664 169.11700439453125 21.678890228271484 
v -29.26715850830078 169.11700439453125 21.678890228271484 
v -32.858642578125 169.11700439453125 21.678890228271484 
v -32.858642578125 146.9650421142578 -21.67902183532715 
v -29.26715850830078 146.9650421142578 -21.67902183532715 
v -37.09555435180664 146.9650421142578 -21.67902183532715 
v -26.862424850463867 146.9650421142578 -21.67902183532715 
v -26.862424850463867 169.1169891357422 -21.679025650024414 
v -41.332462310791016 147.80128479003906 -21.67902183532715 
v -44.9239501953125 150.2115936279297 -21.67902374267578 
v -47.32868194580078 153.80247497558594 -21.67902374267578 
v -48.171897888183594 158.04922485351562 -21.67902374267578 
v -47.32868194580078 162.27957153320312 -21.679025650024414 
v -44.9239501953125 165.8704376220703 -21.679025650024414 
v -41.332462310791016 168.28076171875 -21.679025650024414 
v -37.09555435180664 169.1169891357422 -21.679025650024414 
v -32.858642578125 169.1169891357422 -21.679025650024414 
v -29.26715850830078 169.1169891357422 -21.679025650024414 
v -41.332462310791016 147.80128479003906 12.973420143127441 
v -41.332462310791016 146.17800903320312 11.871997833251953 
v -41.332462310791016 147.80128479003906 -12.952369689941406 
v -41.332462310791016 142.53794860839844 6.42842960357666 
v -41.332462310791016 141.25900268554688 -0.010654546320438385 
v -41.332462310791016 142.53794860839844 -6.428557872772217 
v -41.332462310791016 146.17800903320312 -11.872127532958984 
v -41.332462310791016 168.28076171875 12.973417282104492 
v -41.332462310791016 169.90403747558594 11.871994018554688 
v -41.332462310791016 168.28076171875 -12.952372550964355 
v -41.332462310791016 173.54409790039062 6.428424835205078 
v -41.332462310791016 174.8230438232422 -0.010660014115273952 
v -41.332462310791016 173.54409790039062 -6.428563117980957 
v -41.332462310791016 169.90403747558594 -11.87213134765625 
v -32.858642578125 169.1169891357422 12.973417282104492 
v -32.858642578125 169.90403747558594 11.871994018554688 
v -32.858642578125 169.1169891357422 -12.952372550964355 
v -32.858642578125 173.54409790039062 6.428424835205078 
v -32.858642578125 174.8230438232422 -0.010660014115273952 
v -32.858642578125 173.54409790039062 -6.428563117980957 
v -32.858642578125 169.90403747558594 -11.87213134765625 
v -32.858642578125 146.96505737304688 12.973421096801758 
v -32.858642578125 146.17800903320312 11.871997833251953 
v -32.858642578125 146.9650421142578 -12.95236873626709 
v -32.858642578125 142.53794860839844 6.42842960357666 
v -32.858642578125 141.25900268554688 -0.010654546320438385 
v -32.858642578125 142.53794860839844 -6.428557872772217 
v -32.858642578125 146.17800903320312 -11.872127532958984 
v -39.37586975097656 149.15234375 -19.249008178710938 
v -39.37586975097656 149.1522674560547 -495.4304504394531 
v -34.46812438964844 149.15234375 -19.249008178710938 
v -34.46812438964844 149.1522674560547 -495.4304504394531 
v -34.46812438964844 166.92974853515625 -19.249011993408203 
v -34.46812438964844 166.92967224121094 -495.4304504394531 
v -39.37586975097656 166.92974853515625 -19.249011993408203 
v -39.37586975097656 166.92967224121094 -495.4304504394531 
v -39.37586975097656 149.15234375 -19.249008178710938 
v -39.37586975097656 149.1522674560547 -495.4304504394531 
v -39.37586975097656 164.654296875 -496.1331481933594 
v -39.37586975097656 151.42764282226562 -496.1331481933594 
v -39.37586975097656 162.42234802246094 -498.7096252441406 
v -39.37586975097656 153.65957641601562 -498.7096252441406 
v -34.46812438964844 151.42764282226562 -496.1331481933594 
v -34.46812438964844 164.654296875 -496.1331481933594 
v -34.46812438964844 153.65957641601562 -498.7096252441406 
v -34.46812438964844 162.42234802246094 -498.7096252441406 
v -34.46812438964844 149.1522674560547 -495.4304504394531 
v -34.46812438964844 151.42764282226562 -496.1331481933594 
v -39.37586975097656 149.1522674560547 -495.4304504394531 
v -39.37586975097656 151.42764282226562 -496.1331481933594 
v -39.37586975097656 153.65957641601562 -498.7096252441406 
v -34.46812438964844 153.65957641601562 -498.7096252441406 
v -39.37586975097656 162.42234802246094 -498.7096252441406 
v -34.46812438964844 162.42234802246094 -498.7096252441406 
v -39.37586975097656 164.654296875 -496.1331481933594 
v -34.46812438964844 164.654296875 -496.1331481933594 
v -34.46812438964844 166.92967224121094 -495.4304504394531 
v -39.37586975097656 166.92967224121094 -495.4304504394531 
v -24.260400772094727 171.3483123779297 24.260385513305664 
v -24.260400772094727 171.3483123779297 -24.260345458984375 
v -24.260400772094727 1.9900010824203491 24.260414123535156 
v -24.260400772094727 1.9899930953979492 -24.260318756103516 
v 24.260332107543945 171.3483123779297 -24.260345458984375 
v 24.260332107543945 1.9899930953979492 -24.260318756103516 
v 24.260332107543945 171.3483123779297 24.260385513305664 
v 24.260332107543945 1.9900010824203491 24.260414123535156 
v -24.260400772094727 171.3483123779297 24.260385513305664 
v -24.260400772094727 1.9900010824203491 24.260414123535156 
v -24.260400772094727 171.3483123779297 -24.260345458984375 
v 24.260332107543945 171.3483123779297 -24.260345458984375 
v -24.260400772094727 171.3483123779297 24.260385513305664 
v 24.260332107543945 171.3483123779297 24.260385513305664 
v 24.260332107543945 1.9899930953979492 -24.260318756103516 
v -24.260400772094727 1.9899930953979492 -24.260318756103516 
v 24.260332107543945 1.9900010824203491 24.260414123535156 
v -24.260400772094727 1.9900010824203491 24.260414123535156 
vn 2.068231052255163e-15 -0.009999999776482582 1.629209989140179e-9 
vn 2.068231052255163e-15 -0.009999999776482582 1.629209989140179e-9 
vn 0.00001887830330815632 -0.007063338067382574 0.0070787640288472176 
vn 0.00001887830330815632 -0.007063338067382574 0.0070787640288472176 
vn 3.097898490739357e-15 0.000021848571122973226 0.009999976493418217 
vn 3.097898490739357e-15 -0.000021845313312951475 0.009999976493418217 
vn 0.000037692476325901225 0.007063340395689011 0.007078686263412237 
vn 0.000037692476325901225 0.007063340395689011 0.007078686263412237 
vn 0 0.009999999776482582 -1.629209989140179e-9 
vn 0 0.009999999776482582 -1.629209989140179e-9 
vn 0.000037692476325901225 0.007063338067382574 -0.007078688591718674 
vn 0.000037692476325901225 0.007063338067382574 -0.007078688591718674 
vn -1.0341130909078582e-15 -0.000021848571122973226 -0.009999976493418217 
vn -1.0341130909078582e-15 -0.000021848571122973226 -0.009999976493418217 
vn 0.00001887830330815632 -0.007063340395689011 -0.007078761700540781 
vn 0.00001887830330815632 -0.007063340395689011 -0.007078761700540781 
vn 2.068231052255163e-15 -0.009999999776482582 1.629209989140179e-9 
vn 2.068231052255163e-15 -0.009999999776482582 1.629209989140179e-9 
vn -0.009999976493418217 -0.00002184694130846765 3.56139380139342e-12 
vn -0.009245053865015507 0.003811691189184785 -6.210026382014178e-10 
vn -0.006867366377264261 0.002864930545911193 -0.006680677179247141 
vn -0.005262599792331457 0.005287246312946081 -0.006659585051238537 
vn -0.00748508982360363 -0.000021848021788173355 -0.006631210912019014 
vn -0.009244975633919239 -0.003811691189184785 0.000037769295886391774 
vn -0.006887201685458422 -0.0028649326413869858 -0.00666022626683116 
vn -0.0070786867290735245 -0.007063339464366436 -0.000037755322409793735 
vn -0.0052836984395980835 -0.00528724817559123 -0.006642855703830719 
vn -0.005139519460499287 -0.008406086824834347 -0.001709689269773662 
vn -0.0028500633779913187 -0.006907016970217228 -0.006646070163697004 
vn -0.000677421223372221 -0.009286138229072094 -0.003648113925009966 
vn -0.0007353551918640733 -0.0072464719414711 -0.006851853337138891 
vn 0.0010510125430300832 -0.00983208417892456 -0.0014918065862730145 
vn 0.00001887830330815632 -0.007063340395689011 -0.007078761700540781 
vn -2.068231052255163e-15 -0.009999999776482582 1.629209989140179e-9 
vn 0.00001887830330815632 -0.007063340395689011 -0.007078761700540781 
vn 0.00707878777757287 -0.007063339464366436 1.1507662600607205e-9 
vn 0.005779946222901344 -0.005760594271123409 -0.00577994529157877 
vn 0.00707878777757287 -0.007063339464366436 1.1507662600607205e-9 
vn -2.068231052255163e-15 -0.009999999776482582 1.629209989140179e-9 
vn 0.000997810042463243 -0.009839964099228382 0.0014763096114620566 
vn 0.00001887830330815632 -0.007063338067382574 0.0070787640288472176 
vn 0.00001887830330815632 -0.007063338067382574 0.0070787640288472176 
vn -0.0007321683806367218 -0.009302261285483837 0.0035960907116532326 
vn -0.0007353551918640733 -0.007246470078825951 0.006851855665445328 
vn -0.005139519460499287 -0.008406085893511772 0.001709692063741386 
vn -0.0028500633779913187 -0.006907015107572079 0.0066460720263421535 
vn -0.0070786867290735245 -0.007063339464366436 -0.000037755322409793735 
vn -0.0052836984395980835 -0.005287246312946081 0.006642857566475868 
vn -0.009244975633919239 -0.003811691189184785 -0.00003776805169763975 
vn -0.006887201685458422 -0.002864930545911193 0.006660227198153734 
vn -0.009999976493418217 -0.00002184694130846765 3.56139380139342e-12 
vn -0.00748508982360363 -0.000021845860828761943 0.006631210912019014 
vn -0.009245053865015507 0.003811691189184785 -6.210026382014178e-10 
vn -0.006867366377264261 0.0028649326413869858 0.006680676247924566 
vn -0.00707878777757287 0.007063339464366436 -1.1507648167707885e-9 
vn -0.005262599792331457 0.00528724817559123 0.006659583188593388 
vn -0.005141943693161011 0.008406086824834347 0.0017023844411596656 
vn -0.002875737613067031 0.006907016970217228 0.006635001394897699 
vn -0.000690615561325103 0.009302262216806412 0.003604298457503319 
vn -0.0007153251790441573 0.0072464719414711 0.006853973492980003 
vn 0.0010169452289119363 0.009839964099228382 0.001463191001676023 
vn -0.000037692476325901225 0.007063340395689011 0.007078686263412237 
vn 0 0.009999999776482582 -1.629209989140179e-9 
vn -0.000037692476325901225 0.007063340395689011 0.007078686263412237 
vn 0.00707878777757287 0.007063339464366436 -1.1507662600607205e-9 
vn 0.005786608438938856 0.005760594271123409 0.005773275624960661 
vn 0.00707878777757287 -0.007063339464366436 1.1507662600607205e-9 
vn 0.005779946222901344 -0.00576059240847826 0.005779947154223919 
vn 0.005779946222901344 -0.00576059240847826 0.005779947154223919 
vn 0.00707878777757287 -0.007063339464366436 1.1507662600607205e-9 
vn 0.00707878777757287 0.007063339464366436 -1.1507662600607205e-9 
vn 0 0.009999999776482582 -1.629209989140179e-9 
vn 0.001007989514619112 0.00983208417892456 -0.0015212103025987744 
vn 0.000037692476325901225 0.007063338067382574 -0.007078688591718674 
vn 0.000037692476325901225 0.007063338067382574 -0.007078688591718674 
vn -0.0007100430666469038 0.00928613729774952 -0.0036419082898646593 
vn -0.0007153251790441573 0.007246470078825951 -0.00685397582128644 
vn -0.005141943693161011 0.008406085893511772 -0.0017023872351273894 
vn -0.002875737613067031 0.006907015107572079 -0.006635003723204136 
vn -0.00707878777757287 0.007063339464366436 -1.1507648167707885e-9 
vn 0.005779946222901344 -0.005760594271123409 -0.00577994529157877 
vn 0.005786608438938856 0.00576059240847826 -0.00577327748760581 
vn -0.005139519460499287 -0.008406086824834347 -0.001709689269773662 
vn -0.000677421223372221 -0.009286138229072094 -0.003648113925009966 
vn -0.006757333874702454 -0.005580654833465815 -0.004816091153770685 
vn -0.00018875571549870074 -0.007901282981038094 -0.00612650765106082 
vn 0.0010510125430300832 -0.00983208417892456 -0.0014918065862730145 
vn 0.007047644350677729 -0.005831805057823658 -0.00403989665210247 
vn 0.00003785537410294637 -0.009236704558134079 -0.0038316911086440086 
vn 0.006638599559664726 -0.006907016504555941 -0.0028674229979515076 
vn 2.068231052255163e-15 -0.009999999776482582 1.629209989140179e-9 
vn 0.006666374392807484 -0.007453821133822203 1.2143840377731863e-9 
vn -0.00003785537410294637 -0.009236703626811504 0.003831694135442376 
vn 0.006638599559664726 -0.006907015573233366 0.002867425326257944 
vn -0.00016992606106214225 -0.007927987724542618 0.006092465482652187 
vn 0.007019241340458393 -0.005867242347449064 0.0040380340069532394 
vn -0.0007321683806367218 -0.009302261285483837 0.0035960907116532326 
vn 0.000997810042463243 -0.009839964099228382 0.0014763096114620566 
vn -0.005139519460499287 -0.008406085893511772 0.001709692063741386 
vn -0.006757333874702454 -0.005580653436481953 0.004816093016415834 
vn -0.00665349792689085 -0.006907015573233366 0.0028326844330877066 
vn -0.006666374392807484 -0.007453821133822203 1.2143853700408158e-9 
vn -0.00665349792689085 -0.006907016504555941 -0.00283268210478127 
vn -0.005141943693161011 0.008406086824834347 0.0017023844411596656 
vn -0.000690615561325103 0.009302262216806412 0.003604298457503319 
vn -0.006783445365726948 0.005580654833465815 0.0047792429104447365 
vn -0.0001507522101746872 0.007927989587187767 0.006092967931181192 
vn 0.0010169452289119363 0.009839964099228382 0.001463191001676023 
vn 0.0070223622024059296 0.005867243278771639 0.004032602068036795 
vn 1.18708025316017e-15 0.009236704558134079 0.0038318783044815063 
vn 0.006642471067607403 0.006907016504555941 0.002858442720025778 
vn 0 0.009999999776482582 -1.629209989140179e-9 
vn 0.006666374392807484 0.007453821133822203 -1.2143840377731863e-9 
vn -3.962606474504013e-16 0.009236703626811504 -0.003831881331279874 
vn 0.006642471067607403 0.006907015573233366 -0.0028584450483322144 
vn -0.00016955287719611079 0.007901281118392944 -0.006127071566879749 
vn 0.007050747983157635 0.005831803660839796 -0.004034479148685932 
vn -0.0007100430666469038 0.00928613729774952 -0.0036419082898646593 
vn 0.001007989514619112 0.00983208417892456 -0.0015212103025987744 
vn -0.005141943693161011 0.008406085893511772 -0.0017023872351273894 
vn -0.006739708129316568 0.005580653436481953 -0.004840726964175701 
vn -0.006657273042947054 0.006907015573233366 -0.0028237993828952312 
vn -0.006666374392807484 0.007453821133822203 -1.2143825944832543e-9 
vn -0.006657273042947054 0.006907016504555941 0.0028237972874194384 
vn 0.005779946222901344 -0.00576059240847826 0.005779947154223919 
vn 0.005786608438938856 0.005760594271123409 0.005773275624960661 
vn 0.00001887830330815632 -0.007063338067382574 0.0070787640288472176 
vn 0.00001887830330815632 -0.007063338067382574 0.0070787640288472176 
vn -0.0007353551918640733 -0.007246470078825951 0.006851855665445328 
vn -0.0028500633779913187 -0.006907015107572079 0.0066460720263421535 
vn -0.0052836984395980835 -0.005287246312946081 0.006642857566475868 
vn -0.006887201685458422 -0.002864930545911193 0.006660227198153734 
vn -0.00748508982360363 -0.000021845860828761943 0.006631210912019014 
vn -0.006867366377264261 0.0028649326413869858 0.006680676247924566 
vn -0.005262599792331457 0.00528724817559123 0.006659583188593388 
vn -0.002875737613067031 0.006907016970217228 0.006635001394897699 
vn -0.0007153251790441573 0.0072464719414711 0.006853973492980003 
vn -0.000037692476325901225 0.007063340395689011 0.007078686263412237 
vn -0.000037692476325901225 0.007063340395689011 0.007078686263412237 
vn 0.00001887830330815632 -0.007063340395689011 -0.007078761700540781 
vn 0.00001887830330815632 -0.007063340395689011 -0.007078761700540781 
vn -0.0007353551918640733 -0.0072464719414711 -0.006851853337138891 
vn 0.005779946222901344 -0.005760594271123409 -0.00577994529157877 
vn 0.005786608438938856 0.00576059240847826 -0.00577327748760581 
vn -0.0028500633779913187 -0.006907016970217228 -0.006646070163697004 
vn -0.0052836984395980835 -0.00528724817559123 -0.006642855703830719 
vn -0.006887201685458422 -0.0028649326413869858 -0.00666022626683116 
vn -0.00748508982360363 -0.000021848021788173355 -0.006631210912019014 
vn -0.006867366377264261 0.002864930545911193 -0.006680677179247141 
vn -0.005262599792331457 0.005287246312946081 -0.006659585051238537 
vn -0.002875737613067031 0.006907015107572079 -0.006635003723204136 
vn -0.0007153251790441573 0.007246470078825951 -0.00685397582128644 
vn 0.000037692476325901225 0.007063338067382574 -0.007078688591718674 
vn 0.000037692476325901225 0.007063338067382574 -0.007078688591718674 
vn -0.005139519460499287 -0.008406085893511772 0.001709692063741386 
vn -0.006757333874702454 -0.005580653436481953 0.004816093016415834 
vn -0.005139519460499287 -0.008406086824834347 -0.001709689269773662 
vn -0.00665349792689085 -0.006907015573233366 0.0028326844330877066 
vn -0.006666374392807484 -0.007453821133822203 1.2143853700408158e-9 
vn -0.00665349792689085 -0.006907016504555941 -0.00283268210478127 
vn -0.006757333874702454 -0.005580654833465815 -0.004816091153770685 
vn -0.005141943693161011 0.008406086824834347 0.0017023844411596656 
vn -0.006783445365726948 0.005580654833465815 0.0047792429104447365 
vn -0.005141943693161011 0.008406085893511772 -0.0017023872351273894 
vn -0.006657273042947054 0.006907016504555941 0.0028237972874194384 
vn -0.006666374392807484 0.007453821133822203 -1.2143825944832543e-9 
vn -0.006657273042947054 0.006907015573233366 -0.0028237993828952312 
vn -0.006739708129316568 0.005580653436481953 -0.004840726964175701 
vn 0.0010169452289119363 0.009839964099228382 0.001463191001676023 
vn 0.0070223622024059296 0.005867243278771639 0.004032602068036795 
vn 0.001007989514619112 0.00983208417892456 -0.0015212103025987744 
vn 0.006642471067607403 0.006907016504555941 0.002858442720025778 
vn 0.006666374392807484 0.007453821133822203 -1.2143840377731863e-9 
vn 0.006642471067607403 0.006907015573233366 -0.0028584450483322144 
vn 0.007050747983157635 0.005831803660839796 -0.004034479148685932 
vn 0.000997810042463243 -0.009839964099228382 0.0014763096114620566 
vn 0.007019241340458393 -0.005867242347449064 0.0040380340069532394 
vn 0.0010510125430300832 -0.00983208417892456 -0.0014918065862730145 
vn 0.006638599559664726 -0.006907015573233366 0.002867425326257944 
vn 0.006666374392807484 -0.007453821133822203 1.2143840377731863e-9 
vn 0.006638599559664726 -0.006907016504555941 -0.0028674229979515076 
vn 0.007047644350677729 -0.005831805057823658 -0.00403989665210247 
vn -0.0070786867290735245 -0.007063339464366436 -0.000037755322409793735 
vn -0.005966301541775465 -0.006485339719802141 -0.004726903047412634 
vn 0.00707878777757287 -0.007063339464366436 1.1507662600607205e-9 
vn 0.005942768417298794 -0.006485339719802141 -0.004756455775350332 
vn 0.00707878777757287 0.007063339464366436 -1.1507662600607205e-9 
vn 0.005947828758507967 0.006485337857156992 -0.004750128369778395 
vn -0.00707878777757287 0.007063339464366436 -1.1507648167707885e-9 
vn -0.005947828758507967 0.006485337857156992 -0.004750128369778395 
vn -0.0070786867290735245 -0.007063339464366436 -0.000037755322409793735 
vn -0.005966301541775465 -0.006485339719802141 -0.004726903047412634 
vn -0.006485947407782078 0.004172206856310368 -0.0063659390434622765 
vn -0.006505834870040417 -0.004172209184616804 -0.006345611531287432 
vn -0.006221368443220854 0.0032393799629062414 -0.007127481512725353 
vn -0.006242067087441683 -0.0032393820583820343 -0.007109360303729773 
vn 0.006505834870040417 -0.004172209184616804 -0.006345611531287432 
vn 0.006512310355901718 0.004172206856310368 -0.00633896654471755 
vn 0.006270397454500198 -0.0032393820583820343 -0.007084385957568884 
vn 0.006221368443220854 0.0032393799629062414 -0.007127481512725353 
vn 0.005942768417298794 -0.006485339719802141 -0.004756455775350332 
vn 0.006505834870040417 -0.004172209184616804 -0.006345611531287432 
vn -0.005966301541775465 -0.006485339719802141 -0.004726903047412634 
vn -0.006505834870040417 -0.004172209184616804 -0.006345611531287432 
vn -0.006242067087441683 -0.0032393820583820343 -0.007109360303729773 
vn 0.006270397454500198 -0.0032393820583820343 -0.007084385957568884 
vn -0.006221368443220854 0.0032393799629062414 -0.007127481512725353 
vn 0.006221368443220854 0.0032393799629062414 -0.007127481512725353 
vn -0.006485947407782078 0.004172206856310368 -0.0063659390434622765 
vn 0.006512310355901718 0.004172206856310368 -0.00633896654471755 
vn 0.005947828758507967 0.006485337857156992 -0.004750128369778395 
vn -0.005947828758507967 0.006485337857156992 -0.004750128369778395 
vn -0.005759913939982653 0.005760594271123409 0.005799909122288227 
vn -0.005759913939982653 0.00576059240847826 -0.005799910984933376 
vn -0.005779946222901344 -0.00576059240847826 0.005779947154223919 
vn -0.005779946222901344 -0.005760594271123409 -0.00577994529157877 
vn 0.005786608438938856 0.00576059240847826 -0.00577327748760581 
vn 0.005779946222901344 -0.005760594271123409 -0.00577994529157877 
vn 0.005786608438938856 0.005760594271123409 0.005773275624960661 
vn 0.005779946222901344 -0.00576059240847826 0.005779947154223919 
vn -0.005759913939982653 0.005760594271123409 0.005799909122288227 
vn -0.005779946222901344 -0.00576059240847826 0.005779947154223919 
vn -0.005759913939982653 0.00576059240847826 -0.005799910984933376 
vn 0.005786608438938856 0.00576059240847826 -0.00577327748760581 
vn -0.005759913939982653 0.005760594271123409 0.005799909122288227 
vn 0.005786608438938856 0.005760594271123409 0.005773275624960661 
vn 0.005779946222901344 -0.005760594271123409 -0.00577994529157877 
vn -0.005779946222901344 -0.005760594271123409 -0.00577994529157877 
vn 0.005779946222901344 -0.00576059240847826 0.005779947154223919 
vn -0.005779946222901344 -0.00576059240847826 0.005779947154223919 
vt 0.7894952297210693 0.5852377414703369 
vt 0.7823050022125244 0.5852377414703369 
vt 0.7894952297210693 0.5686373114585876 
vt 0.7823050022125244 0.5686373114585876 
vt 0.7894952297210693 0.5520368218421936 
vt 0.7823050022125244 0.5520368218421936 
vt 0.7894952297210693 0.5354363918304443 
vt 0.7823050022125244 0.5354363918304443 
vt 0.7894952297210693 0.5188359618186951 
vt 0.7823050022125244 0.5188359618186951 
vt 0.7894952297210693 0.5023003220558167 
vt 0.7823050022125244 0.5023003220558167 
vt 0.7894952297210693 0.4856998920440674 
vt 0.7823050022125244 0.4856998920440674 
vt 0.7894952297210693 0.4690994620323181 
vt 0.7823050022125244 0.4690994620323181 
vt 0.7894952297210693 0.45249900221824646 
vt 0.7823050022125244 0.45249900221824646 
vt 0.7304680943489075 0.11232253909111023 
vt 0.7304680943489075 0.12956808507442474 
vt 0.6956817507743835 0.12956808507442474 
vt 0.6956817507743835 0.14681363105773926 
vt 0.6956817507743835 0.11232253909111023 
vt 0.7304680943489075 0.09507699310779572 
vt 0.6956817507743835 0.09507699310779572 
vt 0.7304680943489075 0.0778314471244812 
vt 0.6956817507743835 0.0778314471244812 
vt 0.7304680943489075 0.06058589741587639 
vt 0.6956817507743835 0.06058589741587639 
vt 0.7304680943489075 0.043340347707271576 
vt 0.6956817507743835 0.043340347707271576 
vt 0.7304680943489075 0.0264329481869936 
vt 0.6956817507743835 0.0264329481869936 
vt 0.7304680943489075 0.012095472775399685 
vt 0.6956817507743835 0.012095472775399685 
vt 0.7304680943489075 0.0024920699652284384 
vt 0.6956817507743835 0.0024920699652284384 
vt 0.8339709043502808 0.0024920699652284384 
vt 0.8339709043502808 0.012095472775399685 
vt 0.8339709043502808 0.0264329481869936 
vt 0.8686896562576294 0.012095472775399685 
vt 0.8686896562576294 0.0264329481869936 
vt 0.8339709043502808 0.043340347707271576 
vt 0.8686896562576294 0.043340347707271576 
vt 0.8339709043502808 0.06058589741587639 
vt 0.8686896562576294 0.06058589741587639 
vt 0.8339709043502808 0.0778314471244812 
vt 0.8686896562576294 0.0778314471244812 
vt 0.8339709043502808 0.09507699310779572 
vt 0.8686896562576294 0.09507699310779572 
vt 0.8339709043502808 0.11232253909111023 
vt 0.8686896562576294 0.11232253909111023 
vt 0.8339709043502808 0.12956808507442474 
vt 0.8686896562576294 0.12956808507442474 
vt 0.8339709043502808 0.14681363105773926 
vt 0.8686896562576294 0.14681363105773926 
vt 0.8339709043502808 0.16405917704105377 
vt 0.8686896562576294 0.16405917704105377 
vt 0.8339709043502808 0.18130473792552948 
vt 0.8686896562576294 0.18130473792552948 
vt 0.8339709043502808 0.198212131857872 
vt 0.8686896562576294 0.198212131857872 
vt 0.8339709043502808 0.2125496119260788 
vt 0.8686896562576294 0.2125496119260788 
vt 0.8339709043502808 0.2220853865146637 
vt 0.8686896562576294 0.2220853865146637 
vt 0.8339709043502808 0.31047725677490234 
vt 0.8686896562576294 0.31047725677490234 
vt 0.8686896562576294 0.0024920699652284384 
vt 0.7304680943489075 0.31047725677490234 
vt 0.7304680943489075 0.2220853865146637 
vt 0.7304680943489075 0.2125496119260788 
vt 0.7304680943489075 0.198212131857872 
vt 0.6956817507743835 0.2125496119260788 
vt 0.6956817507743835 0.198212131857872 
vt 0.7304680943489075 0.18130473792552948 
vt 0.6956817507743835 0.18130473792552948 
vt 0.7304680943489075 0.16405917704105377 
vt 0.6956817507743835 0.16405917704105377 
vt 0.7304680943489075 0.14681363105773926 
vt 0.6956817507743835 0.31047725677490234 
vt 0.6956817507743835 0.2220853865146637 
vt 0.8460469841957092 0.40786388516426086 
vt 0.8631021976470947 0.4103661775588989 
vt 0.8461821675300598 0.4157089293003082 
vt 0.8631021976470947 0.4157089293003082 
vt 0.8800222277641296 0.4103661775588989 
vt 0.8800222277641296 0.4157089293003082 
vt 0.8631021976470947 0.44188156723976135 
vt 0.8800222277641296 0.44188156723976135 
vt 0.8631021976470947 0.4679866135120392 
vt 0.8800222277641296 0.4679866135120392 
vt 0.8631021976470947 0.49409162998199463 
vt 0.8800222277641296 0.49409162998199463 
vt 0.8631021976470947 0.5202642679214478 
vt 0.8800222277641296 0.5202642679214478 
vt 0.8631021976470947 0.5256746411323547 
vt 0.8800222277641296 0.5256746411323547 
vt 0.8460469841957092 0.5281093120574951 
vt 0.8462046980857849 0.5202642679214478 
vt 0.8462046980857849 0.49409162998199463 
vt 0.8462046980857849 0.4679866135120392 
vt 0.8462046980857849 0.44188156723976135 
vt 0.6954789757728577 0.446480393409729 
vt 0.6979122161865234 0.4294377267360687 
vt 0.7033644914627075 0.44634512066841125 
vt 0.7033644914627075 0.4294377267360687 
vt 0.6979122161865234 0.4125303328037262 
vt 0.7033644914627075 0.4125303328037262 
vt 0.7294992804527283 0.4294377267360687 
vt 0.7294992804527283 0.4125303328037262 
vt 0.7556341290473938 0.4294377267360687 
vt 0.7556341290473938 0.4125303328037262 
vt 0.7817463874816895 0.4294377267360687 
vt 0.7817463874816895 0.4125303328037262 
vt 0.8078811764717102 0.4294377267360687 
vt 0.8078811764717102 0.4125303328037262 
vt 0.813265860080719 0.4294377267360687 
vt 0.813265860080719 0.4125303328037262 
vt 0.8157216310501099 0.446480393409729 
vt 0.8078811764717102 0.44634512066841125 
vt 0.7817463874816895 0.44634512066841125 
vt 0.7556341290473938 0.44634512066841125 
vt 0.7294992804527283 0.44634512066841125 
vt 0.6956592202186584 0.405902624130249 
vt 0.6956592202186584 0.3175107538700104 
vt 0.705256998538971 0.405902624130249 
vt 0.7195860743522644 0.405902624130249 
vt 0.7365061044692993 0.405902624130249 
vt 0.7534036040306091 0.40252116322517395 
vt 0.7677552103996277 0.3929177522659302 
vt 0.7773305177688599 0.3785802721977234 
vt 0.7806874513626099 0.36167287826538086 
vt 0.7773305177688599 0.34476548433303833 
vt 0.7677552103996277 0.33042800426483154 
vt 0.7534036040306091 0.32082459330558777 
vt 0.7365061044692993 0.3175107538700104 
vt 0.705256998538971 0.3175107538700104 
vt 0.7195860743522644 0.3175107538700104 
vt 0.8093230724334717 0.3175107538700104 
vt 0.7949939966201782 0.3175107538700104 
vt 0.8262431025505066 0.3175107538700104 
vt 0.7853962182998657 0.3175107538700104 
vt 0.7853962182998657 0.405902624130249 
vt 0.8431406021118164 0.32082459330558777 
vt 0.857492208480835 0.33042800426483154 
vt 0.8670674562454224 0.34476548433303833 
vt 0.8704244494438171 0.36167287826538086 
vt 0.8670674562454224 0.3785802721977234 
vt 0.857492208480835 0.3929177522659302 
vt 0.8431406021118164 0.40252116322517395 
vt 0.8262431025505066 0.405902624130249 
vt 0.8093230724334717 0.405902624130249 
vt 0.7949939966201782 0.405902624130249 
vt 0.8393555879592896 0.4229452908039093 
vt 0.8328444361686707 0.4273412227630615 
vt 0.8393555879592896 0.5264185667037964 
vt 0.8183125853538513 0.4491179585456848 
vt 0.8132207989692688 0.4747495651245117 
vt 0.8183125853538513 0.5003135800361633 
vt 0.8328444361686707 0.5220903158187866 
vt 0.6956592202186584 0.45290520787239075 
vt 0.7021704316139221 0.45736876130104065 
vt 0.6956592202186584 0.5564461350440979 
vt 0.7166797518730164 0.47907787561416626 
vt 0.721794068813324 0.5047094821929932 
vt 0.7166797518730164 0.5303410887718201 
vt 0.7021704316139221 0.5520501732826233 
vt 0.7545526623725891 0.5564461350440979 
vt 0.757706880569458 0.551982581615448 
vt 0.7545526623725891 0.45290520787239075 
vt 0.7722162008285522 0.5302734971046448 
vt 0.7773079872131348 0.5046418309211731 
vt 0.7722162008285522 0.4790102243423462 
vt 0.757706880569458 0.45730113983154297 
vt 0.7267956733703613 0.45290520787239075 
vt 0.7299498915672302 0.45736876130104065 
vt 0.7267956733703613 0.5564461350440979 
vt 0.7444592118263245 0.47907787561416626 
vt 0.749550998210907 0.5047094821929932 
vt 0.7444592118263245 0.5303410887718201 
vt 0.7299498915672302 0.5520501732826233 
vt 0.9925960898399353 0.010454095900058746 
vt 0.9925960898399353 0.9881446361541748 
vt 0.9755324125289917 0.010333897545933723 
vt 0.9755324125289917 0.9880244135856628 
vt 0.9390317797660828 0.010333897545933723 
vt 0.9390317797660828 0.9880244135856628 
vt 0.9219681024551392 0.010213700123131275 
vt 0.9219681024551392 0.9879042506217957 
vt 0.8854674100875854 0.010213700123131275 
vt 0.8854674100875854 0.9879042506217957 
vt 0.9172988533973694 0.9893466234207153 
vt 0.8901366591453552 0.9893466234207153 
vt 0.9127072095870972 0.9946353435516357 
vt 0.8947283625602722 0.9946353435516357 
vt 0.9708632230758667 0.9894667863845825 
vt 0.9437009692192078 0.9894667863845825 
vt 0.9662715196609497 0.9947555065155029 
vt 0.9482926726341248 0.9947555065155029 
vt 0.8765012621879578 0.6103622913360596 
vt 0.8765012621879578 0.604953408241272 
vt 0.8655340075492859 0.6103622913360596 
vt 0.8655340075492859 0.604953408241272 
vt 0.8655340075492859 0.5973809361457825 
vt 0.8765012621879578 0.5973809361457825 
vt 0.8655340075492859 0.5777886509895325 
vt 0.8765012621879578 0.5777886509895325 
vt 0.8655340075492859 0.570216178894043 
vt 0.8765012621879578 0.570216178894043 
vt 0.8765012621879578 0.5649274587631226 
vt 0.8655340075492859 0.5649274587631226 
vt 0.002494750078767538 0.7911697030067444 
vt 0.002494750078767538 0.5939717292785645 
vt 0.6906673312187195 0.7911697030067444 
vt 0.6906673312187195 0.5939717292785645 
vt 0.002494750078767538 0.39677369594573975 
vt 0.6906673312187195 0.39677369594573975 
vt 0.002494750078767538 0.19969680905342102 
vt 0.6906673312187195 0.19969680905342102 
vt 0.002494750078767538 0.0024987999349832535 
vt 0.6906673312187195 0.0024987999349832535 
vt 0.4018213748931885 0.9946664571762085 
vt 0.4018213748931885 0.7974684238433838 
vt 0.20472054183483124 0.9946664571762085 
vt 0.20472054183483124 0.7974684238433838 
vt 0.19967959821224213 0.7974684238433838 
vt 0.002494750078767538 0.7974684238433838 
vt 0.19967959821224213 0.9946664571762085 
vt 0.002494750078767538 0.9946664571762085 
s on 
f 1/1/1 2/2/2 3/3/3 
f 2/2/2 4/4/4 3/3/3 
f 3/3/3 4/4/4 5/5/5 
f 4/4/4 6/6/6 5/5/5 
f 5/5/5 6/6/6 7/7/7 
f 6/6/6 8/8/8 7/7/7 
f 7/7/7 8/8/8 9/9/9 
f 8/8/8 10/10/10 9/9/9 
f 9/9/9 10/10/10 11/11/11 
f 10/10/10 12/12/12 11/11/11 
f 11/11/11 12/12/12 13/13/13 
f 12/12/12 14/14/14 13/13/13 
f 13/13/13 14/14/14 15/15/15 
f 14/14/14 16/16/16 15/15/15 
f 15/15/15 16/16/16 17/17/17 
f 16/16/16 18/18/18 17/17/17 
f 17/17/17 18/18/18 18/18/18 
f 18/18/18 19/19/19 18/18/18 
f 18/18/18 19/19/19 19/19/19 
f 19/19/19 20/20/20 19/19/19 
f 19/19/19 20/20/20 21/21/21 
f 20/20/20 22/22/22 21/21/21 
f 21/21/21 22/22/22 22/22/22 
f 22/22/22 21/21/21 22/22/22 
f 22/22/22 21/21/21 21/21/21 
f 21/21/21 23/23/23 21/21/21 
f 21/21/21 23/23/23 19/19/19 
f 23/23/23 23/23/23 19/19/19 
f 19/19/19 23/23/23 24/24/24 
f 23/23/23 25/25/25 24/24/24 
f 24/24/24 25/25/25 26/26/26 
f 25/25/25 27/27/27 26/26/26 
f 26/26/26 27/27/27 28/28/28 
f 27/27/27 29/29/29 28/28/28 
f 28/28/28 29/29/29 30/30/30 
f 29/29/29 31/31/31 30/30/30 
f 30/30/30 31/31/31 32/32/32 
f 31/31/31 33/33/33 32/32/32 
f 32/32/32 33/33/33 34/34/34 
f 33/33/33 35/35/35 34/34/34 
f 34/34/34 35/35/35 36/36/36 
f 35/35/35 37/37/37 36/36/36 
f 36/36/36 37/37/37 37/37/37 
f 37/37/37 36/36/36 37/37/37 
f 37/37/37 36/36/36 36/36/36 
f 36/36/36 38/38/38 36/36/36 
f 36/36/36 38/38/38 34/34/34 
f 38/38/38 39/39/39 34/34/34 
f 34/34/34 39/39/39 32/32/32 
f 39/39/39 39/39/39 32/32/32 
f 32/32/32 39/39/39 40/40/40 
f 39/39/39 41/41/41 40/40/40 
f 40/40/40 41/41/41 40/40/40 
f 41/41/41 42/42/42 40/40/40 
f 40/40/40 42/42/42 43/43/43 
f 42/42/42 44/44/44 43/43/43 
f 43/43/43 44/44/44 45/45/45 
f 44/44/44 46/46/46 45/45/45 
f 45/45/45 46/46/46 47/47/47 
f 46/46/46 48/48/48 47/47/47 
f 47/47/47 48/48/48 49/49/49 
f 48/48/48 50/50/50 49/49/49 
f 49/49/49 50/50/50 51/51/51 
f 50/50/50 52/52/52 51/51/51 
f 51/51/51 52/52/52 53/53/53 
f 52/52/52 54/54/54 53/53/53 
f 53/53/53 54/54/54 55/55/55 
f 54/54/54 56/56/56 55/55/55 
f 55/55/55 56/56/56 57/57/57 
f 56/56/56 58/58/58 57/57/57 
f 57/57/57 58/58/58 59/59/59 
f 58/58/58 60/60/60 59/59/59 
f 59/59/59 60/60/60 61/61/61 
f 60/60/60 62/62/62 61/61/61 
f 61/61/61 62/62/62 63/63/63 
f 62/62/62 64/64/64 63/63/63 
f 63/63/63 64/64/64 65/65/65 
f 64/64/64 66/66/66 65/65/65 
f 65/65/65 66/66/66 67/67/67 
f 66/66/66 68/68/68 67/67/67 
f 67/67/67 68/68/68 68/68/68 
f 68/68/68 38/38/38 68/68/68 
f 68/68/68 38/38/38 38/38/38 
f 38/38/38 69/69/69 38/38/38 
f 38/38/38 69/69/69 39/39/39 
f 69/69/69 41/41/41 39/39/39 
f 39/39/39 41/41/41 41/41/41 
f 41/41/41 67/67/67 41/41/41 
f 41/41/41 67/67/67 67/67/67 
f 67/67/67 70/70/70 67/67/67 
f 67/67/67 70/70/70 65/65/65 
f 70/70/70 71/71/71 65/65/65 
f 65/65/65 71/71/71 63/63/63 
f 71/71/71 72/72/72 63/63/63 
f 63/63/63 72/72/72 61/61/61 
f 72/72/72 72/72/72 61/61/61 
f 61/61/61 72/72/72 73/73/73 
f 72/72/72 74/74/74 73/73/73 
f 73/73/73 74/74/74 73/73/73 
f 74/74/74 75/75/75 73/73/73 
f 73/73/73 75/75/75 76/76/76 
f 75/75/75 77/77/77 76/76/76 
f 76/76/76 77/77/77 78/78/78 
f 77/77/77 79/79/79 78/78/78 
f 78/78/78 79/79/79 80/80/80 
f 79/79/79 22/22/22 80/80/80 
f 80/80/80 22/22/22 80/80/80 
f 22/22/22 20/20/20 80/80/80 
f 80/80/80 20/20/20 53/53/53 
f 20/20/20 51/51/51 53/53/53 
f 53/53/53 51/51/51 51/51/51 
f 51/51/51 70/70/70 51/51/51 
f 51/51/51 70/70/70 70/70/70 
f 70/70/70 81/81/81 70/70/70 
f 70/70/70 81/81/81 71/71/71 
f 81/81/81 82/82/82 71/71/71 
f 71/71/71 82/82/82 72/72/72 
f 82/82/82 74/74/74 72/72/72 
f 72/72/72 74/74/74 74/74/74 
f 74/74/74 53/53/53 74/74/74 
f 74/74/74 53/53/53 53/53/53 
f 53/53/53 55/55/55 53/53/53 
f 53/53/53 55/55/55 80/80/80 
f 55/55/55 55/55/55 80/80/80 
f 80/80/80 55/55/55 78/78/78 
f 55/55/55 57/57/57 78/78/78 
f 78/78/78 57/57/57 57/57/57 
f 57/57/57 20/20/20 57/57/57 
f 57/57/57 20/20/20 20/20/20 
f 20/20/20 19/19/19 20/20/20 
f 20/20/20 19/19/19 51/51/51 
f 19/19/19 19/19/19 51/51/51 
f 51/51/51 19/19/19 49/49/49 
f 19/19/19 24/24/24 49/49/49 
f 49/49/49 24/24/24 47/47/47 
f 24/24/24 26/26/26 47/47/47 
f 47/47/47 26/26/26 45/45/45 
f 26/26/26 28/28/28 45/45/45 
f 45/45/45 28/28/28 28/28/28 
f 28/28/28 83/83/83 28/28/28 
f 28/28/28 83/83/83 83/83/83 
f 83/83/83 84/84/84 83/83/83 
f 83/83/83 84/84/84 85/85/85 
f 84/84/84 84/84/84 85/85/85 
f 85/85/85 84/84/84 86/86/86 
f 84/84/84 87/87/87 86/86/86 
f 86/86/86 87/87/87 86/86/86 
f 87/87/87 88/88/88 86/86/86 
f 86/86/86 88/88/88 89/89/89 
f 88/88/88 90/90/90 89/89/89 
f 89/89/89 90/90/90 91/91/91 
f 90/90/90 92/92/92 91/91/91 
f 91/91/91 92/92/92 93/93/93 
f 92/92/92 94/94/94 93/93/93 
f 93/93/93 94/94/94 95/95/95 
f 94/94/94 96/96/96 95/95/95 
f 95/95/95 96/96/96 97/97/97 
f 96/96/96 98/98/98 97/97/97 
f 97/97/97 98/98/98 98/98/98 
f 98/98/98 97/97/97 98/98/98 
f 98/98/98 97/97/97 97/97/97 
f 97/97/97 99/99/99 97/97/97 
f 97/97/97 99/99/99 95/95/95 
f 99/99/99 100/100/100 95/95/95 
f 95/95/95 100/100/100 93/93/93 
f 100/100/100 101/101/101 93/93/93 
f 93/93/93 101/101/101 91/91/91 
f 101/101/101 102/102/102 91/91/91 
f 91/91/91 102/102/102 89/89/89 
f 102/102/102 103/103/103 89/89/89 
f 89/89/89 103/103/103 86/86/86 
f 103/103/103 85/85/85 86/86/86 
f 86/86/86 85/85/85 85/85/85 
f 85/85/85 104/104/104 85/85/85 
f 85/85/85 104/104/104 104/104/104 
f 104/104/104 105/105/105 104/104/104 
f 104/104/104 105/105/105 106/106/106 
f 105/105/105 105/105/105 106/106/106 
f 106/106/106 105/105/105 107/107/107 
f 105/105/105 108/108/108 107/107/107 
f 107/107/107 108/108/108 107/107/107 
f 108/108/108 109/109/109 107/107/107 
f 107/107/107 109/109/109 110/110/110 
f 109/109/109 111/111/111 110/110/110 
f 110/110/110 111/111/111 112/112/112 
f 111/111/111 113/113/113 112/112/112 
f 112/112/112 113/113/113 114/114/114 
f 113/113/113 115/115/115 114/114/114 
f 114/114/114 115/115/115 116/116/116 
f 115/115/115 117/117/117 116/116/116 
f 116/116/116 117/117/117 118/118/118 
f 117/117/117 119/119/119 118/118/118 
f 118/118/118 119/119/119 119/119/119 
f 119/119/119 118/118/118 119/119/119 
f 119/119/119 118/118/118 118/118/118 
f 118/118/118 120/120/120 118/118/118 
f 118/118/118 120/120/120 116/116/116 
f 120/120/120 121/121/121 116/116/116 
f 116/116/116 121/121/121 114/114/114 
f 121/121/121 122/122/122 114/114/114 
f 114/114/114 122/122/122 112/112/112 
f 122/122/122 123/123/123 112/112/112 
f 112/112/112 123/123/123 110/110/110 
f 123/123/123 124/124/124 110/110/110 
f 110/110/110 124/124/124 107/107/107 
f 124/124/124 106/106/106 107/107/107 
f 107/107/107 106/106/106 106/106/106 
f 106/106/106 125/125/125 106/106/106 
f 106/106/106 125/125/125 125/125/125 
f 125/125/125 126/126/126 125/125/125 
f 125/125/125 126/126/126 127/127/127 
f 126/126/126 126/126/126 127/127/127 
f 127/127/127 126/126/126 128/128/128 
f 126/126/126 126/126/126 128/128/128 
f 128/128/128 126/126/126 129/129/129 
f 126/126/126 126/126/126 129/129/129 
f 129/129/129 126/126/126 130/130/130 
f 126/126/126 126/126/126 130/130/130 
f 130/130/130 126/126/126 131/131/131 
f 126/126/126 126/126/126 131/131/131 
f 131/131/131 126/126/126 132/132/132 
f 126/126/126 126/126/126 132/132/132 
f 132/132/132 126/126/126 133/133/133 
f 126/126/126 126/126/126 133/133/133 
f 133/133/133 126/126/126 134/134/134 
f 126/126/126 126/126/126 134/134/134 
f 134/134/134 126/126/126 135/135/135 
f 126/126/126 126/126/126 135/135/135 
f 135/135/135 126/126/126 136/136/136 
f 126/126/126 126/126/126 136/136/136 
f 136/136/136 126/126/126 137/137/137 
f 126/126/126 138/138/138 137/137/137 
f 137/137/137 138/138/138 139/139/139 
f 138/138/138 139/139/139 139/139/139 
f 139/139/139 139/139/139 140/140/140 
f 139/139/139 140/140/140 140/140/140 
f 140/140/140 140/140/140 141/141/141 
f 140/140/140 142/142/142 141/141/141 
f 141/141/141 142/142/142 143/143/143 
f 142/142/142 142/142/142 143/143/143 
f 143/143/143 142/142/142 144/144/144 
f 142/142/142 145/145/145 144/144/144 
f 144/144/144 145/145/145 144/144/144 
f 145/145/145 146/146/146 144/144/144 
f 144/144/144 146/146/146 144/144/144 
f 146/146/146 147/147/147 144/144/144 
f 144/144/144 147/147/147 144/144/144 
f 147/147/147 148/148/148 144/144/144 
f 144/144/144 148/148/148 144/144/144 
f 148/148/148 149/149/149 144/144/144 
f 144/144/144 149/149/149 144/144/144 
f 149/149/149 150/150/150 144/144/144 
f 144/144/144 150/150/150 144/144/144 
f 150/150/150 151/151/151 144/144/144 
f 144/144/144 151/151/151 144/144/144 
f 151/151/151 152/152/152 144/144/144 
f 144/144/144 152/152/152 144/144/144 
f 152/152/152 153/153/153 144/144/144 
f 144/144/144 153/153/153 154/154/154 
f 153/153/153 154/154/154 154/154/154 
f 154/154/154 154/154/154 155/155/155 
f 154/154/154 155/155/155 155/155/155 
f 155/155/155 155/155/155 156/156/156 
f 155/155/155 157/157/157 156/156/156 
f 156/156/156 157/157/157 158/158/158 
f 157/157/157 157/157/157 158/158/158 
f 158/158/158 157/157/157 159/159/159 
f 157/157/157 157/157/157 159/159/159 
f 159/159/159 157/157/157 160/160/160 
f 157/157/157 161/161/161 160/160/160 
f 160/160/160 161/161/161 161/161/161 
f 161/161/161 162/162/162 161/161/161 
f 161/161/161 162/162/162 162/162/162 
f 162/162/162 163/163/163 162/162/162 
f 162/162/162 163/163/163 164/164/164 
f 163/163/163 165/165/165 164/164/164 
f 164/164/164 165/165/165 164/164/164 
f 165/165/165 166/166/166 164/164/164 
f 164/164/164 166/166/166 164/164/164 
f 166/166/166 167/167/167 164/164/164 
f 164/164/164 167/167/167 168/168/168 
f 167/167/167 168/168/168 168/168/168 
f 168/168/168 168/168/168 169/169/169 
f 168/168/168 169/169/169 169/169/169 
f 169/169/169 169/169/169 170/170/170 
f 169/169/169 171/171/171 170/170/170 
f 170/170/170 171/171/171 172/172/172 
f 171/171/171 171/171/171 172/172/172 
f 172/172/172 171/171/171 173/173/173 
f 171/171/171 171/171/171 173/173/173 
f 173/173/173 171/171/171 174/174/174 
f 171/171/171 175/175/175 174/174/174 
f 174/174/174 175/175/175 175/175/175 
f 175/175/175 176/176/176 175/175/175 
f 175/175/175 176/176/176 176/176/176 
f 176/176/176 177/177/177 176/176/176 
f 176/176/176 177/177/177 178/178/178 
f 177/177/177 179/179/179 178/178/178 
f 178/178/178 179/179/179 178/178/178 
f 179/179/179 180/180/180 178/178/178 
f 178/178/178 180/180/180 178/178/178 
f 180/180/180 181/181/181 178/178/178 
f 178/178/178 181/181/181 182/182/182 
f 181/181/181 182/182/182 182/182/182 
f 182/182/182 182/182/182 183/183/183 
f 182/182/182 183/183/183 183/183/183 
f 183/183/183 183/183/183 183/183/183 
f 183/183/183 184/184/184 183/183/183 
f 183/183/183 184/184/184 185/185/185 
f 184/184/184 186/186/186 185/185/185 
f 185/185/185 186/186/186 187/187/187 
f 186/186/186 188/188/188 187/187/187 
f 187/187/187 188/188/188 189/189/189 
f 188/188/188 190/190/190 189/189/189 
f 189/189/189 190/190/190 191/191/191 
f 190/190/190 190/190/190 191/191/191 
f 191/191/191 190/190/190 192/192/192 
f 190/190/190 193/193/193 192/192/192 
f 192/192/192 193/193/193 194/194/194 
f 193/193/193 195/195/195 194/194/194 
f 194/194/194 195/195/195 196/196/196 
f 195/195/195 196/196/196 196/196/196 
f 196/196/196 196/196/196 186/186/186 
f 196/196/196 186/186/186 186/186/186 
f 186/186/186 186/186/186 188/188/188 
f 186/186/186 197/197/197 188/188/188 
f 188/188/188 197/197/197 198/198/198 
f 197/197/197 199/199/199 198/198/198 
f 198/198/198 199/199/199 200/200/200 
f 199/199/199 200/200/200 200/200/200 
f 200/200/200 200/200/200 201/201/201 
f 200/200/200 201/201/201 201/201/201 
f 201/201/201 201/201/201 202/202/202 
f 201/201/201 203/203/203 202/202/202 
f 202/202/202 203/203/203 202/202/202 
f 203/203/203 204/204/204 202/202/202 
f 202/202/202 204/204/204 202/202/202 
f 204/204/204 205/205/205 202/202/202 
f 202/202/202 205/205/205 206/206/206 
f 205/205/205 207/207/207 206/206/206 
f 206/206/206 207/207/207 208/208/208 
f 207/207/207 209/209/209 208/208/208 
f 208/208/208 209/209/209 210/210/210 
f 209/209/209 209/209/209 210/210/210 
f 210/210/210 209/209/209 211/211/211 
f 209/209/209 212/212/212 211/211/211 
f 211/211/211 212/212/212 212/212/212 
f 212/212/212 213/213/213 212/212/212 
f 212/212/212 213/213/213 213/213/213 
f 213/213/213 214/214/214 213/213/213 
f 213/213/213 214/214/214 215/215/215 
f 214/214/214 214/214/214 215/215/215 
f 215/215/215 214/214/214 216/216/216 
f 214/214/214 217/217/217 216/216/216 
f 216/216/216 217/217/217 218/218/218 
f 217/217/217 219/219/219 218/218/218 
f 218/218/218 219/219/219 220/220/220 
f 219/219/219 221/221/221 220/220/220 
f 220/220/220 221/221/221 222/222/222 
f 221/221/221 222/222/222 222/222/222 
f 222/222/222 222/222/222 223/223/223 
f 222/222/222 223/223/223 223/223/223 
f 223/223/223 223/223/223 224/224/224 
f 223/223/223 225/225/225 224/224/224 
f 224/224/224 225/225/225 226/226/226 
f 225/225/225 226/226/226 226/226/226 
f 226/226/226 226/226/226 227/227/227 
f 226/226/226 227/227/227 227/227/227 
f 227/227/227 227/227/227 228/228/228 
f 227/227/227 229/229/229 228/228/228 
f 228/228/228 229/229/229 230/230/230 

