g 8ball
v 0.09126344 -0.0668545 0.4870333
v -0.0050413893 0.031187657 0.49900088
v 0.092594616 0.03109689 0.49036637
v -0.0044965297 -0.06676549 0.4955019
v -0.10248367 0.030079897 0.48845908
v 0.18353249 -0.06811558 0.4600827
v 0.18667132 0.029811112 0.46288782
v -0.100066476 -0.06785195 0.48516262
v -0.19598757 0.027816182 0.45914608
v 0.26876673 -0.07050028 0.41568518
v 0.2735754 0.02737969 0.41762048
v -0.19177373 -0.07007217 0.45641288
v -0.28195983 0.024483504 0.4121883
v 0.34368962 -0.07391694 0.35554704
v 0.34996614 0.023896085 0.35630417
v -0.27609405 -0.07334081 0.41035736
v -0.35709652 0.020209938 0.34939036
v 0.40542194 -0.078234285 0.2819795
v 0.41290784 0.019494165 0.28129533
v -0.34978703 -0.07753226 0.3487661
v -0.41851017 0.01515971 0.2731655
v 0.4515913 -0.083286375 0.19780959
v 0.4599818 0.014343094 0.19547644
v -0.41002065 -0.08248545 0.27400586
v -0.46384063 0.009526904 0.18644305
v 0.48042354 -0.08887908 0.106271975
v 0.48937884 0.008640821 0.10214551
v -0.45448014 -0.08801003 0.18894976
v -0.49134606 0.0035279812 0.0925557
v 0.49081048 -0.09479747 0.010884392
v 0.49996927 0.0026064855 0.004889154
v -0.481457 -0.09389368 0.09686644
v -0.49996927 -0.0026065214 -0.0048885196
v 0.48235306 -0.1008141 -0.08468749
v 0.49134618 -0.003528017 -0.09255507
v -0.4899145 -0.09991031 0.0012945881
v -0.48937893 -0.008640857 -0.102144875
v 0.45537633 -0.10669775 -0.17677084
v 0.4638409 -0.009526941 -0.18644245
v -0.47952765 -0.1058287 -0.09409302
v -0.45998204 -0.014343133 -0.19547586
v 0.41091692 -0.112222336 -0.261827
v 0.4185105 -0.015159751 -0.27316496
v -0.4506956 -0.111421406 -0.18563065
v -0.41290823 -0.01949421 -0.28129482
v 0.35068342 -0.11717553 -0.3365873
v 0.3570969 -0.020209981 -0.34938985
v -0.40452632 -0.11647351 -0.2698006
v -0.34996662 -0.023896134 -0.3563037
v 0.2769905 -0.121366985 -0.3981787
v 0.2819603 -0.024483554 -0.4121879
v -0.34279412 -0.12079085 -0.3433683
v -0.27357593 -0.027379747 -0.4176201
v 0.1926703 -0.12463563 -0.44423425
v 0.19598816 -0.027816238 -0.4591458
v -0.26787126 -0.12420752 -0.40350646
v -0.18667191 -0.02981117 -0.4628876
v 0.10096303 -0.12685585 -0.4729842
v 0.10248423 -0.030079959 -0.48845893
v -0.18263707 -0.12659222 -0.44790414
v -0.09259417 -0.031096965 -0.4903665
v 0.005393031 -0.12794234 -0.48332354
v 0.005041916 -0.031187728 -0.49900088
v -0.090367 -0.12785332 -0.47485507
v 0.18194821 -0.21666536 -0.41225109
v 0.09556187 -0.21875675 -0.4393329
v 0.0055368976 -0.21978019 -0.4490724
v -0.08466709 -0.21969634 -0.44109526
v -0.1715836 -0.21850841 -0.41570807
v -0.25187245 -0.21626209 -0.37388635
v 0.26137614 -0.21358636 -0.36886767
v -0.32244822 -0.21304363 -0.3172374
v 0.33079335 -0.20963807 -0.31084982
v -0.38059872 -0.2089768 -0.24793819
v 0.3875321 -0.20497227 -0.24042718
v -0.42408922 -0.2042178 -0.16865183
v 0.42941186 -0.19976825 -0.16030602
v -0.4512484 -0.1989496 -0.08242522
v 0.45482343 -0.19422595 -0.07356539
v -0.4610326 -0.1933746 0.007427929
v 0.46279016 -0.18855841 0.016461335
v -0.4530658 -0.18770707 0.09745466
v 0.45300582 -0.18298341 0.10631447
v -0.42765418 -0.18216477 0.18419527
v 0.4258465 -0.1777152 0.19254102
v -0.38577422 -0.17696075 0.26431632
v 0.38235593 -0.17295623 0.2718273
v -0.3290354 -0.17229494 0.3347389
v 0.32420534 -0.16888939 0.34112647
v -0.2596181 -0.16834669 0.39275664
v 0.2536295 -0.16567096 0.39777535
v -0.18019013 -0.16526769 0.43614
v 0.17334057 -0.16342461 0.43959695
v -0.0938038 -0.16317628 0.46322167
v 0.08642505 -0.1622367 0.46498382
v -0.003778867 -0.16215286 0.47296104
v 0.29226205 -0.25737152 0.31359664
v 0.22874546 -0.254475 0.36457923
v 0.15648732 -0.25245333 0.4022177
v 0.07826541 -0.25138426 0.42506534
v -0.0029159826 -0.2513088 0.43224463
v -0.083936274 -0.25222984 0.42347944
v 0.34459615 -0.26103157 0.25122902
v -0.16168194 -0.25411206 0.39910653
v 0.38373667 -0.26531455 0.17987321
v -0.23316525 -0.25688308 0.36006257
v 0.40817943 -0.2700558 0.10227137
v -0.29563913 -0.26043642 0.30784798
v 0.4169851 -0.27507317 0.021405678
v -0.34670275 -0.26463553 0.2444693
v 0.40981528 -0.2801738 -0.05961625
v -0.38439366 -0.26931906 0.17236222
v 0.38694546 -0.28516176 -0.13768075
v -0.4072636 -0.27430698 0.094297744
v 0.3492546 -0.28984526 -0.20978789
v -0.4144335 -0.27940762 0.013275827
v 0.29819107 -0.29404438 -0.2731666
v -0.40562794 -0.284425 -0.06758988
v 0.23571725 -0.29759774 -0.32538128
v -0.3811853 -0.28916627 -0.14519176
v 0.16423398 -0.30036876 -0.36442533
v -0.34204492 -0.29344922 -0.21654761
v 0.08648832 -0.30225095 -0.38879833
v -0.28971085 -0.29710928 -0.27891526
v 0.0054679834 -0.30317205 -0.39756364
v -0.2261943 -0.30000582 -0.32989797
v -0.07571346 -0.30309656 -0.39038444
v -0.15393625 -0.30202746 -0.3675365
v 0.07409107 -0.37412986 -0.32332242
v 0.005188944 -0.3749132 -0.33077666
v -0.0638502 -0.374849 -0.3246712
v -0.13037322 -0.37393978 -0.30524066
v -0.19182366 -0.37222052 -0.27323174
v -0.24584001 -0.36975724 -0.2298745
v 0.14020832 -0.37252918 -0.30259484
v -0.29034644 -0.3666446 -0.1768352
v 0.20099981 -0.3701726 -0.2693906
v -0.32363263 -0.36300224 -0.11615204
v 0.25412944 -0.36715075 -0.22498569
v -0.3444194 -0.3589701 -0.05015706
v 0.2975554 -0.36357966 -0.17108652
v -0.3519079 -0.3547032 0.018613555
v 0.32960883 -0.35959667 -0.10976446
v -0.34581038 -0.35036546 0.08751702
v 0.34905797 -0.35535482 -0.04337606
v -0.32636112 -0.34612358 0.1539054
v 0.35515544 -0.35101706 0.025527414
v -0.2943076 -0.3421406 0.21522744
v 0.3476668 -0.3467501 0.094298035
v -0.2508816 -0.33856955 0.26912653
v 0.32688 -0.34271803 0.160293
v -0.19775192 -0.33554766 0.3135314
v 0.29359373 -0.33907565 0.2209761
v -0.13696036 -0.33319113 0.34673557
v 0.24908718 -0.33596304 0.27401534
v -0.07084313 -0.3315904 0.367463
v 0.1950708 -0.33349976 0.3173725
v -0.0019410407 -0.33080712 0.37491718
v 0.13362032 -0.33178046 0.34938136
v 0.06709805 -0.33087128 0.36881167
v 0.23130867 -0.40408924 0.1822312
v 0.19634013 -0.40164363 0.2239039
v 0.1538997 -0.39970827 0.2579694
v 0.10561837 -0.39835745 0.28311858
v 0.05335217 -0.3976431 0.29838485
v -0.00089150155 -0.3975927 0.30318195
v 0.25746155 -0.40695104 0.13455278
v -0.055027533 -0.3982081 0.29732522
v 0.27379367 -0.41011906 0.082700886
v -0.10697552 -0.39946577 0.28103977
v 0.2796774 -0.41347152 0.028668154
v -0.15473913 -0.4013173 0.25495142
v 0.27488667 -0.41687968 -0.025468964
v -0.19648284 -0.40369156 0.22006278
v 0.25960556 -0.42021248 -0.07763
v -0.23060247 -0.40649733 0.1777145
v 0.23442134 -0.42334193 -0.12581044
v -0.25578672 -0.40962672 0.12953408
v 0.20030177 -0.42614767 -0.16815874
v -0.2710679 -0.41295958 0.077373065
v 0.15855812 -0.42852196 -0.20304747
v -0.2758587 -0.4163677 0.023235964
v 0.110794544 -0.4303735 -0.22913587
v -0.269975 -0.4197202 -0.030796776
v 0.058846533 -0.43163115 -0.24542138
v -0.253643 -0.42288822 -0.08264869
v 0.0047104848 -0.43224657 -0.2512782
v -0.22749019 -0.42575002 -0.13032714
v -0.049533214 -0.43219614 -0.24648115
v -0.1925217 -0.42819563 -0.17199989
v -0.101800025 -0.4314818 -0.23121469
v -0.1500813 -0.43013096 -0.20606542
v 0.0040510115 -0.47296906 -0.16212319
v -0.0333127 -0.4729343 -0.15881895
v -0.0693147 -0.47244224 -0.14830321
v -0.102571435 -0.47151175 -0.13098012
v -0.13180488 -0.47017866 -0.10751535
v -0.1558916 -0.46849412 -0.07881068
v 0.041340575 -0.4725451 -0.15808895
v -0.17390595 -0.46652287 -0.04596918
v 0.07712297 -0.47167882 -0.14687131
v -0.18515566 -0.4643407 -0.010252968
v 0.1100231 -0.47040346 -0.1289013
v -0.1892084 -0.46203148 0.026965426
v 0.13877663 -0.46876803 -0.104869545
v -0.18590845 -0.4596839 0.06425572
v 0.1622786 -0.4668354 -0.07569951
v -0.1753826 -0.45738822 0.10018486
v 0.17962578 -0.4646798 -0.042512257
v -0.15803537 -0.45523262 0.1333721
v 0.1901516 -0.46238413 -0.00658311
v -0.13453338 -0.4533 0.16254209
v 0.19345151 -0.46003655 0.030707186
v -0.105779804 -0.45166457 0.18657382
v 0.18939872 -0.45772728 0.06792558
v -0.07287965 -0.4503892 0.20454378
v 0.17814896 -0.45554516 0.103641786
v -0.03709724 -0.44952294 0.2157614
v 0.16013455 -0.4535739 0.13648325
v 0.00019229593 -0.44909897 0.21979557
v 0.1360478 -0.45188937 0.1651879
v 0.03755598 -0.44913372 0.21649128
v 0.10681434 -0.45055625 0.18865262
v 0.07355757 -0.4496258 0.20597568
v 0.091990225 -0.48663288 0.068747886
v 0.08280656 -0.48562795 0.08549032
v 0.0022963532 -0.4990196 0.03121206
v 0.097725295 -0.4877453 0.05053993
v 0.07052724 -0.48476914 0.10012383
v 0.09979139 -0.48892257 0.031566158
v 0.055624142 -0.48408952 0.11208605
v 0.09810911 -0.49011934 0.0125557305
v 0.03867 -0.4836152 0.12091725
v 0.092743106 -0.49128968 -0.0057607885
v 0.020316543 -0.48336434 0.12627807
v 0.08389958 -0.4923886 -0.022679511
v 0.0012687019 -0.48334664 0.12796257
v 0.07191838 -0.49337384 -0.037550256
v -0.017741343 -0.48356277 0.12590596
v 0.057259962 -0.49420756 -0.04980154
v -0.035983052 -0.4840044 0.12018728
v 0.040487625 -0.49485773 -0.05896257
v -0.052755397 -0.48465458 0.111026265
v 0.02224591 -0.49529937 -0.064681284
v -0.067413844 -0.4854883 0.098775
v 0.0032358589 -0.4955155 -0.066737905
v -0.07939505 -0.48647356 0.083904274
v -0.015811998 -0.4954978 -0.065053426
v -0.0882386 -0.48757246 0.06698557
v -0.034165654 -0.49524695 -0.059692554
v -0.09360463 -0.4887428 0.048669048
v -0.05111979 -0.4947726 -0.05086131
v -0.095286936 -0.48993957 0.029658627
v -0.06602287 -0.49409294 -0.038899083
v -0.09322087 -0.49111682 0.010684855
v -0.078302175 -0.4932342 -0.024265563
v -0.08748581 -0.49222925 -0.0075231143
v 0.092594616 0.03109689 0.49036637
v -0.0050413893 0.031187657 0.49900088
v -0.005392522 0.12794226 0.4833236
v 0.09036745 0.12785324 0.47485498
v 0.18667132 0.029811112 0.46288782
v -0.10096247 0.12685579 0.4729843
v -0.10248367 0.030079897 0.48845908
v 0.18263648 0.12659217 0.44790438
v 0.2735754 0.02737969 0.41762048
v -0.19266972 0.124635585 0.44423455
v -0.19598757 0.027816182 0.45914608
v 0.26787075 0.124207474 0.40350685
v 0.34996614 0.023896085 0.35630417
v -0.27699003 0.12136693 0.39817902
v -0.28195983 0.024483504 0.4121883
v 0.34279364 0.12079081 0.3433687
v 0.41290784 0.019494165 0.28129533
v -0.350683 0.117175475 0.33658776
v -0.35709652 0.020209938 0.34939036
v 0.40452597 0.11647346 0.26980117
v 0.4599818 0.014343094 0.19547644
v -0.41091663 0.11222229 0.26182753
v -0.41851017 0.01515971 0.2731655
v 0.45069537 0.11142137 0.18563126
v 0.48937884 0.008640821 0.10214551
v -0.45537612 0.10669772 0.17677143
v -0.46384063 0.009526904 0.18644305
v 0.47952756 0.105828665 0.094093636
v 0.49996927 0.0026064855 0.004889154
v -0.48235297 0.10081407 0.0846881
v -0.49134606 0.0035279812 0.0925557
v 0.4899145 0.099910274 -0.0012939477
v 0.49134618 -0.003528017 -0.09255507
v -0.49081048 0.09479743 -0.010883751
v -0.49996927 -0.0026065214 -0.0048885196
v 0.48145708 0.09389365 -0.096865825
v 0.4638409 -0.009526941 -0.18644245
v -0.48042363 0.08887905 -0.10627135
v -0.48937893 -0.008640857 -0.102144875
v 0.45448035 0.08800999 -0.18894917
v 0.4185105 -0.015159751 -0.27316496
v -0.45159158 0.08328634 -0.19780898
v -0.45998204 -0.014343133 -0.19547586
v 0.41002095 0.082485415 -0.27400532
v 0.3570969 -0.020209981 -0.34938985
v -0.4054223 0.07823424 -0.28197894
v -0.41290823 -0.01949421 -0.28129482
v 0.34978747 0.077532224 -0.3487656
v 0.2819603 -0.024483554 -0.4121879
v -0.3436901 0.0739169 -0.3555466
v -0.34996662 -0.023896134 -0.3563037
v 0.27609453 0.07334076 -0.41035703
v 0.19598816 -0.027816238 -0.4591458
v -0.26876724 0.070500225 -0.4156848
v -0.27357593 -0.027379747 -0.4176201
v 0.19177431 0.070072114 -0.45641258
v 0.10248423 -0.030079959 -0.48845893
v -0.18353307 0.06811552 -0.46008247
v -0.18667191 -0.02981117 -0.4628876
v 0.100067034 0.067851886 -0.48516253
v 0.005041916 -0.031187728 -0.49900088
v -0.091262996 0.066854425 -0.4870334
v -0.09259417 -0.031096965 -0.4903665
v 0.0044970387 0.06676541 -0.49550188
v -0.25363 0.16567089 -0.39777502
v -0.17334114 0.16342455 -0.4395967
v -0.086424634 0.16223663 -0.4649839
v 0.0037793454 0.16215278 -0.47296104
v 0.09380432 0.16317622 -0.46322158
v 0.18019067 0.16526763 -0.43613976
v -0.32420576 0.16888934 -0.34112608
v 0.2596186 0.16834663 -0.3927563
v -0.38235626 0.1729562 -0.27182683
v 0.3290358 0.1722949 -0.3347385
v -0.4258468 0.17771517 -0.1925405
v 0.38577452 0.1769607 -0.26431584
v -0.45300597 0.18298338 -0.10631389
v 0.42765433 0.18216474 -0.18419468
v -0.46279016 0.18855837 -0.016460743
v 0.4530659 0.18770702 -0.09745407
v -0.45482334 0.19422592 0.07356598
v 0.4610326 0.19337457 -0.007427337
v -0.4294117 0.1997682 0.16030659
v 0.4512483 0.19894956 0.0824258
v -0.38753176 0.20497222 0.24042767
v 0.42408893 0.20421779 0.16865236
v -0.33079293 0.20963804 0.31085026
v 0.38059837 0.20897675 0.24793866
v -0.26137567 0.2135863 0.368868
v 0.3224478 0.21304359 0.3172378
v -0.18194768 0.21666528 0.41225132
v 0.25187194 0.21626204 0.3738867
v -0.09556135 0.2187567 0.43933302
v 0.17158303 0.21850836 0.4157083
v -0.0055364193 0.21978013 0.4490724
v 0.084667504 0.21969628 0.44109517
v -0.23571683 0.29759774 0.32538158
v -0.16423349 0.30036876 0.36442554
v -0.08648785 0.30225098 0.38879842
v -0.0054675536 0.30317205 0.39756364
v 0.075713836 0.30309656 0.39038432
v 0.15393576 0.3020275 0.36753672
v -0.2981907 0.2940444 0.27316698
v 0.22619388 0.30000582 0.32989827
v -0.34925434 0.2898453 0.20978834
v 0.28971046 0.2971093 0.27891564
v -0.38694525 0.2851618 0.13768125
v 0.34204456 0.29344925 0.21654804
v -0.4098152 0.28017387 0.05961677
v 0.38118508 0.28916627 0.14519224
v -0.4169851 0.2750732 -0.021405153
v 0.40562785 0.28442502 0.0675904
v -0.40817955 0.27005583 -0.10227085
v 0.4144335 0.27940765 -0.013275301
v -0.38373688 0.26531458 -0.17987274
v 0.4072637 0.274307 -0.09429722
v -0.3445965 0.2610316 -0.25122857
v 0.38439384 0.26931906 -0.17236173
v -0.29226243 0.25737154 -0.31359625
v 0.34670302 0.26463556 -0.24446887
v -0.2287459 0.25447503 -0.36457896
v 0.2956395 0.26043645 -0.30784756
v -0.15648782 0.25245336 -0.40221745
v 0.23316565 0.2568831 -0.36006224
v -0.07826504 0.25138426 -0.42506543
v 0.16168241 0.25411206 -0.3991063
v 0.0029164124 0.2513088 -0.43224463
v 0.08393675 0.25222987 -0.42347932
v -0.13362074 0.3317805 -0.34938118
v -0.06709774 0.33087128 -0.36881173
v 0.0019414101 0.33080712 -0.37491718
v 0.07084353 0.3315904 -0.36746293
v 0.1369608 0.33319113 -0.34673536
v 0.1977523 0.3355477 -0.31353116
v -0.19507118 0.33349976 -0.31737226
v 0.2508819 0.33856955 -0.2691262
v -0.24908753 0.33596304 -0.27401504
v 0.29430786 0.34214061 -0.21522705
v -0.29359397 0.33907568 -0.22097571
v 0.3263613 0.3461236 -0.15390497
v -0.32688016 0.34271806 -0.16029257
v 0.34581044 0.3503655 -0.08751658
v -0.34766692 0.34675017 -0.09429758
v 0.3519079 0.35470322 -0.018613106
v -0.35515544 0.3510171 -0.025526967
v 0.34441927 0.35897017 0.050157513
v -0.3490579 0.35535485 0.0433765
v 0.32363248 0.36300227 0.11615248
v -0.32960865 0.3595967 0.10976488
v 0.2903462 0.36664462 0.17683557
v -0.29755512 0.3635797 0.1710869
v 0.24583967 0.36975724 0.22987482
v -0.25412914 0.36715075 0.22498602
v 0.19182329 0.37222055 0.27323198
v -0.20099945 0.37017262 0.26939088
v 0.13037279 0.3739398 0.30524084
v -0.14020789 0.37252918 0.30259505
v 0.063850515 0.374849 0.32467115
v -0.07409067 0.37412986 0.32332247
v -0.0051885745 0.3749132 0.33077666
v -0.20030151 0.42614773 0.168159
v -0.1585578 0.428522 0.20304766
v -0.110794194 0.43037352 0.22913599
v -0.05884622 0.4316312 0.24542142
v -0.0047101974 0.43224663 0.25127816
v 0.049533464 0.4321962 0.24648108
v -0.23442115 0.423342 0.12581071
v 0.101799674 0.43148184 0.2312148
v -0.2596054 0.42021257 0.07763031
v 0.15008101 0.43013105 0.20606561
v -0.27488658 0.41687974 0.025469305
v 0.19252142 0.42819566 0.17200011
v -0.2796774 0.4134716 -0.028667796
v 0.22748993 0.42575008 0.13032742
v -0.2737937 0.4101191 -0.08270052
v 0.2536428 0.42288828 0.082649015
v -0.25746167 0.40695107 -0.13455243
v 0.26997492 0.41972026 0.03079711
v -0.23130886 0.4040893 -0.18223087
v 0.27585867 0.4163678 -0.02323561
v -0.19634037 0.40164372 -0.22390363
v 0.27106792 0.41295964 -0.07737272
v -0.1539 0.39970833 -0.25796917
v 0.25578684 0.40962684 -0.12953375
v -0.105618685 0.3983575 -0.28311843
v 0.2306026 0.40649736 -0.17771418
v -0.05335191 0.39764315 -0.29838488
v 0.19648308 0.40369162 -0.22006248
v 0.000891789 0.39759272 -0.30318192
v 0.15473941 0.40131736 -0.2549512
v 0.055027835 0.39820817 -0.29732513
v 0.106975846 0.39946583 -0.28103963
v -0.037555795 0.44913378 -0.21649124
v -0.00019209931 0.44909903 -0.2197955
v 0.03709745 0.449523 -0.21576124
v 0.072879836 0.45038927 -0.20454362
v 0.10577995 0.45166463 -0.18657361
v 0.13453348 0.45330003 -0.16254185
v -0.073557764 0.44962585 -0.2059755
v 0.15803543 0.45523268 -0.13337184
v -0.10681448 0.4505563 -0.18865243
v 0.1753826 0.45738825 -0.1001846
v -0.13604791 0.45188943 -0.16518766
v 0.18590842 0.45968395 -0.06425546
v -0.16013463 0.45357394 -0.13648301
v 0.18920833 0.46203154 -0.026965188
v -0.17814897 0.45554522 -0.10364152
v 0.18515553 0.46434078 0.010253186
v -0.18939869 0.45772737 -0.06792532
v 0.17390579 0.46652293 0.04596938
v -0.19345143 0.4600366 -0.030706946
v 0.15589137 0.46849418 0.078810826
v -0.19015147 0.46238416 0.006583331
v 0.13180465 0.4701787 0.10751547
v -0.17962563 0.46467987 0.042512447
v 0.10257118 0.4715118 0.13098018
v -0.1622784 0.46683544 0.07569968
v 0.06931444 0.47244227 0.14830323
v -0.1387764 0.4687681 0.10486965
v 0.033312857 0.47293437 0.15881883
v -0.11002286 0.4704035 0.12890138
v -0.004050809 0.47296908 0.16212311
v -0.07712271 0.47167885 0.14687133
v -0.04134034 0.47254515 0.15808894
v -0.083899416 0.4923886 0.022679547
v -0.07191822 0.49337384 0.03755026
v -0.0022963532 0.4990196 -0.03121206
v -0.09274294 0.49128968 0.0057608616
v -0.057259798 0.49420756 0.049801517
v -0.09810898 0.49011934 -0.012555632
v -0.040487465 0.49485773 0.05896251
v -0.09979128 0.48892257 -0.03156603
v -0.022245778 0.49529937 0.0646812
v -0.097725205 0.4877453 -0.05053978
v -0.003235756 0.4955155 0.0667378
v -0.091990165 0.48663288 -0.06874773
v 0.015812065 0.49549776 0.0650533
v -0.082806535 0.48562795 -0.08549015
v 0.034165494 0.49524695 0.05969249
v -0.07052725 0.4847692 -0.10012366
v 0.05111962 0.4947726 0.050861284
v -0.055624183 0.48408952 -0.11208588
v 0.066022694 0.49409294 0.038899083
v -0.03867007 0.4836152 -0.1209171
v 0.078301996 0.4932342 0.0242656
v -0.020316435 0.48336437 -0.12627797
v 0.087485656 0.49222925 0.007523187
v -0.001268602 0.48334664 -0.12796247
v 0.09322072 0.49111682 -0.010684757
v 0.01774143 0.48356277 -0.12590583
v 0.09528681 0.48993957 -0.029658504
v 0.03598311 0.4840044 -0.120187126
v 0.093604535 0.4887428 -0.048668906
v 0.052755434 0.48465458 -0.11102611
v 0.08823853 0.48757246 -0.066985406
v 0.067413844 0.4854883 -0.098774835
v 0.079395026 0.48647356 -0.08390411
vt 0.5024414 1.0390625
vt 0.375 1.1435547
vt 0.5019531 1.15625
vt 0.39819336 1.0283203
vt 0.25268555 1.1074219
vt 0.6064453 1.0283203
vt 0.62939453 1.1435547
vt 0.2980957 0.99853516
vt 0.14013672 1.046875
vt 0.70654297 0.9980469
vt 0.75146484 1.1064453
vt 0.20581055 0.94921875
vt 0.041412354 0.9658203
vt 0.7988281 0.94873047
vt 0.86376953 1.046875
vt 0.124816895 0.8828125
vt -0.039611816 0.8671875
vt 0.8798828 0.8823242
vt 0.9628906 0.9658203
vt 0.058380127 0.8017578
vt -0.09979248 0.75439453
vt 0.94628906 0.80126953
vt 1.0439453 0.8671875
vt 0.008995056 0.70947266
vt -0.13684082 0.6323242
vt 0.9951172 0.7089844
vt 1.1035156 0.75439453
vt -0.021438599 0.609375
vt -0.14941406 0.5048828
vt 1.0253906 0.6088867
vt 1.140625 0.6323242
vt -0.03173828 0.5053711
vt -0.13684082 0.3779297
vt 1.0361328 0.5048828
vt 1.1533203 0.5048828
vt -0.02154541 0.4013672
vt -0.099731445 0.25585938
vt 1.0253906 0.40063477
vt 1.140625 0.3779297
vt 0.008781433 0.3010254
vt -0.039520264 0.14318848
vt 0.9951172 0.3005371
vt 1.1035156 0.25585938
vt 0.05807495 0.2088623
vt 0.041503906 0.04446411
vt 0.9458008 0.20825195
vt 1.0439453 0.14318848
vt 0.12438965 0.12792969
vt 0.14025879 -0.036499023
vt 0.87939453 0.1274414
vt 0.96240234 0.044555664
vt 0.2052002 0.061462402
vt 0.2529297 -0.09667969
vt 0.79833984 0.061157227
vt 0.86376953 -0.03643799
vt 0.29760742 0.01210022
vt 0.375 -0.13366699
vt 0.7060547 0.011878967
vt 0.75146484 -0.09661865
vt 0.39770508 -0.018325806
vt 0.5019531 -0.14624023
vt 0.60595703 -0.018432617
vt 0.62890625 -0.13366699
vt 0.5019531 -0.028625488
vt 0.7426758 0.14355469
vt 0.66748047 0.10357666
vt 0.5859375 0.07904053
vt 0.50097656 0.07086182
vt 0.4165039 0.0793457
vt 0.33520508 0.10424805
vt 0.80859375 0.19750977
vt 0.26000977 0.14453125
vt 0.86279297 0.2631836
vt 0.19433594 0.1986084
vt 0.90283203 0.33813477
vt 0.14050293 0.26464844
vt 0.9277344 0.4194336
vt 0.1005249 0.3395996
vt 0.93652344 0.50439453
vt 0.075927734 0.42114258
vt 0.92822266 0.5888672
vt 0.06774902 0.5058594
vt 0.9038086 0.67041016
vt 0.076293945 0.5908203
vt 0.86376953 0.74560547
vt 0.101135254 0.671875
vt 0.8095703 0.81152344
vt 0.14147949 0.7470703
vt 0.7441406 0.86572266
vt 0.19555664 0.8129883
vt 0.6689453 0.9057617
vt 0.2614746 0.8666992
vt 0.58740234 0.93066406
vt 0.33666992 0.9067383
vt 0.5029297 0.9394531
vt 0.4182129 0.93115234
vt 0.69628906 0.79345703
vt 0.63623047 0.8256836
vt 0.5708008 0.8457031
vt 0.50341797 0.85253906
vt 0.43554688 0.8461914
vt 0.37036133 0.82666016
vt 0.74853516 0.75
vt 0.3100586 0.7944336
vt 0.7915039 0.6972656
vt 0.25732422 0.75146484
vt 0.8232422 0.63671875
vt 0.21386719 0.69921875
vt 0.84277344 0.57177734
vt 0.18164062 0.63916016
vt 0.8496094 0.50390625
vt 0.1616211 0.57421875
vt 0.84228516 0.43603516
vt 0.15466309 0.50634766
vt 0.8222656 0.37109375
vt 0.16113281 0.43847656
vt 0.79003906 0.31103516
vt 0.18066406 0.37329102
vt 0.74658203 0.25854492
vt 0.21252441 0.31323242
vt 0.69384766 0.21557617
vt 0.25561523 0.2602539
vt 0.63378906 0.18371582
vt 0.30810547 0.21691895
vt 0.5683594 0.16418457
vt 0.36791992 0.18469238
vt 0.50097656 0.15771484
vt 0.43310547 0.16467285
vt 0.6040039 0.25561523
vt 0.55322266 0.24072266
vt 0.5004883 0.23583984
vt 0.44799805 0.24121094
vt 0.39770508 0.25683594
vt 0.35131836 0.28198242
vt 0.6503906 0.28027344
vt 0.31054688 0.31567383
vt 0.69140625 0.3137207
vt 0.27734375 0.35668945
vt 0.72509766 0.35424805
vt 0.25268555 0.4033203
vt 0.7504883 0.40063477
vt 0.23754883 0.45385742
vt 0.7661133 0.45117188
vt 0.23266602 0.50634766
vt 0.7714844 0.50390625
vt 0.23815918 0.55908203
vt 0.76660156 0.55615234
vt 0.2536621 0.609375
vt 0.75146484 0.6069336
vt 0.2788086 0.6557617
vt 0.7265625 0.6533203
vt 0.3125 0.69677734
vt 0.6933594 0.69433594
vt 0.35351562 0.72998047
vt 0.65283203 0.72802734
vt 0.40039062 0.75439453
vt 0.6064453 0.75341797
vt 0.45092773 0.76953125
vt 0.55615234 0.76904297
vt 0.50341797 0.77441406
vt 0.6425781 0.6435547
vt 0.61279297 0.66845703
vt 0.57910156 0.6870117
vt 0.5419922 0.69873047
vt 0.50341797 0.7026367
vt 0.46484375 0.69921875
vt 0.6669922 0.61376953
vt 0.42773438 0.6879883
vt 0.6850586 0.57958984
vt 0.3935547 0.6699219
vt 0.6958008 0.54248047
vt 0.36328125 0.6459961
vt 0.69970703 0.50390625
vt 0.33862305 0.61621094
vt 0.6953125 0.4650879
vt 0.32006836 0.58203125
vt 0.68408203 0.42822266
vt 0.30859375 0.5449219
vt 0.66552734 0.3942871
vt 0.30444336 0.50634766
vt 0.640625 0.36450195
vt 0.30810547 0.46801758
vt 0.61083984 0.3400879
vt 0.3190918 0.4309082
vt 0.5761719 0.32202148
vt 0.3371582 0.39648438
vt 0.5390625 0.31103516
vt 0.36132812 0.36645508
vt 0.5004883 0.3076172
vt 0.39111328 0.34155273
vt 0.4621582 0.31176758
vt 0.42504883 0.3232422
vt 0.5263672 0.37768555
vt 0.50097656 0.37524414
vt 0.47558594 0.3779297
vt 0.45141602 0.3857422
vt 0.42895508 0.39770508
vt 0.40942383 0.4140625
vt 0.55078125 0.38476562
vt 0.3935547 0.4338379
vt 0.5732422 0.39648438
vt 0.3815918 0.45654297
vt 0.59277344 0.41259766
vt 0.37451172 0.48095703
vt 0.609375 0.4321289
vt 0.37231445 0.50634766
vt 0.62158203 0.4543457
vt 0.375 0.5317383
vt 0.62890625 0.47875977
vt 0.38256836 0.55566406
vt 0.63183594 0.50390625
vt 0.3947754 0.578125
vt 0.62939453 0.5292969
vt 0.4111328 0.59765625
vt 0.6225586 0.55371094
vt 0.4309082 0.61376953
vt 0.61083984 0.5761719
vt 0.45336914 0.6254883
vt 0.59472656 0.5961914
vt 0.4777832 0.6328125
vt 0.5751953 0.6123047
vt 0.50341797 0.6347656
vt 0.5527344 0.6245117
vt 0.5283203 0.6323242
vt 0.55615234 0.54052734
vt 0.54833984 0.55029297
vt 0.5019531 0.5048828
vt 0.5620117 0.5292969
vt 0.5385742 0.55859375
vt 0.5654297 0.51708984
vt 0.52734375 0.5644531
vt 0.56640625 0.50439453
vt 0.5151367 0.5683594
vt 0.5654297 0.49194336
vt 0.5029297 0.5698242
vt 0.56152344 0.47973633
vt 0.48999023 0.5683594
vt 0.5551758 0.46875
vt 0.47802734 0.5649414
vt 0.5473633 0.45898438
vt 0.46679688 0.55908203
vt 0.5371094 0.45117188
vt 0.4567871 0.55126953
vt 0.5258789 0.4453125
vt 0.44873047 0.5415039
vt 0.51416016 0.4416504
vt 0.44262695 0.53027344
vt 0.50146484 0.44067383
vt 0.43896484 0.5185547
vt 0.48876953 0.44189453
vt 0.4375 0.5058594
vt 0.47680664 0.44580078
vt 0.4387207 0.49316406
vt 0.46557617 0.4519043
vt 0.44213867 0.48095703
vt 0.4560547 0.45996094
vt 0.44799805 0.46972656
vt 0.75146484 -0.09887695
vt 0.62890625 -0.13598633
vt 0.60595703 -0.020645142
vt 0.7060547 0.009666443
vt 0.86376953 -0.03869629
vt 0.50146484 -0.030838013
vt 0.5019531 -0.1484375
vt 0.79833984 0.05895996
vt 0.9628906 0.0423584
vt 0.39746094 -0.020492554
vt 0.37475586 -0.13598633
vt 0.87939453 0.12524414
vt 1.0439453 0.14111328
vt 0.29736328 0.009963989
vt 0.25268555 -0.09881592
vt 0.9458008 0.20617676
vt 1.1035156 0.2536621
vt 0.20507812 0.059387207
vt 0.13989258 -0.038604736
vt 0.9951172 0.29833984
vt 1.140625 0.37597656
vt 0.12420654 0.12585449
vt 0.041229248 0.04244995
vt 1.0253906 0.39868164
vt 1.1533203 0.5029297
vt 0.057891846 0.20678711
vt -0.039764404 0.14123535
vt 1.0361328 0.5029297
vt 1.140625 0.6303711
vt 0.008644104 0.29907227
vt -0.09991455 0.25390625
vt 1.0253906 0.6069336
vt 1.1035156 0.7524414
vt -0.021636963 0.39941406
vt -0.13696289 0.37597656
vt 0.9951172 0.70703125
vt 1.0429688 0.8652344
vt -0.031799316 0.50341797
vt -0.14941406 0.5029297
vt 0.9458008 0.7993164
vt 0.96240234 0.9638672
vt -0.02142334 0.6074219
vt -0.13684082 0.6303711
vt 0.87939453 0.8803711
vt 0.86376953 1.0449219
vt 0.009025574 0.70751953
vt -0.099731445 0.7524414
vt 0.7988281 0.94677734
vt 0.75097656 1.1044922
vt 0.058410645 0.7998047
vt -0.039520264 0.8647461
vt 0.70654297 0.99609375
vt 0.62890625 1.1416016
vt 0.124816895 0.8808594
vt 0.04147339 0.9633789
vt 0.6064453 1.0263672
vt 0.5019531 1.1542969
vt 0.20581055 0.94677734
vt 0.14013672 1.0449219
vt 0.5024414 1.0371094
vt 0.37475586 1.1416016
vt 0.2980957 0.99609375
vt 0.25268555 1.1044922
vt 0.39819336 1.0263672
vt 0.19555664 0.8105469
vt 0.2614746 0.8647461
vt 0.33666992 0.9042969
vt 0.41796875 0.9291992
vt 0.5029297 0.9370117
vt 0.58740234 0.92871094
vt 0.14135742 0.7451172
vt 0.6689453 0.9038086
vt 0.101135254 0.6699219
vt 0.74365234 0.86376953
vt 0.07623291 0.5883789
vt 0.8095703 0.8095703
vt 0.06768799 0.50390625
vt 0.86328125 0.74365234
vt 0.0758667 0.41918945
vt 0.9033203 0.66845703
vt 0.10040283 0.33764648
vt 0.92822266 0.58691406
vt 0.14038086 0.26245117
vt 0.93603516 0.5024414
vt 0.19421387 0.1965332
vt 0.9277344 0.41748047
vt 0.26000977 0.14245605
vt 0.90283203 0.3359375
vt 0.33496094 0.10211182
vt 0.86279297 0.26098633
vt 0.41625977 0.07720947
vt 0.80859375 0.1953125
vt 0.50097656 0.068725586
vt 0.7426758 0.14147949
vt 0.5859375 0.07684326
vt 0.66748047 0.10144043
vt 0.36791992 0.18249512
vt 0.43286133 0.16259766
vt 0.5004883 0.15563965
vt 0.5683594 0.1619873
vt 0.63378906 0.18164062
vt 0.69384766 0.21350098
vt 0.30786133 0.21484375
vt 0.74658203 0.2565918
vt 0.2553711 0.25830078
vt 0.79003906 0.30908203
vt 0.21240234 0.31103516
vt 0.8222656 0.36889648
vt 0.18054199 0.3713379
vt 0.84228516 0.43408203
vt 0.16101074 0.43652344
vt 0.8491211 0.5019531
vt 0.15466309 0.50439453
vt 0.84277344 0.5698242
vt 0.16149902 0.57177734
vt 0.8232422 0.6347656
vt 0.18151855 0.63720703
vt 0.7915039 0.6948242
vt 0.21386719 0.69677734
vt 0.74853516 0.7475586
vt 0.25732422 0.7495117
vt 0.6958008 0.7910156
vt 0.3100586 0.79248047
vt 0.63623047 0.8232422
vt 0.3701172 0.82421875
vt 0.5708008 0.8432617
vt 0.43530273 0.84375
vt 0.50341797 0.85009766
vt 0.35351562 0.72753906
vt 0.40014648 0.7524414
vt 0.45092773 0.7675781
vt 0.50341797 0.77246094
vt 0.55566406 0.76708984
vt 0.6064453 0.75146484
vt 0.3125 0.69433594
vt 0.65283203 0.7260742
vt 0.2788086 0.6538086
vt 0.6933594 0.6923828
vt 0.2536621 0.6074219
vt 0.7265625 0.6513672
vt 0.23803711 0.5571289
vt 0.75146484 0.60498047
vt 0.23266602 0.50439453
vt 0.76660156 0.5541992
vt 0.23754883 0.4519043
vt 0.7714844 0.50146484
vt 0.2524414 0.4013672
vt 0.765625 0.4489746
vt 0.2770996 0.3544922
vt 0.7504883 0.39868164
vt 0.31054688 0.31347656
vt 0.72509766 0.35229492
vt 0.35107422 0.27978516
vt 0.69140625 0.31152344
vt 0.39746094 0.25463867
vt 0.6503906 0.2783203
vt 0.44799805 0.23913574
vt 0.6035156 0.2536621
vt 0.5004883 0.23364258
vt 0.55322266 0.23852539
vt 0.39111328 0.3395996
vt 0.42504883 0.32104492
vt 0.46191406 0.3095703
vt 0.5004883 0.30541992
vt 0.5390625 0.30908203
vt 0.5761719 0.32006836
vt 0.36132812 0.3642578
vt 0.61035156 0.33789062
vt 0.33691406 0.39453125
vt 0.640625 0.3623047
vt 0.31884766 0.42871094
vt 0.66552734 0.39208984
vt 0.30786133 0.4658203
vt 0.68408203 0.4260254
vt 0.30444336 0.50439453
vt 0.6953125 0.46313477
vt 0.30859375 0.54296875
vt 0.69921875 0.50146484
vt 0.32006836 0.5800781
vt 0.6958008 0.54003906
vt 0.33862305 0.61376953
vt 0.6850586 0.57714844
vt 0.36328125 0.6435547
vt 0.6669922 0.6113281
vt 0.39331055 0.66796875
vt 0.6425781 0.64160156
vt 0.42773438 0.68603516
vt 0.61279297 0.6665039
vt 0.46484375 0.69677734
vt 0.5786133 0.6850586
vt 0.50341797 0.7006836
vt 0.5419922 0.69628906
vt 0.45336914 0.62353516
vt 0.4777832 0.6303711
vt 0.5029297 0.6328125
vt 0.5283203 0.6298828
vt 0.5527344 0.6225586
vt 0.5751953 0.61035156
vt 0.4309082 0.6113281
vt 0.59472656 0.59375
vt 0.41088867 0.5957031
vt 0.61035156 0.57421875
vt 0.3947754 0.5761719
vt 0.6220703 0.5517578
vt 0.38256836 0.55371094
vt 0.62939453 0.52734375
vt 0.37475586 0.5292969
vt 0.63183594 0.5019531
vt 0.3720703 0.50439453
vt 0.62890625 0.4765625
vt 0.37451172 0.47875977
vt 0.62158203 0.45214844
vt 0.3815918 0.4543457
vt 0.609375 0.42993164
vt 0.39331055 0.43188477
vt 0.59277344 0.4104004
vt 0.40942383 0.41210938
vt 0.5732422 0.39453125
vt 0.42895508 0.39575195
vt 0.55078125 0.38256836
vt 0.45117188 0.38354492
vt 0.5263672 0.37548828
vt 0.47558594 0.37597656
vt 0.50097656 0.37329102
vt 0.45581055 0.45776367
vt 0.46557617 0.44970703
vt 0.5019531 0.5029297
vt 0.44799805 0.46777344
vt 0.4765625 0.44360352
vt 0.44213867 0.4790039
vt 0.48876953 0.4399414
vt 0.43847656 0.4909668
vt 0.50146484 0.43847656
vt 0.4375 0.50390625
vt 0.5136719 0.43969727
vt 0.4387207 0.5161133
vt 0.5258789 0.44311523
vt 0.44262695 0.5283203
vt 0.5371094 0.4489746
vt 0.44873047 0.5395508
vt 0.546875 0.45703125
vt 0.4567871 0.5493164
vt 0.5551758 0.46655273
vt 0.46655273 0.5571289
vt 0.56152344 0.4777832
vt 0.4777832 0.5629883
vt 0.5649414 0.4897461
vt 0.48999023 0.56640625
vt 0.56640625 0.5024414
vt 0.5024414 0.5673828
vt 0.5654297 0.5151367
vt 0.5151367 0.56591797
vt 0.5620117 0.52685547
vt 0.52734375 0.5625
vt 0.55615234 0.53808594
vt 0.5385742 0.55615234
vt 0.54785156 0.54833984
vn 0.18261719 -0.13256836 0.9741211
vn -0.01008606 0.06237793 0.9980469
vn 0.18518066 0.062194824 0.98095703
vn -0.009002686 -0.13232422 0.99121094
vn -0.20495605 0.060150146 0.9770508
vn 0.3671875 -0.13500977 0.92041016
vn 0.37329102 0.059631348 0.92578125
vn -0.20019531 -0.13452148 0.9707031
vn -0.39208984 0.055633545 0.91845703
vn 0.53759766 -0.13977051 0.83154297
vn 0.5473633 0.054748535 0.8354492
vn -0.38354492 -0.13891602 0.91308594
vn -0.56396484 0.048980713 0.82421875
vn 0.6875 -0.14660645 0.7114258
vn 0.69970703 0.047790527 0.71240234
vn -0.5522461 -0.14550781 0.8208008
vn -0.71435547 0.040405273 0.69873047
vn 0.81103516 -0.15527344 0.56396484
vn 0.8256836 0.039001465 0.5625
vn -0.69970703 -0.15393066 0.6977539
vn -0.83691406 0.030319214 0.5463867
vn 0.9033203 -0.16540527 0.39575195
vn 0.9199219 0.028686523 0.39086914
vn -0.8203125 -0.16381836 0.54785156
vn -0.9277344 0.019058228 0.37280273
vn 0.9609375 -0.17663574 0.21252441
vn 0.9785156 0.017288208 0.2043457
vn -0.9091797 -0.17480469 0.3779297
vn -0.98291016 0.00705719 0.1850586
vn 0.9819336 -0.18847656 0.021697998
vn 1 0.005214691 0.009780884
vn -0.9633789 -0.18664551 0.19372559
vn -1 -0.005214691 -0.009773254
vn 0.96484375 -0.20043945 -0.1694336
vn 0.98291016 -0.00705719 -0.1850586
vn -0.97998047 -0.1986084 0.0025138855
vn -0.9785156 -0.017288208 -0.2043457
vn 0.9111328 -0.21228027 -0.35375977
vn 0.9277344 -0.019058228 -0.37280273
vn -0.95947266 -0.21044922 -0.18835449
vn -0.9199219 -0.028686523 -0.39086914
vn 0.82177734 -0.2232666 -0.5239258
vn 0.83691406 -0.030319214 -0.5463867
vn -0.9013672 -0.22167969 -0.3713379
vn -0.8256836 -0.039001465 -0.5625
vn 0.70166016 -0.2331543 -0.67333984
vn 0.71435547 -0.040405273 -0.69873047
vn -0.80908203 -0.23181152 -0.54003906
vn -0.69970703 -0.047790527 -0.71240234
vn 0.5541992 -0.24157715 -0.7963867
vn 0.56396484 -0.048980713 -0.82421875
vn -0.6855469 -0.24047852 -0.6870117
vn -0.5473633 -0.054748535 -0.8354492
vn 0.38549805 -0.24816895 -0.8886719
vn 0.39208984 -0.055633545 -0.91845703
vn -0.53564453 -0.24731445 -0.8071289
vn -0.37329102 -0.059631348 -0.92578125
vn 0.20202637 -0.25268555 -0.94628906
vn 0.20495605 -0.060150146 -0.9770508
vn -0.36547852 -0.25195312 -0.8959961
vn -0.18518066 -0.062194824 -0.98095703
vn 0.0107803345 -0.25463867 -0.9667969
vn 0.01008606 -0.06237793 -0.9980469
vn -0.18078613 -0.25463867 -0.9501953
vn 0.3642578 -0.43115234 -0.8256836
vn 0.19128418 -0.43530273 -0.8798828
vn 0.011070251 -0.4375 -0.8989258
vn -0.16955566 -0.43725586 -0.8833008
vn -0.34350586 -0.43481445 -0.83251953
vn -0.50439453 -0.43041992 -0.74853516
vn 0.5234375 -0.42504883 -0.73876953
vn -0.6455078 -0.42407227 -0.6352539
vn 0.6621094 -0.41723633 -0.6225586
vn -0.76171875 -0.41577148 -0.49658203
vn 0.7758789 -0.40771484 -0.4814453
vn -0.8491211 -0.40625 -0.33789062
vn 0.8598633 -0.39746094 -0.32104492
vn -0.9033203 -0.39575195 -0.16516113
vn 0.91064453 -0.38623047 -0.14746094
vn -0.92285156 -0.38452148 0.014717102
vn 0.92626953 -0.375 0.032806396
vn -0.90722656 -0.37329102 0.19494629
vn 0.9067383 -0.36376953 0.21264648
vn -0.85595703 -0.36206055 0.36865234
vn 0.85253906 -0.35327148 0.3852539
vn -0.77246094 -0.35180664 0.5288086
vn 0.765625 -0.34375 0.5439453
vn -0.6586914 -0.3425293 0.6699219
vn 0.6489258 -0.33569336 0.6826172
vn -0.51953125 -0.33447266 0.7861328
vn 0.5078125 -0.32910156 0.7963867
vn -0.36083984 -0.32836914 0.8730469
vn 0.34692383 -0.32470703 0.8798828
vn -0.18774414 -0.32421875 0.9272461
vn 0.17297363 -0.32226562 0.93066406
vn -0.007575989 -0.32202148 0.94677734
vn 0.5859375 -0.51171875 0.62841797
vn 0.4584961 -0.5058594 0.73046875
vn 0.3137207 -0.5019531 0.80615234
vn 0.15686035 -0.49975586 0.8515625
vn -0.0058631897 -0.49975586 0.86621094
vn -0.16821289 -0.50146484 0.8486328
vn 0.69091797 -0.51904297 0.50341797
vn -0.32421875 -0.5053711 0.7998047
vn 0.76904297 -0.52783203 0.36035156
vn -0.46728516 -0.5107422 0.7216797
vn 0.8183594 -0.5371094 0.20471191
vn -0.59277344 -0.5180664 0.6166992
vn 0.8359375 -0.5473633 0.042663574
vn -0.6948242 -0.5263672 0.4897461
vn 0.82128906 -0.5576172 -0.11975098
vn -0.7705078 -0.53564453 0.34521484
vn 0.7753906 -0.5673828 -0.27612305
vn -0.81640625 -0.54589844 0.1887207
vn 0.7001953 -0.57714844 -0.4206543
vn -0.8305664 -0.55615234 0.026351929
vn 0.59765625 -0.5854492 -0.54785156
vn -0.8129883 -0.56591797 -0.13574219
vn 0.4724121 -0.59228516 -0.65234375
vn -0.76416016 -0.5756836 -0.29125977
vn 0.32910156 -0.59814453 -0.73095703
vn -0.6855469 -0.5839844 -0.43432617
vn 0.17333984 -0.6020508 -0.77978516
vn -0.5805664 -0.5913086 -0.5595703
vn 0.010940552 -0.6035156 -0.7973633
vn -0.45336914 -0.59716797 -0.6616211
vn -0.1517334 -0.6035156 -0.78271484
vn -0.30859375 -0.6015625 -0.7368164
vn 0.14880371 -0.74560547 -0.64990234
vn 0.010391235 -0.7470703 -0.6645508
vn -0.1282959 -0.7470703 -0.65234375
vn -0.2619629 -0.7451172 -0.61328125
vn -0.3852539 -0.7416992 -0.5493164
vn -0.49389648 -0.7368164 -0.4621582
vn 0.28149414 -0.7421875 -0.60839844
vn -0.5830078 -0.73046875 -0.35546875
vn 0.4038086 -0.7373047 -0.5415039
vn -0.64990234 -0.72314453 -0.23364258
vn 0.5102539 -0.7314453 -0.45239258
vn -0.69189453 -0.71484375 -0.101135254
vn 0.59765625 -0.7241211 -0.34399414
vn -0.70703125 -0.70654297 0.037017822
vn 0.6621094 -0.7163086 -0.2208252
vn -0.6948242 -0.6977539 0.17541504
vn 0.7011719 -0.70751953 -0.087524414
vn -0.6557617 -0.68896484 0.3088379
vn 0.7133789 -0.69921875 0.05090332
vn -0.5913086 -0.68115234 0.43188477
vn 0.6982422 -0.6904297 0.18896484
vn -0.50390625 -0.6738281 0.54003906
vn 0.6567383 -0.6821289 0.3215332
vn -0.3972168 -0.66796875 0.62939453
vn 0.58984375 -0.6748047 0.44335938
vn -0.27514648 -0.66308594 0.69628906
vn 0.5004883 -0.6689453 0.5498047
vn -0.14233398 -0.66015625 0.73779297
vn 0.3918457 -0.6635742 0.63720703
vn -0.0039253235 -0.6582031 0.7524414
vn 0.26831055 -0.66015625 0.7011719
vn 0.13476562 -0.6586914 0.7402344
vn 0.46606445 -0.8051758 0.36669922
vn 0.3955078 -0.80029297 0.4506836
vn 0.3100586 -0.7963867 0.51904297
vn 0.21276855 -0.79345703 0.5698242
vn 0.10748291 -0.7919922 0.60058594
vn -0.0018386841 -0.7919922 0.61035156
vn 0.5185547 -0.81103516 0.2705078
vn -0.11090088 -0.79345703 0.5986328
vn 0.5517578 -0.8173828 0.1661377
vn -0.21557617 -0.79589844 0.56591797
vn 0.56347656 -0.82421875 0.05718994
vn -0.31176758 -0.7998047 0.5131836
vn 0.55371094 -0.8310547 -0.051879883
vn -0.3959961 -0.8041992 0.4428711
vn 0.5229492 -0.8378906 -0.15698242
vn -0.46484375 -0.8100586 0.35766602
vn 0.4724121 -0.84375 -0.2541504
vn -0.515625 -0.81640625 0.26049805
vn 0.40356445 -0.8496094 -0.33935547
vn -0.5463867 -0.8232422 0.15539551
vn 0.31958008 -0.8544922 -0.40966797
vn -0.55615234 -0.8300781 0.04626465
vn 0.2232666 -0.85839844 -0.46240234
vn -0.5439453 -0.83691406 -0.06262207
vn 0.11853027 -0.86083984 -0.4951172
vn -0.51123047 -0.8432617 -0.16711426
vn 0.00945282 -0.8618164 -0.50683594
vn -0.4584961 -0.8486328 -0.2631836
vn -0.099853516 -0.8618164 -0.49731445
vn -0.38793945 -0.8540039 -0.34716797
vn -0.2052002 -0.86035156 -0.46655273
vn -0.30249023 -0.85791016 -0.41577148
vn 0.008148193 -0.94433594 -0.32958984
vn -0.06762695 -0.94384766 -0.32299805
vn -0.140625 -0.9428711 -0.30151367
vn -0.20800781 -0.94091797 -0.26635742
vn -0.26733398 -0.93847656 -0.21887207
vn -0.3161621 -0.9350586 -0.16064453
vn 0.083740234 -0.9433594 -0.32128906
vn -0.35253906 -0.93115234 -0.09411621
vn 0.15625 -0.94140625 -0.29858398
vn -0.37548828 -0.9267578 -0.021697998
vn 0.22302246 -0.93896484 -0.26220703
vn -0.38354492 -0.921875 0.053741455
vn 0.28125 -0.9355469 -0.21350098
vn -0.37695312 -0.9169922 0.12939453
vn 0.32885742 -0.9316406 -0.15441895
vn -0.3557129 -0.91259766 0.20214844
vn 0.36401367 -0.9272461 -0.08709717
vn -0.32055664 -0.9082031 0.26953125
vn 0.38549805 -0.92285156 -0.014266968
vn -0.27270508 -0.9042969 0.32861328
vn 0.39208984 -0.91796875 0.061340332
vn -0.21447754 -0.9008789 0.37719727
vn 0.38378906 -0.91308594 0.13671875
vn -0.14782715 -0.8984375 0.41381836
vn 0.36108398 -0.9086914 0.20922852
vn -0.07525635 -0.8964844 0.43652344
vn 0.3244629 -0.90478516 0.2758789
vn 0.00032234192 -0.8955078 0.44458008
vn 0.27563477 -0.9013672 0.33398438
vn 0.076049805 -0.8959961 0.43798828
vn 0.21643066 -0.8984375 0.3815918
vn 0.14904785 -0.89697266 0.41674805
vn 0.18933105 -0.9716797 0.13977051
vn 0.17041016 -0.96972656 0.17419434
vn 0.0045928955 -0.9980469 0.062438965
vn 0.20117188 -0.9741211 0.10223389
vn 0.1451416 -0.9682617 0.2043457
vn 0.20544434 -0.9765625 0.06311035
vn 0.11444092 -0.9667969 0.2290039
vn 0.20202637 -0.9790039 0.023956299
vn 0.07952881 -0.9658203 0.24719238
vn 0.19091797 -0.9814453 -0.013786316
vn 0.04171753 -0.96533203 0.25830078
vn 0.17272949 -0.9838867 -0.04864502
vn 0.0024738312 -0.96533203 0.26171875
vn 0.14807129 -0.98583984 -0.07928467
vn -0.03668213 -0.9658203 0.25756836
vn 0.11785889 -0.9873047 -0.10455322
vn -0.074279785 -0.9663086 0.24572754
vn 0.08325195 -0.98876953 -0.123413086
vn -0.10882568 -0.96777344 0.22680664
vn 0.045684814 -0.9897461 -0.13513184
vn -0.13903809 -0.96972656 0.20153809
vn 0.006526947 -0.9902344 -0.1394043
vn -0.16369629 -0.9716797 0.17089844
vn -0.032714844 -0.9902344 -0.13598633
vn -0.18188477 -0.9736328 0.1361084
vn -0.07055664 -0.9897461 -0.12487793
vn -0.19299316 -0.9760742 0.09832764
vn -0.10546875 -0.98876953 -0.10668945
vn -0.19641113 -0.9785156 0.059173584
vn -0.1361084 -0.9873047 -0.08203125
vn -0.19226074 -0.98095703 0.020095825
vn -0.16149902 -0.98535156 -0.0519104
vn -0.18041992 -0.98339844 -0.017425537
vn 0.18518066 0.062194824 0.98095703
vn -0.01008606 0.06237793 0.9980469
vn -0.0107803345 0.25463867 0.9667969
vn 0.18078613 0.25463867 0.9501953
vn 0.37329102 0.059631348 0.92578125
vn -0.20202637 0.25268555 0.94628906
vn -0.20495605 0.060150146 0.9770508
vn 0.36547852 0.25195312 0.8959961
vn 0.5473633 0.054748535 0.8354492
vn -0.38549805 0.24816895 0.8886719
vn -0.39208984 0.055633545 0.91845703
vn 0.53564453 0.24731445 0.8071289
vn 0.69970703 0.047790527 0.71240234
vn -0.5541992 0.24157715 0.7963867
vn -0.56396484 0.048980713 0.82421875
vn 0.6855469 0.24047852 0.6870117
vn 0.8256836 0.039001465 0.5625
vn -0.70166016 0.2331543 0.67333984
vn -0.71435547 0.040405273 0.69873047
vn 0.80908203 0.23181152 0.54003906
vn 0.9199219 0.028686523 0.39086914
vn -0.82177734 0.2232666 0.5239258
vn -0.83691406 0.030319214 0.5463867
vn 0.9013672 0.22167969 0.3713379
vn 0.9785156 0.017288208 0.2043457
vn -0.9111328 0.21228027 0.35375977
vn -0.9277344 0.019058228 0.37280273
vn 0.95947266 0.21044922 0.18835449
vn 1 0.005214691 0.009780884
vn -0.96484375 0.20043945 0.1694336
vn -0.98291016 0.00705719 0.1850586
vn 0.97998047 0.1986084 -0.0025138855
vn 0.98291016 -0.00705719 -0.1850586
vn -0.9819336 0.18847656 -0.021697998
vn -1 -0.005214691 -0.009773254
vn 0.9633789 0.18664551 -0.19372559
vn 0.9277344 -0.019058228 -0.37280273
vn -0.9609375 0.17663574 -0.21252441
vn -0.9785156 -0.017288208 -0.2043457
vn 0.9091797 0.17480469 -0.3779297
vn 0.83691406 -0.030319214 -0.5463867
vn -0.9033203 0.16540527 -0.39575195
vn -0.9199219 -0.028686523 -0.39086914
vn 0.8203125 0.16381836 -0.54785156
vn 0.71435547 -0.040405273 -0.69873047
vn -0.81103516 0.15527344 -0.56396484
vn -0.8256836 -0.039001465 -0.5625
vn 0.69970703 0.15393066 -0.6977539
vn 0.56396484 -0.048980713 -0.82421875
vn -0.6875 0.14660645 -0.7114258
vn -0.69970703 -0.047790527 -0.71240234
vn 0.5522461 0.14550781 -0.8208008
vn 0.39208984 -0.055633545 -0.91845703
vn -0.53759766 0.13977051 -0.83154297
vn -0.5473633 -0.054748535 -0.8354492
vn 0.38354492 0.13891602 -0.91308594
vn 0.20495605 -0.060150146 -0.9770508
vn -0.3671875 0.13500977 -0.92041016
vn -0.37329102 -0.059631348 -0.92578125
vn 0.20019531 0.13452148 -0.9707031
vn 0.01008606 -0.06237793 -0.9980469
vn -0.18261719 0.13256836 -0.9741211
vn -0.18518066 -0.062194824 -0.98095703
vn 0.009002686 0.13232422 -0.99121094
vn -0.5078125 0.32910156 -0.7963867
vn -0.34692383 0.32470703 -0.8798828
vn -0.17297363 0.32226562 -0.93066406
vn 0.007575989 0.32202148 -0.94677734
vn 0.18774414 0.32421875 -0.9272461
vn 0.36083984 0.32836914 -0.8730469
vn -0.6489258 0.33569336 -0.6826172
vn 0.51953125 0.33447266 -0.7861328
vn -0.765625 0.34375 -0.5439453
vn 0.6586914 0.3425293 -0.6699219
vn -0.85253906 0.35327148 -0.3852539
vn 0.77246094 0.35180664 -0.5288086
vn -0.9067383 0.36376953 -0.21264648
vn 0.85595703 0.36206055 -0.36865234
vn -0.92626953 0.375 -0.032806396
vn 0.90722656 0.37329102 -0.19494629
vn -0.91064453 0.38623047 0.14746094
vn 0.92285156 0.38452148 -0.014709473
vn -0.8598633 0.39746094 0.32104492
vn 0.9033203 0.39575195 0.16516113
vn -0.7758789 0.40771484 0.4814453
vn 0.8491211 0.40625 0.33789062
vn -0.6621094 0.41723633 0.6225586
vn 0.76171875 0.41577148 0.49658203
vn -0.5234375 0.42504883 0.73876953
vn 0.6455078 0.42407227 0.6352539
vn -0.3642578 0.43115234 0.8256836
vn 0.50439453 0.43041992 0.74853516
vn -0.19128418 0.43530273 0.8798828
vn 0.34350586 0.43481445 0.83251953
vn -0.011070251 0.4375 0.8989258
vn 0.16955566 0.43725586 0.8833008
vn -0.4724121 0.59228516 0.65234375
vn -0.32910156 0.59814453 0.73095703
vn -0.17333984 0.6020508 0.77978516
vn -0.010940552 0.6035156 0.7973633
vn 0.1517334 0.6035156 0.78271484
vn 0.30859375 0.6015625 0.7368164
vn -0.59765625 0.5854492 0.54785156
vn 0.45336914 0.59716797 0.6616211
vn -0.7001953 0.57714844 0.4206543
vn 0.5805664 0.5913086 0.5595703
vn -0.7753906 0.5673828 0.27612305
vn 0.6855469 0.5839844 0.43432617
vn -0.82128906 0.5576172 0.11975098
vn 0.76416016 0.5756836 0.29125977
vn -0.8359375 0.5473633 -0.042663574
vn 0.8129883 0.56591797 0.13574219
vn -0.8183594 0.5371094 -0.20471191
vn 0.8305664 0.55615234 -0.026351929
vn -0.76904297 0.52783203 -0.36035156
vn 0.81640625 0.54589844 -0.1887207
vn -0.69091797 0.51904297 -0.50341797
vn 0.7705078 0.53564453 -0.34521484
vn -0.5859375 0.51171875 -0.62841797
vn 0.6948242 0.5263672 -0.4897461
vn -0.4584961 0.5058594 -0.73046875
vn 0.59277344 0.5180664 -0.6166992
vn -0.3137207 0.5019531 -0.80615234
vn 0.46728516 0.5107422 -0.7216797
vn -0.15686035 0.49975586 -0.8515625
vn 0.32421875 0.5053711 -0.7998047
vn 0.0058631897 0.49975586 -0.86621094
vn 0.16821289 0.50146484 -0.8486328
vn -0.26831055 0.66015625 -0.7011719
vn -0.13476562 0.6586914 -0.7402344
vn 0.003929138 0.6582031 -0.7524414
vn 0.14233398 0.66015625 -0.73779297
vn 0.27514648 0.66308594 -0.69628906
vn 0.3972168 0.66796875 -0.62939453
vn -0.3918457 0.6635742 -0.63720703
vn 0.50390625 0.6738281 -0.54003906
vn -0.5004883 0.6689453 -0.5498047
vn 0.5913086 0.68115234 -0.43188477
vn -0.58984375 0.6748047 -0.44335938
vn 0.6557617 0.68896484 -0.3088379
vn -0.6567383 0.6821289 -0.3215332
vn 0.6948242 0.6977539 -0.17541504
vn -0.6982422 0.6904297 -0.18896484
vn 0.70703125 0.70654297 -0.037017822
vn -0.7133789 0.69921875 -0.05090332
vn 0.69189453 0.71484375 0.101135254
vn -0.7011719 0.70751953 0.087524414
vn 0.64990234 0.72314453 0.23364258
vn -0.6621094 0.7163086 0.2208252
vn 0.5830078 0.73046875 0.35546875
vn -0.59765625 0.7241211 0.34399414
vn 0.49389648 0.7368164 0.4621582
vn -0.5102539 0.7314453 0.45239258
vn 0.3852539 0.7416992 0.5493164
vn -0.4038086 0.7373047 0.5415039
vn 0.2619629 0.7451172 0.61328125
vn -0.28149414 0.7421875 0.60839844
vn 0.1282959 0.7470703 0.65234375
vn -0.14880371 0.74560547 0.64990234
vn -0.010391235 0.7470703 0.6645508
vn -0.40356445 0.8496094 0.33935547
vn -0.31958008 0.8544922 0.40966797
vn -0.2232666 0.85839844 0.46240234
vn -0.11853027 0.86083984 0.4951172
vn -0.00945282 0.8618164 0.50683594
vn 0.099853516 0.8618164 0.49731445
vn -0.4724121 0.84375 0.2541504
vn 0.2052002 0.86035156 0.46655273
vn -0.5229492 0.8378906 0.15698242
vn 0.30249023 0.85791016 0.41577148
vn -0.55371094 0.8310547 0.051879883
vn 0.38793945 0.8540039 0.34716797
vn -0.56347656 0.82421875 -0.05718994
vn 0.4584961 0.8486328 0.2631836
vn -0.5517578 0.8173828 -0.1661377
vn 0.51123047 0.8432617 0.16711426
vn -0.5185547 0.81103516 -0.2705078
vn 0.5439453 0.83691406 0.06262207
vn -0.46606445 0.8051758 -0.36669922
vn 0.55615234 0.8300781 -0.04626465
vn -0.3955078 0.80029297 -0.4506836
vn 0.5463867 0.8232422 -0.15539551
vn -0.3100586 0.7963867 -0.51904297
vn 0.515625 0.81640625 -0.26049805
vn -0.21276855 0.79345703 -0.5698242
vn 0.46484375 0.8100586 -0.35766602
vn -0.10748291 0.7919922 -0.60058594
vn 0.3959961 0.8041992 -0.4428711
vn 0.0018386841 0.7919922 -0.61035156
vn 0.31176758 0.7998047 -0.5131836
vn 0.11090088 0.79345703 -0.5986328
vn 0.21557617 0.79589844 -0.56591797
vn -0.076049805 0.8959961 -0.43798828
vn -0.00032186508 0.8955078 -0.44458008
vn 0.07525635 0.8964844 -0.43652344
vn 0.14782715 0.8984375 -0.41381836
vn 0.21447754 0.9008789 -0.37719727
vn 0.27270508 0.9042969 -0.32861328
vn -0.14904785 0.89697266 -0.41674805
vn 0.32055664 0.9082031 -0.26953125
vn -0.21643066 0.8984375 -0.3815918
vn 0.3557129 0.91259766 -0.20214844
vn -0.27563477 0.9013672 -0.33398438
vn 0.37695312 0.9169922 -0.12939453
vn -0.3244629 0.90478516 -0.2758789
vn 0.38354492 0.921875 -0.053741455
vn -0.36108398 0.9086914 -0.20922852
vn 0.37548828 0.9267578 0.021697998
vn -0.38378906 0.91308594 -0.13671875
vn 0.35253906 0.93115234 0.09411621
vn -0.39208984 0.91796875 -0.061340332
vn 0.3161621 0.9350586 0.16064453
vn -0.38549805 0.92285156 0.014266968
vn 0.26733398 0.93847656 0.21887207
vn -0.36401367 0.9272461 0.08709717
vn 0.20800781 0.94091797 0.26635742
vn -0.32885742 0.9316406 0.15441895
vn 0.140625 0.9428711 0.30151367
vn -0.28125 0.9355469 0.21350098
vn 0.06762695 0.94384766 0.32299805
vn -0.22302246 0.93896484 0.26220703
vn -0.008140564 0.94433594 0.32958984
vn -0.15625 0.94140625 0.29858398
vn -0.083740234 0.9433594 0.32128906
vn -0.17272949 0.9838867 0.04864502
vn -0.14807129 0.98583984 0.07928467
vn -0.0045928955 0.9980469 -0.062438965
vn -0.19091797 0.9814453 0.013786316
vn -0.11785889 0.9873047 0.10455322
vn -0.20202637 0.9790039 -0.023956299
vn -0.08325195 0.98876953 0.123413086
vn -0.20544434 0.9765625 -0.06311035
vn -0.045684814 0.9897461 0.13513184
vn -0.20117188 0.9741211 -0.10223389
vn -0.006526947 0.9902344 0.1394043
vn -0.18933105 0.9716797 -0.13977051
vn 0.032714844 0.9902344 0.13598633
vn -0.17041016 0.96972656 -0.17419434
vn 0.07055664 0.9897461 0.12487793
vn -0.1451416 0.9682617 -0.2043457
vn 0.10546875 0.98876953 0.10668945
vn -0.11444092 0.9667969 -0.2290039
vn 0.1361084 0.9873047 0.08203125
vn -0.07952881 0.9658203 -0.24719238
vn 0.16149902 0.98535156 0.0519104
vn -0.04171753 0.96533203 -0.25830078
vn 0.18041992 0.98339844 0.017425537
vn -0.0024719238 0.96533203 -0.26171875
vn 0.19226074 0.98095703 -0.020095825
vn 0.03668213 0.9658203 -0.25756836
vn 0.19641113 0.9785156 -0.059173584
vn 0.074279785 0.9663086 -0.24572754
vn 0.19299316 0.9760742 -0.09832764
vn 0.10882568 0.96777344 -0.22680664
vn 0.18188477 0.9736328 -0.1361084
vn 0.13903809 0.96972656 -0.20153809
vn 0.16369629 0.9716797 -0.17089844
g 8ball_0
f 3/3/3 2/2/2 1/1/1
f 2/2/2 4/4/4 1/1/1
f 2/2/2 5/5/5 4/4/4
f 3/3/3 1/1/1 6/6/6
f 7/7/7 3/3/3 6/6/6
f 5/5/5 8/8/8 4/4/4
f 5/5/5 9/9/9 8/8/8
f 7/7/7 6/6/6 10/10/10
f 11/11/11 7/7/7 10/10/10
f 9/9/9 12/12/12 8/8/8
f 9/9/9 13/13/13 12/12/12
f 11/11/11 10/10/10 14/14/14
f 15/15/15 11/11/11 14/14/14
f 13/13/13 16/16/16 12/12/12
f 13/13/13 17/17/17 16/16/16
f 15/15/15 14/14/14 18/18/18
f 19/19/19 15/15/15 18/18/18
f 17/17/17 20/20/20 16/16/16
f 17/17/17 21/21/21 20/20/20
f 19/19/19 18/18/18 22/22/22
f 23/23/23 19/19/19 22/22/22
f 21/21/21 24/24/24 20/20/20
f 21/21/21 25/25/25 24/24/24
f 23/23/23 22/22/22 26/26/26
f 27/27/27 23/23/23 26/26/26
f 25/25/25 28/28/28 24/24/24
f 25/25/25 29/29/29 28/28/28
f 27/27/27 26/26/26 30/30/30
f 31/31/31 27/27/27 30/30/30
f 29/29/29 32/32/32 28/28/28
f 29/29/29 33/33/33 32/32/32
f 31/31/31 30/30/30 34/34/34
f 35/35/35 31/31/31 34/34/34
f 33/33/33 36/36/36 32/32/32
f 33/33/33 37/37/37 36/36/36
f 35/35/35 34/34/34 38/38/38
f 39/39/39 35/35/35 38/38/38
f 37/37/37 40/40/40 36/36/36
f 37/37/37 41/41/41 40/40/40
f 39/39/39 38/38/38 42/42/42
f 43/43/43 39/39/39 42/42/42
f 41/41/41 44/44/44 40/40/40
f 41/41/41 45/45/45 44/44/44
f 43/43/43 42/42/42 46/46/46
f 47/47/47 43/43/43 46/46/46
f 45/45/45 48/48/48 44/44/44
f 45/45/45 49/49/49 48/48/48
f 47/47/47 46/46/46 50/50/50
f 51/51/51 47/47/47 50/50/50
f 49/49/49 52/52/52 48/48/48
f 49/49/49 53/53/53 52/52/52
f 51/51/51 50/50/50 54/54/54
f 55/55/55 51/51/51 54/54/54
f 53/53/53 56/56/56 52/52/52
f 53/53/53 57/57/57 56/56/56
f 55/55/55 54/54/54 58/58/58
f 59/59/59 55/55/55 58/58/58
f 57/57/57 60/60/60 56/56/56
f 57/57/57 61/61/61 60/60/60
f 59/59/59 58/58/58 62/62/62
f 63/63/63 59/59/59 62/62/62
f 61/61/61 63/63/63 64/64/64
f 61/61/61 64/64/64 60/60/60
f 63/63/63 62/62/62 64/64/64
f 54/54/54 50/50/50 65/65/65
f 58/58/58 54/54/54 66/66/66
f 54/54/54 65/65/65 66/66/66
f 62/62/62 58/58/58 67/67/67
f 58/58/58 66/66/66 67/67/67
f 64/64/64 62/62/62 68/68/68
f 62/62/62 67/67/67 68/68/68
f 60/60/60 64/64/64 69/69/69
f 64/64/64 68/68/68 69/69/69
f 56/56/56 60/60/60 70/70/70
f 60/60/60 69/69/69 70/70/70
f 50/50/50 71/71/71 65/65/65
f 50/50/50 46/46/46 71/71/71
f 56/56/56 70/70/70 72/72/72
f 52/52/52 56/56/56 72/72/72
f 46/46/46 73/73/73 71/71/71
f 46/46/46 42/42/42 73/73/73
f 52/52/52 72/72/72 74/74/74
f 48/48/48 52/52/52 74/74/74
f 42/42/42 75/75/75 73/73/73
f 42/42/42 38/38/38 75/75/75
f 48/48/48 74/74/74 76/76/76
f 44/44/44 48/48/48 76/76/76
f 38/38/38 77/77/77 75/75/75
f 38/38/38 34/34/34 77/77/77
f 44/44/44 76/76/76 78/78/78
f 40/40/40 44/44/44 78/78/78
f 34/34/34 79/79/79 77/77/77
f 34/34/34 30/30/30 79/79/79
f 40/40/40 78/78/78 80/80/80
f 36/36/36 40/40/40 80/80/80
f 30/30/30 81/81/81 79/79/79
f 30/30/30 26/26/26 81/81/81
f 36/36/36 80/80/80 82/82/82
f 32/32/32 36/36/36 82/82/82
f 26/26/26 83/83/83 81/81/81
f 26/26/26 22/22/22 83/83/83
f 32/32/32 82/82/82 84/84/84
f 28/28/28 32/32/32 84/84/84
f 22/22/22 85/85/85 83/83/83
f 22/22/22 18/18/18 85/85/85
f 28/28/28 84/84/84 86/86/86
f 24/24/24 28/28/28 86/86/86
f 18/18/18 87/87/87 85/85/85
f 18/18/18 14/14/14 87/87/87
f 24/24/24 86/86/86 88/88/88
f 20/20/20 24/24/24 88/88/88
f 14/14/14 89/89/89 87/87/87
f 14/14/14 10/10/10 89/89/89
f 20/20/20 88/88/88 90/90/90
f 16/16/16 20/20/20 90/90/90
f 10/10/10 91/91/91 89/89/89
f 10/10/10 6/6/6 91/91/91
f 16/16/16 90/90/90 92/92/92
f 12/12/12 16/16/16 92/92/92
f 6/6/6 93/93/93 91/91/91
f 6/6/6 1/1/1 93/93/93
f 12/12/12 92/92/92 94/94/94
f 8/8/8 12/12/12 94/94/94
f 1/1/1 95/95/95 93/93/93
f 1/1/1 4/4/4 95/95/95
f 4/4/4 8/8/8 96/96/96
f 8/8/8 94/94/94 96/96/96
f 4/4/4 96/96/96 95/95/95
f 89/89/89 91/91/91 97/97/97
f 91/91/91 93/93/93 98/98/98
f 91/91/91 98/98/98 97/97/97
f 93/93/93 95/95/95 99/99/99
f 93/93/93 99/99/99 98/98/98
f 95/95/95 96/96/96 100/100/100
f 95/95/95 100/100/100 99/99/99
f 96/96/96 94/94/94 101/101/101
f 96/96/96 101/101/101 100/100/100
f 94/94/94 92/92/92 102/102/102
f 94/94/94 102/102/102 101/101/101
f 89/89/89 97/97/97 103/103/103
f 87/87/87 89/89/89 103/103/103
f 92/92/92 104/104/104 102/102/102
f 92/92/92 90/90/90 104/104/104
f 87/87/87 103/103/103 105/105/105
f 85/85/85 87/87/87 105/105/105
f 90/90/90 106/106/106 104/104/104
f 90/90/90 88/88/88 106/106/106
f 85/85/85 105/105/105 107/107/107
f 83/83/83 85/85/85 107/107/107
f 88/88/88 108/108/108 106/106/106
f 88/88/88 86/86/86 108/108/108
f 83/83/83 107/107/107 109/109/109
f 81/81/81 83/83/83 109/109/109
f 86/86/86 110/110/110 108/108/108
f 86/86/86 84/84/84 110/110/110
f 81/81/81 109/109/109 111/111/111
f 79/79/79 81/81/81 111/111/111
f 84/84/84 112/112/112 110/110/110
f 84/84/84 82/82/82 112/112/112
f 79/79/79 111/111/111 113/113/113
f 77/77/77 79/79/79 113/113/113
f 82/82/82 114/114/114 112/112/112
f 82/82/82 80/80/80 114/114/114
f 77/77/77 113/113/113 115/115/115
f 75/75/75 77/77/77 115/115/115
f 80/80/80 116/116/116 114/114/114
f 80/80/80 78/78/78 116/116/116
f 75/75/75 115/115/115 117/117/117
f 73/73/73 75/75/75 117/117/117
f 78/78/78 118/118/118 116/116/116
f 78/78/78 76/76/76 118/118/118
f 73/73/73 117/117/117 119/119/119
f 71/71/71 73/73/73 119/119/119
f 76/76/76 120/120/120 118/118/118
f 76/76/76 74/74/74 120/120/120
f 71/71/71 119/119/119 121/121/121
f 65/65/65 71/71/71 121/121/121
f 74/74/74 122/122/122 120/120/120
f 74/74/74 72/72/72 122/122/122
f 65/65/65 121/121/121 123/123/123
f 66/66/66 65/65/65 123/123/123
f 72/72/72 124/124/124 122/122/122
f 72/72/72 70/70/70 124/124/124
f 66/66/66 123/123/123 125/125/125
f 67/67/67 66/66/66 125/125/125
f 70/70/70 126/126/126 124/124/124
f 70/70/70 69/69/69 126/126/126
f 67/67/67 125/125/125 127/127/127
f 68/68/68 67/67/67 127/127/127
f 69/69/69 68/68/68 128/128/128
f 69/69/69 128/128/128 126/126/126
f 68/68/68 127/127/127 128/128/128
f 123/123/123 121/121/121 129/129/129
f 125/125/125 123/123/123 130/130/130
f 123/123/123 129/129/129 130/130/130
f 127/127/127 125/125/125 131/131/131
f 125/125/125 130/130/130 131/131/131
f 128/128/128 127/127/127 132/132/132
f 127/127/127 131/131/131 132/132/132
f 126/126/126 128/128/128 133/133/133
f 128/128/128 132/132/132 133/133/133
f 124/124/124 126/126/126 134/134/134
f 126/126/126 133/133/133 134/134/134
f 121/121/121 135/135/135 129/129/129
f 121/121/121 119/119/119 135/135/135
f 124/124/124 134/134/134 136/136/136
f 122/122/122 124/124/124 136/136/136
f 119/119/119 137/137/137 135/135/135
f 119/119/119 117/117/117 137/137/137
f 122/122/122 136/136/136 138/138/138
f 120/120/120 122/122/122 138/138/138
f 117/117/117 139/139/139 137/137/137
f 117/117/117 115/115/115 139/139/139
f 120/120/120 138/138/138 140/140/140
f 118/118/118 120/120/120 140/140/140
f 115/115/115 141/141/141 139/139/139
f 115/115/115 113/113/113 141/141/141
f 118/118/118 140/140/140 142/142/142
f 116/116/116 118/118/118 142/142/142
f 113/113/113 143/143/143 141/141/141
f 113/113/113 111/111/111 143/143/143
f 116/116/116 142/142/142 144/144/144
f 114/114/114 116/116/116 144/144/144
f 111/111/111 145/145/145 143/143/143
f 111/111/111 109/109/109 145/145/145
f 114/114/114 144/144/144 146/146/146
f 112/112/112 114/114/114 146/146/146
f 109/109/109 147/147/147 145/145/145
f 109/109/109 107/107/107 147/147/147
f 112/112/112 146/146/146 148/148/148
f 110/110/110 112/112/112 148/148/148
f 107/107/107 149/149/149 147/147/147
f 107/107/107 105/105/105 149/149/149
f 110/110/110 148/148/148 150/150/150
f 108/108/108 110/110/110 150/150/150
f 105/105/105 151/151/151 149/149/149
f 105/105/105 103/103/103 151/151/151
f 108/108/108 150/150/150 152/152/152
f 106/106/106 108/108/108 152/152/152
f 103/103/103 153/153/153 151/151/151
f 103/103/103 97/97/97 153/153/153
f 106/106/106 152/152/152 154/154/154
f 104/104/104 106/106/106 154/154/154
f 97/97/97 155/155/155 153/153/153
f 97/97/97 98/98/98 155/155/155
f 104/104/104 154/154/154 156/156/156
f 102/102/102 104/104/104 156/156/156
f 98/98/98 157/157/157 155/155/155
f 98/98/98 99/99/99 157/157/157
f 102/102/102 156/156/156 158/158/158
f 101/101/101 102/102/102 158/158/158
f 99/99/99 159/159/159 157/157/157
f 99/99/99 100/100/100 159/159/159
f 100/100/100 101/101/101 160/160/160
f 101/101/101 158/158/158 160/160/160
f 100/100/100 160/160/160 159/159/159
f 153/153/153 155/155/155 161/161/161
f 155/155/155 157/157/157 162/162/162
f 155/155/155 162/162/162 161/161/161
f 157/157/157 159/159/159 163/163/163
f 157/157/157 163/163/163 162/162/162
f 159/159/159 160/160/160 164/164/164
f 159/159/159 164/164/164 163/163/163
f 160/160/160 158/158/158 165/165/165
f 160/160/160 165/165/165 164/164/164
f 158/158/158 156/156/156 166/166/166
f 158/158/158 166/166/166 165/165/165
f 153/153/153 161/161/161 167/167/167
f 151/151/151 153/153/153 167/167/167
f 156/156/156 168/168/168 166/166/166
f 156/156/156 154/154/154 168/168/168
f 151/151/151 167/167/167 169/169/169
f 149/149/149 151/151/151 169/169/169
f 154/154/154 170/170/170 168/168/168
f 154/154/154 152/152/152 170/170/170
f 149/149/149 169/169/169 171/171/171
f 147/147/147 149/149/149 171/171/171
f 152/152/152 172/172/172 170/170/170
f 152/152/152 150/150/150 172/172/172
f 147/147/147 171/171/171 173/173/173
f 145/145/145 147/147/147 173/173/173
f 150/150/150 174/174/174 172/172/172
f 150/150/150 148/148/148 174/174/174
f 145/145/145 173/173/173 175/175/175
f 143/143/143 145/145/145 175/175/175
f 148/148/148 176/176/176 174/174/174
f 148/148/148 146/146/146 176/176/176
f 143/143/143 175/175/175 177/177/177
f 141/141/141 143/143/143 177/177/177
f 146/146/146 178/178/178 176/176/176
f 146/146/146 144/144/144 178/178/178
f 141/141/141 177/177/177 179/179/179
f 139/139/139 141/141/141 179/179/179
f 144/144/144 180/180/180 178/178/178
f 144/144/144 142/142/142 180/180/180
f 139/139/139 179/179/179 181/181/181
f 137/137/137 139/139/139 181/181/181
f 142/142/142 182/182/182 180/180/180
f 142/142/142 140/140/140 182/182/182
f 137/137/137 181/181/181 183/183/183
f 135/135/135 137/137/137 183/183/183
f 140/140/140 184/184/184 182/182/182
f 140/140/140 138/138/138 184/184/184
f 135/135/135 183/183/183 185/185/185
f 129/129/129 135/135/135 185/185/185
f 138/138/138 186/186/186 184/184/184
f 138/138/138 136/136/136 186/186/186
f 129/129/129 185/185/185 187/187/187
f 130/130/130 129/129/129 187/187/187
f 136/136/136 188/188/188 186/186/186
f 136/136/136 134/134/134 188/188/188
f 130/130/130 187/187/187 189/189/189
f 131/131/131 130/130/130 189/189/189
f 134/134/134 190/190/190 188/188/188
f 134/134/134 133/133/133 190/190/190
f 131/131/131 189/189/189 191/191/191
f 132/132/132 131/131/131 191/191/191
f 133/133/133 132/132/132 192/192/192
f 133/133/133 192/192/192 190/190/190
f 132/132/132 191/191/191 192/192/192
f 187/187/187 185/185/185 193/193/193
f 189/189/189 187/187/187 194/194/194
f 187/187/187 193/193/193 194/194/194
f 191/191/191 189/189/189 195/195/195
f 189/189/189 194/194/194 195/195/195
f 192/192/192 191/191/191 196/196/196
f 191/191/191 195/195/195 196/196/196
f 190/190/190 192/192/192 197/197/197
f 192/192/192 196/196/196 197/197/197
f 188/188/188 190/190/190 198/198/198
f 190/190/190 197/197/197 198/198/198
f 185/185/185 199/199/199 193/193/193
f 185/185/185 183/183/183 199/199/199
f 188/188/188 198/198/198 200/200/200
f 186/186/186 188/188/188 200/200/200
f 183/183/183 201/201/201 199/199/199
f 183/183/183 181/181/181 201/201/201
f 186/186/186 200/200/200 202/202/202
f 184/184/184 186/186/186 202/202/202
f 181/181/181 203/203/203 201/201/201
f 181/181/181 179/179/179 203/203/203
f 184/184/184 202/202/202 204/204/204
f 182/182/182 184/184/184 204/204/204
f 179/179/179 205/205/205 203/203/203
f 179/179/179 177/177/177 205/205/205
f 182/182/182 204/204/204 206/206/206
f 180/180/180 182/182/182 206/206/206
f 177/177/177 207/207/207 205/205/205
f 177/177/177 175/175/175 207/207/207
f 180/180/180 206/206/206 208/208/208
f 178/178/178 180/180/180 208/208/208
f 175/175/175 209/209/209 207/207/207
f 175/175/175 173/173/173 209/209/209
f 178/178/178 208/208/208 210/210/210
f 176/176/176 178/178/178 210/210/210
f 173/173/173 211/211/211 209/209/209
f 173/173/173 171/171/171 211/211/211
f 176/176/176 210/210/210 212/212/212
f 174/174/174 176/176/176 212/212/212
f 171/171/171 213/213/213 211/211/211
f 171/171/171 169/169/169 213/213/213
f 174/174/174 212/212/212 214/214/214
f 172/172/172 174/174/174 214/214/214
f 169/169/169 215/215/215 213/213/213
f 169/169/169 167/167/167 215/215/215
f 172/172/172 214/214/214 216/216/216
f 170/170/170 172/172/172 216/216/216
f 167/167/167 217/217/217 215/215/215
f 167/167/167 161/161/161 217/217/217
f 170/170/170 216/216/216 218/218/218
f 168/168/168 170/170/170 218/218/218
f 161/161/161 219/219/219 217/217/217
f 161/161/161 162/162/162 219/219/219
f 168/168/168 218/218/218 220/220/220
f 166/166/166 168/168/168 220/220/220
f 162/162/162 221/221/221 219/219/219
f 162/162/162 163/163/163 221/221/221
f 166/166/166 220/220/220 222/222/222
f 165/165/165 166/166/166 222/222/222
f 163/163/163 223/223/223 221/221/221
f 163/163/163 164/164/164 223/223/223
f 164/164/164 165/165/165 224/224/224
f 165/165/165 222/222/222 224/224/224
f 164/164/164 224/224/224 223/223/223
f 217/217/217 219/219/219 225/225/225
f 219/219/219 221/221/221 226/226/226
f 219/219/219 226/226/226 225/225/225
f 225/225/225 226/226/226 227/227/227
f 217/217/217 225/225/225 228/228/228
f 228/228/228 225/225/225 227/227/227
f 215/215/215 217/217/217 228/228/228
f 221/221/221 229/229/229 226/226/226
f 221/221/221 223/223/223 229/229/229
f 226/226/226 229/229/229 227/227/227
f 215/215/215 228/228/228 230/230/230
f 230/230/230 228/228/228 227/227/227
f 213/213/213 215/215/215 230/230/230
f 223/223/223 231/231/231 229/229/229
f 223/223/223 224/224/224 231/231/231
f 229/229/229 231/231/231 227/227/227
f 213/213/213 230/230/230 232/232/232
f 232/232/232 230/230/230 227/227/227
f 211/211/211 213/213/213 232/232/232
f 224/224/224 233/233/233 231/231/231
f 231/231/231 233/233/233 227/227/227
f 234/234/234 232/232/232 227/227/227
f 211/211/211 232/232/232 234/234/234
f 233/233/233 235/235/235 227/227/227
f 224/224/224 222/222/222 233/233/233
f 222/222/222 235/235/235 233/233/233
f 209/209/209 211/211/211 234/234/234
f 222/222/222 220/220/220 235/235/235
f 209/209/209 234/234/234 236/236/236
f 236/236/236 234/234/234 227/227/227
f 207/207/207 209/209/209 236/236/236
f 220/220/220 237/237/237 235/235/235
f 235/235/235 237/237/237 227/227/227
f 220/220/220 218/218/218 237/237/237
f 207/207/207 236/236/236 238/238/238
f 238/238/238 236/236/236 227/227/227
f 205/205/205 207/207/207 238/238/238
f 218/218/218 239/239/239 237/237/237
f 237/237/237 239/239/239 227/227/227
f 218/218/218 216/216/216 239/239/239
f 205/205/205 238/238/238 240/240/240
f 240/240/240 238/238/238 227/227/227
f 203/203/203 205/205/205 240/240/240
f 239/239/239 241/241/241 227/227/227
f 216/216/216 241/241/241 239/239/239
f 242/242/242 240/240/240 227/227/227
f 203/203/203 240/240/240 242/242/242
f 241/241/241 243/243/243 227/227/227
f 216/216/216 214/214/214 241/241/241
f 214/214/214 243/243/243 241/241/241
f 201/201/201 203/203/203 242/242/242
f 214/214/214 212/212/212 243/243/243
f 201/201/201 242/242/242 244/244/244
f 244/244/244 242/242/242 227/227/227
f 199/199/199 201/201/201 244/244/244
f 212/212/212 245/245/245 243/243/243
f 243/243/243 245/245/245 227/227/227
f 212/212/212 210/210/210 245/245/245
f 199/199/199 244/244/244 246/246/246
f 246/246/246 244/244/244 227/227/227
f 193/193/193 199/199/199 246/246/246
f 210/210/210 247/247/247 245/245/245
f 245/245/245 247/247/247 227/227/227
f 210/210/210 208/208/208 247/247/247
f 193/193/193 246/246/246 248/248/248
f 248/248/248 246/246/246 227/227/227
f 194/194/194 193/193/193 248/248/248
f 247/247/247 249/249/249 227/227/227
f 208/208/208 249/249/249 247/247/247
f 250/250/250 248/248/248 227/227/227
f 194/194/194 248/248/248 250/250/250
f 249/249/249 251/251/251 227/227/227
f 208/208/208 206/206/206 249/249/249
f 206/206/206 251/251/251 249/249/249
f 195/195/195 194/194/194 250/250/250
f 206/206/206 204/204/204 251/251/251
f 195/195/195 250/250/250 252/252/252
f 252/252/252 250/250/250 227/227/227
f 196/196/196 195/195/195 252/252/252
f 204/204/204 253/253/253 251/251/251
f 251/251/251 253/253/253 227/227/227
f 204/204/204 202/202/202 253/253/253
f 196/196/196 252/252/252 254/254/254
f 254/254/254 252/252/252 227/227/227
f 197/197/197 196/196/196 254/254/254
f 202/202/202 255/255/255 253/253/253
f 253/253/253 255/255/255 227/227/227
f 202/202/202 200/200/200 255/255/255
f 197/197/197 254/254/254 256/256/256
f 256/256/256 254/254/254 227/227/227
f 198/198/198 197/197/197 256/256/256
f 255/255/255 257/257/257 227/227/227
f 200/200/200 257/257/257 255/255/255
f 257/257/257 256/256/256 227/227/227
f 198/198/198 256/256/256 257/257/257
f 200/200/200 198/198/198 257/257/257
f 260/260/260 259/259/259 258/258/258
f 261/261/261 260/260/260 258/258/258
f 261/261/261 258/258/258 262/262/262
f 260/260/260 263/263/263 259/259/259
f 263/263/263 264/264/264 259/259/259
f 265/265/265 261/261/261 262/262/262
f 265/265/265 262/262/262 266/266/266
f 263/263/263 267/267/267 264/264/264
f 267/267/267 268/268/268 264/264/264
f 269/269/269 265/265/265 266/266/266
f 269/269/269 266/266/266 270/270/270
f 267/267/267 271/271/271 268/268/268
f 271/271/271 272/272/272 268/268/268
f 273/273/273 269/269/269 270/270/270
f 273/273/273 270/270/270 274/274/274
f 271/271/271 275/275/275 272/272/272
f 275/275/275 276/276/276 272/272/272
f 277/277/277 273/273/273 274/274/274
f 277/277/277 274/274/274 278/278/278
f 275/275/275 279/279/279 276/276/276
f 279/279/279 280/280/280 276/276/276
f 281/281/281 277/277/277 278/278/278
f 281/281/281 278/278/278 282/282/282
f 279/279/279 283/283/283 280/280/280
f 283/283/283 284/284/284 280/280/280
f 285/285/285 281/281/281 282/282/282
f 285/285/285 282/282/282 286/286/286
f 283/283/283 287/287/287 284/284/284
f 287/287/287 288/288/288 284/284/284
f 289/289/289 285/285/285 286/286/286
f 289/289/289 286/286/286 290/290/290
f 287/287/287 291/291/291 288/288/288
f 291/291/291 292/292/292 288/288/288
f 293/293/293 289/289/289 290/290/290
f 293/293/293 290/290/290 294/294/294
f 291/291/291 295/295/295 292/292/292
f 295/295/295 296/296/296 292/292/292
f 297/297/297 293/293/293 294/294/294
f 297/297/297 294/294/294 298/298/298
f 295/295/295 299/299/299 296/296/296
f 299/299/299 300/300/300 296/296/296
f 301/301/301 297/297/297 298/298/298
f 301/301/301 298/298/298 302/302/302
f 299/299/299 303/303/303 300/300/300
f 303/303/303 304/304/304 300/300/300
f 305/305/305 301/301/301 302/302/302
f 305/305/305 302/302/302 306/306/306
f 303/303/303 307/307/307 304/304/304
f 307/307/307 308/308/308 304/304/304
f 309/309/309 305/305/305 306/306/306
f 309/309/309 306/306/306 310/310/310
f 307/307/307 311/311/311 308/308/308
f 311/311/311 312/312/312 308/308/308
f 313/313/313 309/309/309 310/310/310
f 313/313/313 310/310/310 314/314/314
f 311/311/311 315/315/315 312/312/312
f 315/315/315 316/316/316 312/312/312
f 317/317/317 313/313/313 314/314/314
f 317/317/317 314/314/314 318/318/318
f 315/315/315 319/319/319 316/316/316
f 319/319/319 320/320/320 316/316/316
f 321/321/321 318/318/318 320/320/320
f 321/321/321 317/317/317 318/318/318
f 319/319/319 321/321/321 320/320/320
f 322/322/322 311/311/311 307/307/307
f 323/323/323 315/315/315 311/311/311
f 322/322/322 323/323/323 311/311/311
f 324/324/324 319/319/319 315/315/315
f 323/323/323 324/324/324 315/315/315
f 325/325/325 321/321/321 319/319/319
f 324/324/324 325/325/325 319/319/319
f 326/326/326 317/317/317 321/321/321
f 325/325/325 326/326/326 321/321/321
f 327/327/327 313/313/313 317/317/317
f 326/326/326 327/327/327 317/317/317
f 328/328/328 322/322/322 307/307/307
f 328/328/328 307/307/307 303/303/303
f 327/327/327 329/329/329 313/313/313
f 329/329/329 309/309/309 313/313/313
f 330/330/330 328/328/328 303/303/303
f 330/330/330 303/303/303 299/299/299
f 329/329/329 331/331/331 309/309/309
f 331/331/331 305/305/305 309/309/309
f 332/332/332 330/330/330 299/299/299
f 332/332/332 299/299/299 295/295/295
f 331/331/331 333/333/333 305/305/305
f 333/333/333 301/301/301 305/305/305
f 334/334/334 332/332/332 295/295/295
f 334/334/334 295/295/295 291/291/291
f 333/333/333 335/335/335 301/301/301
f 335/335/335 297/297/297 301/301/301
f 336/336/336 334/334/334 291/291/291
f 336/336/336 291/291/291 287/287/287
f 335/335/335 337/337/337 297/297/297
f 337/337/337 293/293/293 297/297/297
f 338/338/338 336/336/336 287/287/287
f 338/338/338 287/287/287 283/283/283
f 337/337/337 339/339/339 293/293/293
f 339/339/339 289/289/289 293/293/293
f 340/340/340 338/338/338 283/283/283
f 340/340/340 283/283/283 279/279/279
f 339/339/339 341/341/341 289/289/289
f 341/341/341 285/285/285 289/289/289
f 342/342/342 340/340/340 279/279/279
f 342/342/342 279/279/279 275/275/275
f 341/341/341 343/343/343 285/285/285
f 343/343/343 281/281/281 285/285/285
f 344/344/344 342/342/342 275/275/275
f 344/344/344 275/275/275 271/271/271
f 343/343/343 345/345/345 281/281/281
f 345/345/345 277/277/277 281/281/281
f 346/346/346 344/344/344 271/271/271
f 346/346/346 271/271/271 267/267/267
f 345/345/345 347/347/347 277/277/277
f 347/347/347 273/273/273 277/277/277
f 348/348/348 346/346/346 267/267/267
f 348/348/348 267/267/267 263/263/263
f 347/347/347 349/349/349 273/273/273
f 349/349/349 269/269/269 273/273/273
f 350/350/350 348/348/348 263/263/263
f 350/350/350 263/263/263 260/260/260
f 349/349/349 351/351/351 269/269/269
f 351/351/351 265/265/265 269/269/269
f 352/352/352 350/350/350 260/260/260
f 352/352/352 260/260/260 261/261/261
f 353/353/353 261/261/261 265/265/265
f 351/351/351 353/353/353 265/265/265
f 353/353/353 352/352/352 261/261/261
f 354/354/354 346/346/346 348/348/348
f 355/355/355 348/348/348 350/350/350
f 355/355/355 354/354/354 348/348/348
f 356/356/356 350/350/350 352/352/352
f 356/356/356 355/355/355 350/350/350
f 357/357/357 352/352/352 353/353/353
f 357/357/357 356/356/356 352/352/352
f 358/358/358 353/353/353 351/351/351
f 358/358/358 357/357/357 353/353/353
f 359/359/359 351/351/351 349/349/349
f 359/359/359 358/358/358 351/351/351
f 354/354/354 360/360/360 346/346/346
f 360/360/360 344/344/344 346/346/346
f 361/361/361 359/359/359 349/349/349
f 361/361/361 349/349/349 347/347/347
f 360/360/360 362/362/362 344/344/344
f 362/362/362 342/342/342 344/344/344
f 363/363/363 361/361/361 347/347/347
f 363/363/363 347/347/347 345/345/345
f 362/362/362 364/364/364 342/342/342
f 364/364/364 340/340/340 342/342/342
f 365/365/365 363/363/363 345/345/345
f 365/365/365 345/345/345 343/343/343
f 364/364/364 366/366/366 340/340/340
f 366/366/366 338/338/338 340/340/340
f 367/367/367 365/365/365 343/343/343
f 367/367/367 343/343/343 341/341/341
f 366/366/366 368/368/368 338/338/338
f 368/368/368 336/336/336 338/338/338
f 369/369/369 367/367/367 341/341/341
f 369/369/369 341/341/341 339/339/339
f 368/368/368 370/370/370 336/336/336
f 370/370/370 334/334/334 336/336/336
f 371/371/371 369/369/369 339/339/339
f 371/371/371 339/339/339 337/337/337
f 370/370/370 372/372/372 334/334/334
f 372/372/372 332/332/332 334/334/334
f 373/373/373 371/371/371 337/337/337
f 373/373/373 337/337/337 335/335/335
f 372/372/372 374/374/374 332/332/332
f 374/374/374 330/330/330 332/332/332
f 375/375/375 373/373/373 335/335/335
f 375/375/375 335/335/335 333/333/333
f 374/374/374 376/376/376 330/330/330
f 376/376/376 328/328/328 330/330/330
f 377/377/377 375/375/375 333/333/333
f 377/377/377 333/333/333 331/331/331
f 376/376/376 378/378/378 328/328/328
f 378/378/378 322/322/322 328/328/328
f 379/379/379 377/377/377 331/331/331
f 379/379/379 331/331/331 329/329/329
f 378/378/378 380/380/380 322/322/322
f 380/380/380 323/323/323 322/322/322
f 381/381/381 379/379/379 329/329/329
f 381/381/381 329/329/329 327/327/327
f 380/380/380 382/382/382 323/323/323
f 382/382/382 324/324/324 323/323/323
f 383/383/383 381/381/381 327/327/327
f 383/383/383 327/327/327 326/326/326
f 382/382/382 384/384/384 324/324/324
f 384/384/384 325/325/325 324/324/324
f 385/385/385 326/326/326 325/325/325
f 385/385/385 383/383/383 326/326/326
f 384/384/384 385/385/385 325/325/325
f 386/386/386 380/380/380 378/378/378
f 387/387/387 382/382/382 380/380/380
f 386/386/386 387/387/387 380/380/380
f 388/388/388 384/384/384 382/382/382
f 387/387/387 388/388/388 382/382/382
f 389/389/389 385/385/385 384/384/384
f 388/388/388 389/389/389 384/384/384
f 390/390/390 383/383/383 385/385/385
f 389/389/389 390/390/390 385/385/385
f 391/391/391 381/381/381 383/383/383
f 390/390/390 391/391/391 383/383/383
f 392/392/392 386/386/386 378/378/378
f 392/392/392 378/378/378 376/376/376
f 391/391/391 393/393/393 381/381/381
f 393/393/393 379/379/379 381/381/381
f 394/394/394 392/392/392 376/376/376
f 394/394/394 376/376/376 374/374/374
f 393/393/393 395/395/395 379/379/379
f 395/395/395 377/377/377 379/379/379
f 396/396/396 394/394/394 374/374/374
f 396/396/396 374/374/374 372/372/372
f 395/395/395 397/397/397 377/377/377
f 397/397/397 375/375/375 377/377/377
f 398/398/398 396/396/396 372/372/372
f 398/398/398 372/372/372 370/370/370
f 397/397/397 399/399/399 375/375/375
f 399/399/399 373/373/373 375/375/375
f 400/400/400 398/398/398 370/370/370
f 400/400/400 370/370/370 368/368/368
f 399/399/399 401/401/401 373/373/373
f 401/401/401 371/371/371 373/373/373
f 402/402/402 400/400/400 368/368/368
f 402/402/402 368/368/368 366/366/366
f 401/401/401 403/403/403 371/371/371
f 403/403/403 369/369/369 371/371/371
f 404/404/404 402/402/402 366/366/366
f 404/404/404 366/366/366 364/364/364
f 403/403/403 405/405/405 369/369/369
f 405/405/405 367/367/367 369/369/369
f 406/406/406 404/404/404 364/364/364
f 406/406/406 364/364/364 362/362/362
f 405/405/405 407/407/407 367/367/367
f 407/407/407 365/365/365 367/367/367
f 408/408/408 406/406/406 362/362/362
f 408/408/408 362/362/362 360/360/360
f 407/407/407 409/409/409 365/365/365
f 409/409/409 363/363/363 365/365/365
f 410/410/410 408/408/408 360/360/360
f 410/410/410 360/360/360 354/354/354
f 409/409/409 411/411/411 363/363/363
f 411/411/411 361/361/361 363/363/363
f 412/412/412 410/410/410 354/354/354
f 412/412/412 354/354/354 355/355/355
f 411/411/411 413/413/413 361/361/361
f 413/413/413 359/359/359 361/361/361
f 414/414/414 412/412/412 355/355/355
f 414/414/414 355/355/355 356/356/356
f 413/413/413 415/415/415 359/359/359
f 415/415/415 358/358/358 359/359/359
f 416/416/416 414/414/414 356/356/356
f 416/416/416 356/356/356 357/357/357
f 417/417/417 357/357/357 358/358/358
f 415/415/415 417/417/417 358/358/358
f 417/417/417 416/416/416 357/357/357
f 418/418/418 410/410/410 412/412/412
f 419/419/419 412/412/412 414/414/414
f 419/419/419 418/418/418 412/412/412
f 420/420/420 414/414/414 416/416/416
f 420/420/420 419/419/419 414/414/414
f 421/421/421 416/416/416 417/417/417
f 421/421/421 420/420/420 416/416/416
f 422/422/422 417/417/417 415/415/415
f 422/422/422 421/421/421 417/417/417
f 423/423/423 415/415/415 413/413/413
f 423/423/423 422/422/422 415/415/415
f 418/418/418 424/424/424 410/410/410
f 424/424/424 408/408/408 410/410/410
f 425/425/425 423/423/423 413/413/413
f 425/425/425 413/413/413 411/411/411
f 424/424/424 426/426/426 408/408/408
f 426/426/426 406/406/406 408/408/408
f 427/427/427 425/425/425 411/411/411
f 427/427/427 411/411/411 409/409/409
f 426/426/426 428/428/428 406/406/406
f 428/428/428 404/404/404 406/406/406
f 429/429/429 427/427/427 409/409/409
f 429/429/429 409/409/409 407/407/407
f 428/428/428 430/430/430 404/404/404
f 430/430/430 402/402/402 404/404/404
f 431/431/431 429/429/429 407/407/407
f 431/431/431 407/407/407 405/405/405
f 430/430/430 432/432/432 402/402/402
f 432/432/432 400/400/400 402/402/402
f 433/433/433 431/431/431 405/405/405
f 433/433/433 405/405/405 403/403/403
f 432/432/432 434/434/434 400/400/400
f 434/434/434 398/398/398 400/400/400
f 435/435/435 433/433/433 403/403/403
f 435/435/435 403/403/403 401/401/401
f 434/434/434 436/436/436 398/398/398
f 436/436/436 396/396/396 398/398/398
f 437/437/437 435/435/435 401/401/401
f 437/437/437 401/401/401 399/399/399
f 436/436/436 438/438/438 396/396/396
f 438/438/438 394/394/394 396/396/396
f 439/439/439 437/437/437 399/399/399
f 439/439/439 399/399/399 397/397/397
f 438/438/438 440/440/440 394/394/394
f 440/440/440 392/392/392 394/394/394
f 441/441/441 439/439/439 397/397/397
f 441/441/441 397/397/397 395/395/395
f 440/440/440 442/442/442 392/392/392
f 442/442/442 386/386/386 392/392/392
f 443/443/443 441/441/441 395/395/395
f 443/443/443 395/395/395 393/393/393
f 442/442/442 444/444/444 386/386/386
f 444/444/444 387/387/387 386/386/386
f 445/445/445 443/443/443 393/393/393
f 445/445/445 393/393/393 391/391/391
f 444/444/444 446/446/446 387/387/387
f 446/446/446 388/388/388 387/387/387
f 447/447/447 445/445/445 391/391/391
f 447/447/447 391/391/391 390/390/390
f 446/446/446 448/448/448 388/388/388
f 448/448/448 389/389/389 388/388/388
f 449/449/449 390/390/390 389/389/389
f 449/449/449 447/447/447 390/390/390
f 448/448/448 449/449/449 389/389/389
f 450/450/450 444/444/444 442/442/442
f 451/451/451 446/446/446 444/444/444
f 450/450/450 451/451/451 444/444/444
f 452/452/452 448/448/448 446/446/446
f 451/451/451 452/452/452 446/446/446
f 453/453/453 449/449/449 448/448/448
f 452/452/452 453/453/453 448/448/448
f 454/454/454 447/447/447 449/449/449
f 453/453/453 454/454/454 449/449/449
f 455/455/455 445/445/445 447/447/447
f 454/454/454 455/455/455 447/447/447
f 456/456/456 450/450/450 442/442/442
f 456/456/456 442/442/442 440/440/440
f 455/455/455 457/457/457 445/445/445
f 457/457/457 443/443/443 445/445/445
f 458/458/458 456/456/456 440/440/440
f 458/458/458 440/440/440 438/438/438
f 457/457/457 459/459/459 443/443/443
f 459/459/459 441/441/441 443/443/443
f 460/460/460 458/458/458 438/438/438
f 460/460/460 438/438/438 436/436/436
f 459/459/459 461/461/461 441/441/441
f 461/461/461 439/439/439 441/441/441
f 462/462/462 460/460/460 436/436/436
f 462/462/462 436/436/436 434/434/434
f 461/461/461 463/463/463 439/439/439
f 463/463/463 437/437/437 439/439/439
f 464/464/464 462/462/462 434/434/434
f 464/464/464 434/434/434 432/432/432
f 463/463/463 465/465/465 437/437/437
f 465/465/465 435/435/435 437/437/437
f 466/466/466 464/464/464 432/432/432
f 466/466/466 432/432/432 430/430/430
f 465/465/465 467/467/467 435/435/435
f 467/467/467 433/433/433 435/435/435
f 468/468/468 466/466/466 430/430/430
f 468/468/468 430/430/430 428/428/428
f 467/467/467 469/469/469 433/433/433
f 469/469/469 431/431/431 433/433/433
f 470/470/470 468/468/468 428/428/428
f 470/470/470 428/428/428 426/426/426
f 469/469/469 471/471/471 431/431/431
f 471/471/471 429/429/429 431/431/431
f 472/472/472 470/470/470 426/426/426
f 472/472/472 426/426/426 424/424/424
f 471/471/471 473/473/473 429/429/429
f 473/473/473 427/427/427 429/429/429
f 474/474/474 472/472/472 424/424/424
f 474/474/474 424/424/424 418/418/418
f 473/473/473 475/475/475 427/427/427
f 475/475/475 425/425/425 427/427/427
f 476/476/476 474/474/474 418/418/418
f 476/476/476 418/418/418 419/419/419
f 475/475/475 477/477/477 425/425/425
f 477/477/477 423/423/423 425/425/425
f 478/478/478 476/476/476 419/419/419
f 478/478/478 419/419/419 420/420/420
f 477/477/477 479/479/479 423/423/423
f 479/479/479 422/422/422 423/423/423
f 480/480/480 478/478/478 420/420/420
f 480/480/480 420/420/420 421/421/421
f 481/481/481 421/421/421 422/422/422
f 479/479/479 481/481/481 422/422/422
f 481/481/481 480/480/480 421/421/421
f 482/482/482 474/474/474 476/476/476
f 483/483/483 476/476/476 478/478/478
f 483/483/483 482/482/482 476/476/476
f 482/482/482 483/483/483 484/484/484
f 482/482/482 485/485/485 474/474/474
f 485/485/485 482/482/482 484/484/484
f 485/485/485 472/472/472 474/474/474
f 486/486/486 483/483/483 478/478/478
f 486/486/486 478/478/478 480/480/480
f 483/483/483 486/486/486 484/484/484
f 485/485/485 487/487/487 472/472/472
f 487/487/487 485/485/485 484/484/484
f 487/487/487 470/470/470 472/472/472
f 488/488/488 486/486/486 480/480/480
f 488/488/488 480/480/480 481/481/481
f 486/486/486 488/488/488 484/484/484
f 487/487/487 489/489/489 470/470/470
f 489/489/489 487/487/487 484/484/484
f 489/489/489 468/468/468 470/470/470
f 490/490/490 488/488/488 481/481/481
f 488/488/488 490/490/490 484/484/484
f 491/491/491 489/489/489 484/484/484
f 489/489/489 491/491/491 468/468/468
f 490/490/490 492/492/492 484/484/484
f 490/490/490 481/481/481 479/479/479
f 492/492/492 490/490/490 479/479/479
f 491/491/491 466/466/466 468/468/468
f 492/492/492 479/479/479 477/477/477
f 491/491/491 493/493/493 466/466/466
f 493/493/493 491/491/491 484/484/484
f 493/493/493 464/464/464 466/466/466
f 494/494/494 492/492/492 477/477/477
f 492/492/492 494/494/494 484/484/484
f 494/494/494 477/477/477 475/475/475
f 493/493/493 495/495/495 464/464/464
f 495/495/495 493/493/493 484/484/484
f 495/495/495 462/462/462 464/464/464
f 496/496/496 494/494/494 475/475/475
f 494/494/494 496/496/496 484/484/484
f 496/496/496 475/475/475 473/473/473
f 495/495/495 497/497/497 462/462/462
f 497/497/497 495/495/495 484/484/484
f 497/497/497 460/460/460 462/462/462
f 498/498/498 496/496/496 473/473/473
f 496/496/496 498/498/498 484/484/484
f 499/499/499 497/497/497 484/484/484
f 497/497/497 499/499/499 460/460/460
f 498/498/498 500/500/500 484/484/484
f 498/498/498 473/473/473 471/471/471
f 500/500/500 498/498/498 471/471/471
f 499/499/499 458/458/458 460/460/460
f 500/500/500 471/471/471 469/469/469
f 499/499/499 501/501/501 458/458/458
f 501/501/501 499/499/499 484/484/484
f 501/501/501 456/456/456 458/458/458
f 502/502/502 500/500/500 469/469/469
f 500/500/500 502/502/502 484/484/484
f 502/502/502 469/469/469 467/467/467
f 501/501/501 503/503/503 456/456/456
f 503/503/503 501/501/501 484/484/484
f 503/503/503 450/450/450 456/456/456
f 504/504/504 502/502/502 467/467/467
f 502/502/502 504/504/504 484/484/484
f 504/504/504 467/467/467 465/465/465
f 503/503/503 505/505/505 450/450/450
f 505/505/505 503/503/503 484/484/484
f 505/505/505 451/451/451 450/450/450
f 506/506/506 504/504/504 465/465/465
f 504/504/504 506/506/506 484/484/484
f 507/507/507 505/505/505 484/484/484
f 505/505/505 507/507/507 451/451/451
f 506/506/506 508/508/508 484/484/484
f 506/506/506 465/465/465 463/463/463
f 508/508/508 506/506/506 463/463/463
f 507/507/507 452/452/452 451/451/451
f 508/508/508 463/463/463 461/461/461
f 507/507/507 509/509/509 452/452/452
f 509/509/509 507/507/507 484/484/484
f 509/509/509 453/453/453 452/452/452
f 510/510/510 508/508/508 461/461/461
f 508/508/508 510/510/510 484/484/484
f 510/510/510 461/461/461 459/459/459
f 509/509/509 511/511/511 453/453/453
f 511/511/511 509/509/509 484/484/484
f 511/511/511 454/454/454 453/453/453
f 512/512/512 510/510/510 459/459/459
f 510/510/510 512/512/512 484/484/484
f 512/512/512 459/459/459 457/457/457
f 511/511/511 513/513/513 454/454/454
f 513/513/513 511/511/511 484/484/484
f 513/513/513 455/455/455 454/454/454
f 514/514/514 457/457/457 455/455/455
f 514/514/514 512/512/512 457/457/457
f 512/512/512 514/514/514 484/484/484
f 513/513/513 514/514/514 455/455/455
f 514/514/514 513/513/513 484/484/484
