g EyeBall
v 7.324219E-07 0.09754517 -0.49039263
v -0.09754444 3.774895E-08 -0.49039263
v 7.324219E-07 3.774895E-08 -0.49999997
v -0.09567017 0.09754517 -0.48096985
v -0.19134083 3.774895E-08 -0.46193975
v 0.095670655 0.09754517 -0.48097008
v 0.09754492 3.774895E-08 -0.49039283
v -0.18766455 0.09754517 -0.45306376
v -0.27778444 3.774895E-08 -0.41573483
v 0.1876648 0.09754517 -0.45306408
v 0.19134131 3.774895E-08 -0.46194014
v -0.27244678 0.09754517 -0.4077466
v -0.35355276 3.774895E-08 -0.35355335
v 0.2724473 0.09754517 -0.40774712
v 0.2777849 3.774895E-08 -0.41573533
v -0.3467593 0.09754517 -0.34675995
v -0.41573438 3.774895E-08 -0.2777851
v 0.34676003 0.09754517 -0.3467606
v 0.35355324 3.774895E-08 -0.35355407
v -0.4077461 0.09754517 -0.27244753
v -0.46193898 3.774895E-08 -0.19134164
v 0.40774685 0.09754517 -0.2724483
v 0.4157349 3.774895E-08 -0.27778587
v -0.45306325 0.09754517 -0.18766506
v -0.49039188 3.774895E-08 -0.09754504
v 0.453064 0.09754517 -0.18766594
v 0.46193996 3.774895E-08 -0.1913425
v -0.48096925 0.09754517 -0.09567074
v -0.49999928 3.774895E-08 1.6069413E-07
v 0.48097023 0.09754517 -0.09567167
v 0.4903931 3.774895E-08 -0.09754599
v -0.49039188 0.09754517 1.5759468E-07
v -0.49039188 3.774895E-08 0.097545356
v 0.4903931 0.09754517 -7.896424E-07
v 0.50000054 3.774895E-08 -8.0490116E-07
v -0.48096925 0.09754517 0.09567106
v -0.46193898 3.774895E-08 0.1913419
v 0.48097047 0.09754517 0.09567011
v 0.49039358 3.774895E-08 0.0975444
v -0.453063 0.09754517 0.18766534
v -0.4157339 3.774895E-08 0.27778536
v 0.45306447 0.09754517 0.18766446
v 0.4619407 3.774895E-08 0.19134104
v -0.40774587 0.09754517 0.27244776
v -0.35355252 3.774895E-08 0.3535536
v 0.40774757 0.09754517 0.27244696
v 0.41573587 3.774895E-08 0.27778453
v -0.3467593 0.09754517 0.34676018
v -0.2777842 3.774895E-08 0.415735
v 0.346761 0.09754517 0.3467595
v 0.35355446 3.774895E-08 0.35355294
v -0.27244654 0.09754517 0.40774673
v -0.19134058 3.774895E-08 0.46193993
v 0.27244875 0.09754517 0.40774623
v 0.2777864 3.774895E-08 0.41573444
v -0.18766408 0.09754517 0.45306385
v -0.09754419 3.774895E-08 0.49039268
v 0.1876665 0.09754517 0.4530635
v 0.19134279 3.774895E-08 0.4619395
v -0.095669925 0.09754517 0.4809699
v 1.2207032E-06 3.774895E-08 0.49999997
v 0.09567188 0.09754517 0.48096976
v 0.097546145 3.774895E-08 0.4903925
v 1.2207032E-06 0.09754517 0.4903926
v 0.25664112 0.19134171 0.38408855
v 0.17677784 0.19134171 0.42677644
v 0.0901211 0.19134171 0.45306358
v 1.2207032E-06 0.19134171 0.46193975
v -0.0901189 0.19134171 0.4530638
v -0.17677589 0.19134171 0.42677683
v 0.32664162 0.19134171 0.32664028
v -0.25663918 0.19134171 0.38408905
v 0.38408962 0.19134171 0.25663945
v -0.32663992 0.19134171 0.32664093
v 0.4267776 0.19134171 0.17677605
v -0.38408816 0.19134171 0.25664017
v 0.45306447 0.19134171 0.090119265
v -0.4267759 0.19134171 0.17677689
v 0.46194044 0.19134171 -7.436276E-07
v -0.453063 0.19134171 0.09012016
v 0.45306423 0.19134171 -0.09012074
v -0.46193898 0.19134171 1.4829637E-07
v 0.4267769 0.19134171 -0.17677744
v -0.453063 0.19134171 -0.09011987
v 0.38408887 0.19134171 -0.25664067
v -0.4267759 0.19134171 -0.17677662
v 0.32664087 0.19134171 -0.32664135
v -0.38408816 0.19134171 -0.25663993
v 0.25663966 0.19134171 -0.38408938
v -0.32664016 0.19134171 -0.3266407
v 0.17677662 0.19134171 -0.42677706
v -0.25663942 0.19134171 -0.38408887
v 0.09011963 0.19134171 -0.45306394
v -0.17677613 0.19134171 -0.42677665
v 7.324219E-07 0.19134171 -0.46193975
v -0.090119146 0.19134171 -0.45306367
v 0.23096974 0.2777851 -0.34567133
v 0.15909474 0.2777851 -0.38408923
v 0.08110547 0.2777851 -0.40774676
v 7.324219E-07 0.2777851 -0.41573483
v -0.081105225 0.2777851 -0.40774655
v -0.159094 0.2777851 -0.38408887
v 0.293969 0.2777851 -0.29396945
v -0.23096925 0.2777851 -0.34567085
v 0.3456709 0.2777851 -0.23097055
v -0.2939683 0.2777851 -0.2939689
v 0.38408914 0.2777851 -0.1590955
v -0.3456702 0.2777851 -0.23096988
v 0.4077471 0.2777851 -0.08110653
v -0.38408816 0.2777851 -0.15909478
v 0.4157356 0.2777851 -6.697178E-07
v -0.4077461 0.2777851 -0.08110574
v 0.40774733 0.2777851 0.0811052
v -0.41573438 0.2777851 1.3327599E-07
v 0.38408962 0.2777851 0.15909426
v -0.40774587 0.2777851 0.08110601
v 0.3456719 0.2777851 0.23096941
v -0.38408816 0.2777851 0.159095
v 0.29396975 0.2777851 0.29396853
v -0.34566993 0.2777851 0.2309701
v 0.23097096 0.2777851 0.34567058
v -0.29396802 0.2777851 0.2939691
v 0.15909596 0.2777851 0.38408867
v -0.23096901 0.2777851 0.34567103
v 0.08110694 0.2777851 0.40774652
v -0.15909375 0.2777851 0.38408905
v 9.765625E-07 0.2777851 0.41573483
v -0.08110474 0.2777851 0.40774667
v 0.13530006 0.35355335 0.32664052
v 0.068976074 0.35355335 0.3467599
v 9.765625E-07 0.35355335 0.35355335
v -0.06897388 0.35355335 0.34676
v -0.1352981 0.35355335 0.3266408
v -0.19642286 0.35355335 0.293969
v 0.19642481 0.35355335 0.29396865
v -0.24999928 0.35355335 0.25000012
v 0.25000075 0.35355335 0.24999964
v -0.29396802 0.35355335 0.1964239
v 0.29396975 0.35355335 0.19642332
v -0.32664016 0.35355335 0.13529918
v 0.32664138 0.35355335 0.13529854
v -0.3467593 0.35355335 0.06897498
v 0.3467605 0.35355335 0.06897431
v -0.35355276 0.35355335 1.13010415E-07
v 0.35355398 0.35355335 -5.6982043E-07
v -0.3467593 0.35355335 -0.06897475
v 0.3467605 0.35355335 -0.06897542
v -0.32664016 0.35355335 -0.13529895
v 0.32664114 0.35355335 -0.13529958
v -0.2939683 0.35355335 -0.19642371
v 0.293969 0.35355335 -0.19642428
v -0.24999928 0.35355335 -0.24999999
v 0.25000027 0.35355335 -0.25000048
v -0.19642286 0.35355335 -0.2939689
v 0.19642359 0.35355335 -0.29396924
v -0.13529834 0.35355335 -0.32664075
v 0.13529907 0.35355335 -0.326641
v -0.06897412 0.35355335 -0.34675995
v 0.06897486 0.35355335 -0.3467601
v 7.324219E-07 0.35355335 -0.35355335
v 0.19642408 0.4157348 -0.19642411
v 0.15432936 0.4157348 -0.23097019
v 0.106303714 0.4157348 -0.2566402
v 0.054193363 0.4157348 -0.27244768
v 7.324219E-07 0.4157348 -0.27778512
v -0.05419263 0.4157348 -0.27244753
v 0.23097047 0.4157348 -0.15432957
v -0.106302984 0.4157348 -0.25664
v 0.2566404 0.4157348 -0.10630422
v -0.15432838 0.4157348 -0.23096989
v 0.27244824 0.4157348 -0.05419365
v -0.19642286 0.4157348 -0.19642372
v 0.27778566 0.4157348 -4.4798853E-07
v -0.23096925 0.4157348 -0.15432912
v 0.27244824 0.4157348 0.054192767
v -0.25663942 0.4157348 -0.106303714
v 0.25664064 0.4157348 0.10630339
v -0.27244678 0.4157348 -0.05419312
v 0.23097071 0.4157348 0.15432882
v -0.27778444 0.4157348 8.84533E-08
v 0.19642457 0.4157348 0.19642347
v -0.27244678 0.4157348 0.054193296
v 0.15433009 0.4157348 0.2309697
v -0.25663942 0.4157348 0.10630388
v 0.10630469 0.4157348 0.25663984
v -0.23096901 0.4157348 0.15432927
v 0.054194093 0.4157348 0.2724475
v -0.19642286 0.4157348 0.19642387
v 9.765625E-07 0.4157348 0.27778512
v -0.15432838 0.4157348 0.23097
v -0.054192387 0.4157348 0.2724476
v -0.10630274 0.4157348 0.25664005
v 0.037329834 0.46193975 0.18766509
v 9.765625E-07 0.46193975 0.1913417
v -0.037328128 0.46193975 0.18766516
v -0.07322241 0.46193975 0.17677674
v -0.106302984 0.46193975 0.15909488
v -0.13529834 0.46193975 0.13529912
v 0.07322413 0.46193975 0.1767766
v -0.159094 0.46193975 0.10630385
v 0.10630469 0.46193975 0.15909469
v -0.17677613 0.46193975 0.07322338
v 0.13529982 0.46193975 0.13529885
v -0.18766455 0.46193975 0.03732899
v 0.15909547 0.46193975 0.10630354
v -0.19134083 0.46193975 6.008148E-08
v 0.17677735 0.46193975 0.07322304
v -0.18766455 0.46193975 -0.037328873
v 0.18766578 0.46193975 0.037328623
v -0.17677613 0.46193975 -0.07322327
v 0.1913423 0.46193975 -3.0946734E-07
v -0.15909424 0.46193975 -0.10630375
v 0.18766578 0.46193975 -0.037329238
v -0.13529834 0.46193975 -0.13529901
v 0.17677711 0.46193975 -0.07322361
v -0.106302984 0.46193975 -0.15909483
v 0.15909523 0.46193975 -0.10630405
v -0.073222905 0.46193975 -0.17677669
v 0.13529932 0.46193975 -0.13529928
v -0.03732837 0.46193975 -0.1876651
v 0.106304206 0.46193975 -0.15909503
v 7.324219E-07 0.46193975 -0.19134171
v 0.07322339 0.46193975 -0.17677684
v 0.037329104 0.46193975 -0.18766521
v 0.08110621 0.49039263 -0.05419334
v 0.068975344 0.49039263 -0.06897497
v 7.324219E-07 0.49999997 -2.1457673E-09
v 0.090120606 0.49039263 -0.037329074
v 0.054193605 0.49039263 -0.08110594
v 0.09567139 0.49039263 -0.019030279
v 0.037329346 0.49039263 -0.090120055
v 0.09754566 0.49039263 -1.590252E-07
v 0.019030519 0.49039263 -0.0956709
v 0.09567139 0.49039263 0.019029966
v 7.324219E-07 0.49039263 -0.097545154
v 0.090120606 0.49039263 0.03732878
v -0.019029543 0.49039263 -0.09567085
v 0.08110669 0.49039263 0.054193072
v -0.03732837 0.49039263 -0.09011999
v 0.06897559 0.49039263 0.06897475
v -0.05419263 0.49039263 -0.081105836
v 0.05419385 0.49039263 0.081105754
v -0.06897412 0.49039263 -0.06897483
v 0.03732959 0.49039263 0.09011992
v -0.081105225 0.49039263 -0.05419318
v 0.019030763 0.49039263 0.095670834
v -0.090119146 0.49039263 -0.0373289
v 7.324219E-07 0.49039263 0.09754515
v -0.09567017 0.49039263 -0.019030094
v -0.019029543 0.49039263 0.09567086
v -0.09754444 0.49039263 2.9563905E-08
v -0.03732837 0.49039263 0.09012
v -0.09567017 0.49039263 0.019030152
v -0.05419263 0.49039263 0.08110586
v -0.090119146 0.49039263 0.037328955
v -0.06897412 0.49039263 0.06897489
v -0.08110499 0.49039263 0.05419323
v 7.324219E-07 3.774895E-08 -0.49999997
v -0.09754444 3.774895E-08 -0.49039263
v -0.09567017 -0.0975451 -0.48096988
v 7.324219E-07 -0.0975451 -0.49039266
v 0.09754492 3.774895E-08 -0.49039283
v -0.18766455 -0.0975451 -0.45306376
v -0.19134083 3.774895E-08 -0.46193975
v 0.095670655 -0.0975451 -0.48097008
v 0.19134131 3.774895E-08 -0.46194014
v -0.27244678 -0.0975451 -0.4077466
v -0.27778444 3.774895E-08 -0.41573483
v 0.1876648 -0.0975451 -0.4530641
v 0.2777849 3.774895E-08 -0.41573533
v -0.3467593 -0.0975451 -0.34675997
v -0.35355276 3.774895E-08 -0.35355335
v 0.2724473 -0.0975451 -0.40774715
v 0.35355324 3.774895E-08 -0.35355407
v -0.4077461 -0.0975451 -0.27244753
v -0.41573438 3.774895E-08 -0.2777851
v 0.34676003 -0.0975451 -0.34676063
v 0.4157349 3.774895E-08 -0.27778587
v -0.45306325 -0.0975451 -0.18766506
v -0.46193898 3.774895E-08 -0.19134164
v 0.40774685 -0.0975451 -0.2724483
v 0.46193996 3.774895E-08 -0.1913425
v -0.48096925 -0.0975451 -0.095670745
v -0.49039188 3.774895E-08 -0.09754504
v 0.453064 -0.0975451 -0.18766594
v 0.4903931 3.774895E-08 -0.09754599
v -0.49039188 -0.0975451 1.5759468E-07
v -0.49999928 3.774895E-08 1.6069413E-07
v 0.48097047 -0.0975451 -0.095671676
v 0.50000054 3.774895E-08 -8.0490116E-07
v -0.48096925 -0.0975451 0.09567106
v -0.49039188 3.774895E-08 0.097545356
v 0.4903931 -0.0975451 -7.896424E-07
v 0.49039358 3.774895E-08 0.0975444
v -0.453063 -0.0975451 0.18766534
v -0.46193898 3.774895E-08 0.1913419
v 0.48097047 -0.0975451 0.09567012
v 0.4619407 3.774895E-08 0.19134104
v -0.40774587 -0.0975451 0.2724478
v -0.4157339 3.774895E-08 0.27778536
v 0.4530647 -0.0975451 0.18766448
v 0.41573587 3.774895E-08 0.27778453
v -0.3467593 -0.0975451 0.3467602
v -0.35355252 3.774895E-08 0.3535536
v 0.40774757 -0.0975451 0.272447
v 0.35355446 3.774895E-08 0.35355294
v -0.27244654 -0.0975451 0.40774676
v -0.2777842 3.774895E-08 0.415735
v 0.346761 -0.0975451 0.3467595
v 0.2777864 3.774895E-08 0.41573444
v -0.18766408 -0.0975451 0.45306388
v -0.19134058 3.774895E-08 0.46193993
v 0.27244875 -0.0975451 0.40774626
v 0.19134279 3.774895E-08 0.4619395
v -0.095669925 -0.0975451 0.48096994
v -0.09754419 3.774895E-08 0.49039268
v 0.1876665 -0.0975451 0.45306352
v 0.097546145 3.774895E-08 0.4903925
v 1.2207032E-06 -0.0975451 0.49039266
v 1.2207032E-06 3.774895E-08 0.49999997
v 0.09567188 -0.0975451 0.48096982
v -0.17677589 -0.19134164 0.42677686
v -0.0901189 -0.19134164 0.4530638
v 1.2207032E-06 -0.19134164 0.46193975
v 0.0901211 -0.19134164 0.4530636
v 0.17677784 -0.19134164 0.42677647
v 0.25664112 -0.19134164 0.38408858
v -0.25663918 -0.19134164 0.38408908
v 0.32664162 -0.19134164 0.32664034
v -0.32663992 -0.19134164 0.32664093
v 0.38408962 -0.19134164 0.25663945
v -0.38408816 -0.19134164 0.2566402
v 0.4267776 -0.19134164 0.17677605
v -0.4267759 -0.19134164 0.17677689
v 0.45306447 -0.19134164 0.09011927
v -0.453063 -0.19134164 0.09012016
v 0.46194044 -0.19134164 -7.436276E-07
v -0.46193898 -0.19134164 1.4829637E-07
v 0.45306423 -0.19134164 -0.09012075
v -0.453063 -0.19134164 -0.09011987
v 0.4267769 -0.19134164 -0.17677745
v -0.4267759 -0.19134164 -0.17677662
v 0.38408887 -0.19134164 -0.2566407
v -0.38408816 -0.19134164 -0.25663996
v 0.32664087 -0.19134164 -0.32664138
v -0.32664016 -0.19134164 -0.32664075
v 0.25663966 -0.19134164 -0.38408938
v -0.25663942 -0.19134164 -0.38408887
v 0.17677662 -0.19134164 -0.4267771
v -0.17677613 -0.19134164 -0.42677674
v 0.09011963 -0.19134164 -0.45306396
v -0.090119146 -0.19134164 -0.45306373
v 7.324219E-07 -0.19134164 -0.46193975
v -0.2939683 -0.2777851 -0.2939689
v -0.23096925 -0.2777851 -0.34567085
v -0.159094 -0.2777851 -0.38408887
v -0.081105225 -0.2777851 -0.40774655
v 7.324219E-07 -0.2777851 -0.41573483
v 0.08110547 -0.2777851 -0.40774676
v -0.3456702 -0.2777851 -0.23096988
v 0.15909474 -0.2777851 -0.38408923
v -0.38408816 -0.2777851 -0.15909478
v 0.23096974 -0.2777851 -0.34567133
v -0.4077461 -0.2777851 -0.08110574
v 0.293969 -0.2777851 -0.29396945
v -0.41573438 -0.2777851 1.3327599E-07
v 0.3456709 -0.2777851 -0.23097055
v -0.40774587 -0.2777851 0.08110601
v 0.38408914 -0.2777851 -0.1590955
v -0.38408816 -0.2777851 0.159095
v 0.4077471 -0.2777851 -0.08110653
v -0.34566993 -0.2777851 0.2309701
v 0.4157356 -0.2777851 -6.697178E-07
v -0.29396802 -0.2777851 0.2939691
v 0.40774733 -0.2777851 0.0811052
v -0.23096901 -0.2777851 0.34567103
v 0.38408962 -0.2777851 0.15909426
v -0.15909375 -0.2777851 0.38408905
v 0.3456719 -0.2777851 0.23096941
v -0.08110474 -0.2777851 0.40774667
v 0.29396975 -0.2777851 0.29396853
v 9.765625E-07 -0.2777851 0.41573483
v 0.23097096 -0.2777851 0.34567058
v 0.08110694 -0.2777851 0.40774652
v 0.15909596 -0.2777851 0.38408867
v -0.06897388 -0.35355335 0.34676
v 9.765625E-07 -0.35355335 0.35355335
v 0.068976074 -0.35355335 0.3467599
v 0.13530006 -0.35355335 0.32664052
v 0.19642481 -0.35355335 0.29396865
v 0.25000075 -0.35355335 0.24999964
v -0.1352981 -0.35355335 0.3266408
v 0.29396975 -0.35355335 0.19642332
v -0.19642286 -0.35355335 0.293969
v 0.32664138 -0.35355335 0.13529854
v -0.24999928 -0.35355335 0.25000012
v 0.3467605 -0.35355335 0.06897431
v -0.29396802 -0.35355335 0.1964239
v 0.35355398 -0.35355335 -5.6982043E-07
v -0.32664016 -0.35355335 0.13529918
v 0.3467605 -0.35355335 -0.06897542
v -0.3467593 -0.35355335 0.06897498
v 0.32664114 -0.35355335 -0.13529958
v -0.35355276 -0.35355335 1.13010415E-07
v 0.293969 -0.35355335 -0.19642428
v -0.3467593 -0.35355335 -0.06897475
v 0.25000027 -0.35355335 -0.25000048
v -0.32664016 -0.35355335 -0.13529895
v 0.19642359 -0.35355335 -0.29396924
v -0.2939683 -0.35355335 -0.19642371
v 0.13529907 -0.35355335 -0.326641
v -0.24999928 -0.35355335 -0.24999999
v 0.06897486 -0.35355335 -0.3467601
v -0.19642286 -0.35355335 -0.2939689
v 7.324219E-07 -0.35355335 -0.35355335
v -0.13529834 -0.35355335 -0.32664075
v -0.06897412 -0.35355335 -0.34675995
v -0.23096925 -0.41573483 -0.1543291
v -0.19642286 -0.41573483 -0.19642371
v -0.15432838 -0.41573483 -0.23096988
v -0.106302984 -0.41573483 -0.25663996
v -0.05419263 -0.41573483 -0.2724475
v 7.324219E-07 -0.41573483 -0.2777851
v -0.25663942 -0.41573483 -0.10630371
v 0.054193363 -0.41573483 -0.27244765
v -0.27244678 -0.41573483 -0.054193117
v 0.106303714 -0.41573483 -0.25664017
v -0.27778444 -0.41573483 8.84533E-08
v 0.1543291 -0.41573483 -0.23097014
v -0.27244678 -0.41573483 0.054193288
v 0.19642408 -0.41573483 -0.1964241
v -0.25663942 -0.41573483 0.10630387
v 0.23096998 -0.41573483 -0.15432955
v -0.23096901 -0.41573483 0.15432926
v 0.2566404 -0.41573483 -0.106304206
v -0.19642286 -0.41573483 0.19642384
v 0.27244824 -0.41573483 -0.05419365
v -0.15432838 -0.41573483 0.23096997
v 0.27778566 -0.41573483 -4.4798853E-07
v -0.10630274 -0.41573483 0.25664002
v 0.27244824 -0.41573483 0.05419276
v -0.054192387 -0.41573483 0.27244756
v 0.25664064 -0.41573483 0.10630338
v 9.765625E-07 -0.41573483 0.2777851
v 0.23097071 -0.41573483 0.15432881
v 0.054194093 -0.41573483 0.27244747
v 0.19642457 -0.41573483 0.19642346
v 0.10630469 -0.41573483 0.2566398
v 0.15433009 -0.41573483 0.23096967
v 9.765625E-07 -0.46193978 0.19134164
v 0.037329834 -0.46193978 0.187665
v 0.07322413 -0.46193978 0.17677653
v 0.10630469 -0.46193978 0.15909463
v 0.13529982 -0.46193978 0.13529879
v 0.15909547 -0.46193978 0.106303506
v -0.037328128 -0.46193978 0.18766509
v 0.17677735 -0.46193978 0.07322302
v -0.07322241 -0.46193978 0.17677668
v 0.18766578 -0.46193978 0.037328616
v -0.106302984 -0.46193978 0.15909483
v 0.1913423 -0.46193978 -3.0946734E-07
v -0.13529834 -0.46193978 0.13529904
v 0.18766554 -0.46193978 -0.037329223
v -0.159094 -0.46193978 0.10630382
v 0.17677711 -0.46193978 -0.07322358
v -0.17677589 -0.46193978 0.07322335
v 0.15909523 -0.46193978 -0.10630402
v -0.18766432 -0.46193978 0.037328977
v 0.13529932 -0.46193978 -0.13529924
v -0.19134083 -0.46193978 6.008148E-08
v 0.106304206 -0.46193978 -0.15909496
v -0.18766455 -0.46193978 -0.037328858
v 0.07322339 -0.46193978 -0.17677677
v -0.17677613 -0.46193978 -0.07322325
v 0.037329104 -0.46193978 -0.18766515
v -0.159094 -0.46193978 -0.10630371
v 7.324219E-07 -0.46193978 -0.19134164
v -0.13529834 -0.46193978 -0.13529895
v -0.03732837 -0.46193978 -0.18766506
v -0.106302984 -0.46193978 -0.15909478
v -0.07322241 -0.46193978 -0.17677662
v -0.090119146 -0.49039266 -0.037328858
v -0.08110499 -0.49039266 -0.054193117
v 7.324219E-07 -0.49999997 -2.1457673E-09
v -0.09567017 -0.49039266 -0.019030074
v -0.06897412 -0.49039266 -0.068974756
v -0.09754444 -0.49039266 2.9563905E-08
v -0.054192387 -0.49039266 -0.08110574
v -0.09567017 -0.49039266 0.01903013
v -0.03732837 -0.49039266 -0.09011987
v -0.090119146 -0.49039266 0.037328914
v -0.019029543 -0.49039266 -0.09567074
v -0.08110499 -0.49039266 0.05419316
v 7.324219E-07 -0.49039266 -0.09754504
v -0.06897412 -0.49039266 0.06897479
v 0.019030519 -0.49039266 -0.09567078
v -0.054192387 -0.49039266 0.081105776
v 0.037329346 -0.49039266 -0.09011994
v -0.037328128 -0.49039266 0.0901199
v 0.054193605 -0.49039266 -0.08110585
v -0.019029297 -0.49039266 0.09567076
v 0.0689751 -0.49039266 -0.0689749
v 7.324219E-07 -0.49039266 0.09754504
v 0.08110621 -0.49039266 -0.054193273
v 0.019030763 -0.49039266 0.095670715
v 0.090120606 -0.49039266 -0.037329033
v 0.03732959 -0.49039266 0.09011982
v 0.09567139 -0.49039266 -0.019030258
v 0.05419385 -0.49039266 0.08110567
v 0.09754566 -0.49039266 -1.590252E-07
v 0.068975344 -0.49039266 0.06897467
v 0.09567139 -0.49039266 0.019029945
v 0.08110669 -0.49039266 0.05419301
v 0.090120606 -0.49039266 0.03732874
vt 0.25683594 0.45043945
vt 0.21032715 0.48876953
vt 0.2565918 0.4934082
vt 0.21887207 0.44677734
vt 0.16577148 0.47509766
vt 0.29467773 0.44677734
vt 0.30297852 0.48876953
vt 0.18237305 0.43579102
vt 0.124816895 0.453125
vt 0.3310547 0.43554688
vt 0.3474121 0.4753418
vt 0.14880371 0.4177246
vt 0.08898926 0.42358398
vt 0.3647461 0.4177246
vt 0.38842773 0.45336914
vt 0.119384766 0.3935547
vt 0.059570312 0.3876953
vt 0.39404297 0.39331055
vt 0.4243164 0.42358398
vt 0.09527588 0.36401367
vt 0.037750244 0.3466797
vt 0.4182129 0.36376953
vt 0.45385742 0.3876953
vt 0.07739258 0.3305664
vt 0.024398804 0.3022461
vt 0.43603516 0.33032227
vt 0.47558594 0.3466797
vt 0.06640625 0.2939453
vt 0.020004272 0.25585938
vt 0.44702148 0.29370117
vt 0.48876953 0.3022461
vt 0.06274414 0.25610352
vt 0.02468872 0.20983887
vt 0.45043945 0.25585938
vt 0.49316406 0.25585938
vt 0.06652832 0.21838379
vt 0.038269043 0.16552734
vt 0.44677734 0.21813965
vt 0.4885254 0.20983887
vt 0.07763672 0.18200684
vt 0.06021118 0.124694824
vt 0.43554688 0.18188477
vt 0.47509766 0.16552734
vt 0.095581055 0.14855957
vt 0.089660645 0.08898926
vt 0.41748047 0.1484375
vt 0.453125 0.12475586
vt 0.11968994 0.119262695
vt 0.12548828 0.059661865
vt 0.3935547 0.119140625
vt 0.42358398 0.08905029
vt 0.14904785 0.095214844
vt 0.16638184 0.037902832
vt 0.36401367 0.09515381
vt 0.38793945 0.0597229
vt 0.18249512 0.07733154
vt 0.21057129 0.024505615
vt 0.3305664 0.07727051
vt 0.34692383 0.037963867
vt 0.21875 0.066345215
vt 0.2565918 0.020004272
vt 0.29418945 0.066345215
vt 0.30273438 0.024536133
vt 0.2565918 0.06262207
vt 0.34399414 0.125
vt 0.3166504 0.11053467
vt 0.28710938 0.10168457
vt 0.25634766 0.09869385
vt 0.22558594 0.10180664
vt 0.19604492 0.11077881
vt 0.36791992 0.14453125
vt 0.16882324 0.12536621
vt 0.38745117 0.16833496
vt 0.14501953 0.14501953
vt 0.4020996 0.19555664
vt 0.12548828 0.16882324
vt 0.4111328 0.22509766
vt 0.11090088 0.19616699
vt 0.41430664 0.25585938
vt 0.10192871 0.22570801
vt 0.41137695 0.2866211
vt 0.09887695 0.25634766
vt 0.4025879 0.31640625
vt 0.10192871 0.28735352
vt 0.3881836 0.34375
vt 0.11090088 0.31689453
vt 0.36865234 0.36767578
vt 0.12548828 0.34423828
vt 0.34472656 0.38745117
vt 0.1451416 0.36816406
vt 0.3173828 0.4020996
vt 0.16906738 0.3876953
vt 0.2878418 0.4111328
vt 0.19641113 0.40234375
vt 0.25683594 0.41430664
vt 0.22607422 0.4111328
vt 0.32714844 0.36108398
vt 0.30541992 0.37280273
vt 0.28173828 0.38012695
vt 0.25708008 0.38256836
vt 0.23242188 0.3803711
vt 0.20874023 0.37304688
vt 0.3461914 0.34521484
vt 0.18676758 0.36157227
vt 0.3618164 0.32592773
vt 0.16760254 0.34594727
vt 0.37353516 0.30419922
vt 0.15185547 0.32666016
vt 0.38061523 0.28051758
vt 0.14013672 0.30493164
vt 0.3828125 0.25585938
vt 0.13293457 0.28125
vt 0.3803711 0.23120117
vt 0.13049316 0.2565918
vt 0.37304688 0.20751953
vt 0.1328125 0.23205566
vt 0.36132812 0.18579102
vt 0.14001465 0.20837402
vt 0.34545898 0.16674805
vt 0.15161133 0.18652344
vt 0.32641602 0.15124512
vt 0.16723633 0.1673584
vt 0.30444336 0.13964844
vt 0.1862793 0.1517334
vt 0.28076172 0.13256836
vt 0.20800781 0.14001465
vt 0.25610352 0.13024902
vt 0.23168945 0.13269043
vt 0.29345703 0.16577148
vt 0.27514648 0.16027832
vt 0.25610352 0.15856934
vt 0.23706055 0.16052246
vt 0.21875 0.1661377
vt 0.2019043 0.17529297
vt 0.31054688 0.17468262
vt 0.18713379 0.1875
vt 0.32543945 0.18676758
vt 0.17504883 0.20239258
vt 0.33764648 0.20153809
vt 0.1661377 0.21936035
vt 0.34692383 0.21838379
vt 0.16064453 0.2376709
vt 0.35253906 0.23669434
vt 0.15881348 0.25683594
vt 0.3544922 0.25585938
vt 0.1607666 0.2758789
vt 0.3527832 0.27490234
vt 0.16638184 0.29418945
vt 0.34716797 0.2932129
vt 0.17553711 0.31103516
vt 0.3383789 0.31030273
vt 0.18774414 0.32592773
vt 0.32617188 0.3251953
vt 0.20263672 0.33789062
vt 0.31152344 0.33740234
vt 0.21960449 0.34692383
vt 0.29467773 0.3466797
vt 0.23803711 0.35253906
vt 0.2763672 0.35229492
vt 0.25708008 0.35424805
vt 0.30786133 0.30664062
vt 0.296875 0.31567383
vt 0.28466797 0.32250977
vt 0.27124023 0.32666016
vt 0.25708008 0.328125
vt 0.24316406 0.3269043
vt 0.3166504 0.2956543
vt 0.22961426 0.3227539
vt 0.3232422 0.28320312
vt 0.21716309 0.3161621
vt 0.32714844 0.2697754
vt 0.20617676 0.30737305
vt 0.32836914 0.25585938
vt 0.19726562 0.29663086
vt 0.3269043 0.24182129
vt 0.19055176 0.2841797
vt 0.3227539 0.22839355
vt 0.18640137 0.27075195
vt 0.31591797 0.21606445
vt 0.18493652 0.25683594
vt 0.30688477 0.2052002
vt 0.18615723 0.24279785
vt 0.29614258 0.19641113
vt 0.19018555 0.22937012
vt 0.2836914 0.18981934
vt 0.19677734 0.21691895
vt 0.27001953 0.18591309
vt 0.2055664 0.20593262
vt 0.25610352 0.18457031
vt 0.21643066 0.19689941
vt 0.2421875 0.18603516
vt 0.22875977 0.19030762
vt 0.26538086 0.20996094
vt 0.25634766 0.20922852
vt 0.24707031 0.21020508
vt 0.23828125 0.21289062
vt 0.23010254 0.21740723
vt 0.22302246 0.2232666
vt 0.27441406 0.21264648
vt 0.21716309 0.23046875
vt 0.2824707 0.21691895
vt 0.21289062 0.23864746
vt 0.28979492 0.22265625
vt 0.21032715 0.2475586
vt 0.2956543 0.22973633
vt 0.20947266 0.25683594
vt 0.30004883 0.23791504
vt 0.21044922 0.26586914
vt 0.30273438 0.2467041
vt 0.21325684 0.2746582
vt 0.30371094 0.25585938
vt 0.21765137 0.28295898
vt 0.30297852 0.26513672
vt 0.22363281 0.29003906
vt 0.30029297 0.27392578
vt 0.23083496 0.29589844
vt 0.29614258 0.28222656
vt 0.23901367 0.30004883
vt 0.2902832 0.28930664
vt 0.24780273 0.30273438
vt 0.28320312 0.29541016
vt 0.25708008 0.3034668
vt 0.27514648 0.2998047
vt 0.26635742 0.30249023
vt 0.2763672 0.26904297
vt 0.2734375 0.27270508
vt 0.2565918 0.25634766
vt 0.2783203 0.26513672
vt 0.2697754 0.27563477
vt 0.27978516 0.2607422
vt 0.26586914 0.27783203
vt 0.2800293 0.25610352
vt 0.2614746 0.27929688
vt 0.27954102 0.25146484
vt 0.25683594 0.27978516
vt 0.2783203 0.24719238
vt 0.25219727 0.27929688
vt 0.2758789 0.24316406
vt 0.2479248 0.27807617
vt 0.27294922 0.23962402
vt 0.24377441 0.2758789
vt 0.26953125 0.23669434
vt 0.24023438 0.27319336
vt 0.26538086 0.23461914
vt 0.23730469 0.26953125
vt 0.26098633 0.23327637
vt 0.23510742 0.265625
vt 0.25634766 0.23291016
vt 0.23364258 0.26123047
vt 0.25195312 0.23339844
vt 0.2331543 0.2565918
vt 0.24743652 0.23474121
vt 0.23364258 0.25195312
vt 0.2434082 0.23693848
vt 0.23486328 0.2475586
vt 0.23986816 0.23999023
vt 0.23706055 0.24353027
vt 0.2565918 0.50683594
vt 0.21020508 0.51123047
vt 0.21850586 0.55322266
vt 0.25634766 0.5498047
vt 0.30297852 0.51123047
vt 0.18200684 0.5644531
vt 0.16564941 0.52490234
vt 0.2944336 0.55322266
vt 0.3474121 0.52490234
vt 0.1484375 0.58251953
vt 0.124572754 0.546875
vt 0.33081055 0.5644531
vt 0.38842773 0.546875
vt 0.119018555 0.6069336
vt 0.08868408 0.57666016
vt 0.36450195 0.58251953
vt 0.4243164 0.57666016
vt 0.09490967 0.63623047
vt 0.059295654 0.61279297
vt 0.39404297 0.6064453
vt 0.45385742 0.6123047
vt 0.07714844 0.6699219
vt 0.03756714 0.6538086
vt 0.41796875 0.63623047
vt 0.47558594 0.6538086
vt 0.066223145 0.70654297
vt 0.024291992 0.6982422
vt 0.43603516 0.6699219
vt 0.48901367 0.6982422
vt 0.062683105 0.7441406
vt 0.020004272 0.7446289
vt 0.44702148 0.7060547
vt 0.49316406 0.7446289
vt 0.066589355 0.78222656
vt 0.024780273 0.79052734
vt 0.45043945 0.7441406
vt 0.4885254 0.79052734
vt 0.07775879 0.8183594
vt 0.03842163 0.83496094
vt 0.44677734 0.7817383
vt 0.47485352 0.83496094
vt 0.09576416 0.8515625
vt 0.060333252 0.8754883
vt 0.43554688 0.8183594
vt 0.45288086 0.8754883
vt 0.11987305 0.8808594
vt 0.089782715 0.9111328
vt 0.41748047 0.8515625
vt 0.42333984 0.9111328
vt 0.14916992 0.90478516
vt 0.12548828 0.9404297
vt 0.39331055 0.8808594
vt 0.38745117 0.9404297
vt 0.18261719 0.92285156
vt 0.16625977 0.96191406
vt 0.36401367 0.90478516
vt 0.3466797 0.96240234
vt 0.21887207 0.93359375
vt 0.21044922 0.97558594
vt 0.3305664 0.92285156
vt 0.30249023 0.97558594
vt 0.2565918 0.9375
vt 0.25634766 0.97998047
vt 0.29418945 0.93359375
vt 0.1965332 0.88964844
vt 0.22607422 0.8984375
vt 0.25683594 0.9013672
vt 0.28759766 0.8984375
vt 0.31713867 0.88916016
vt 0.34423828 0.875
vt 0.16931152 0.875
vt 0.36816406 0.85546875
vt 0.14550781 0.85546875
vt 0.3876953 0.83154297
vt 0.12573242 0.83203125
vt 0.40234375 0.8041992
vt 0.11114502 0.8046875
vt 0.41137695 0.77441406
vt 0.101989746 0.7753906
vt 0.41430664 0.74365234
vt 0.09881592 0.7446289
vt 0.41137695 0.7128906
vt 0.10168457 0.7133789
vt 0.40234375 0.68359375
vt 0.11053467 0.68408203
vt 0.3876953 0.65625
vt 0.125 0.6567383
vt 0.36816406 0.63183594
vt 0.14453125 0.6323242
vt 0.34423828 0.6123047
vt 0.16845703 0.61279297
vt 0.31689453 0.59765625
vt 0.19567871 0.59814453
vt 0.28710938 0.5888672
vt 0.2253418 0.5888672
vt 0.25634766 0.5859375
vt 0.16687012 0.65478516
vt 0.18591309 0.63916016
vt 0.20776367 0.6274414
vt 0.23144531 0.6201172
vt 0.25610352 0.6176758
vt 0.28076172 0.6196289
vt 0.15124512 0.6743164
vt 0.30444336 0.6269531
vt 0.13964844 0.69628906
vt 0.32641602 0.6386719
vt 0.13269043 0.71972656
vt 0.34570312 0.6542969
vt 0.1303711 0.7446289
vt 0.36132812 0.67333984
vt 0.13293457 0.76904297
vt 0.37304688 0.6953125
vt 0.14025879 0.79248047
vt 0.3803711 0.71875
vt 0.15197754 0.8144531
vt 0.3828125 0.74365234
vt 0.16784668 0.8334961
vt 0.3803711 0.7680664
vt 0.18688965 0.8491211
vt 0.37329102 0.7919922
vt 0.20874023 0.86035156
vt 0.36157227 0.81347656
vt 0.23242188 0.8676758
vt 0.34594727 0.8330078
vt 0.25708008 0.8701172
vt 0.3269043 0.8486328
vt 0.28149414 0.8671875
vt 0.30517578 0.86035156
vt 0.23803711 0.83984375
vt 0.25708008 0.8417969
vt 0.27612305 0.83984375
vt 0.2944336 0.8339844
vt 0.3112793 0.82470703
vt 0.32592773 0.8125
vt 0.21960449 0.83447266
vt 0.33813477 0.79785156
vt 0.20275879 0.8256836
vt 0.34716797 0.7807617
vt 0.18786621 0.81347656
vt 0.35253906 0.7626953
vt 0.17553711 0.7988281
vt 0.3544922 0.74365234
vt 0.16638184 0.7817383
vt 0.35253906 0.7241211
vt 0.1607666 0.7636719
vt 0.34692383 0.7060547
vt 0.1586914 0.7446289
vt 0.33764648 0.68896484
vt 0.16052246 0.72558594
vt 0.32543945 0.6743164
vt 0.16589355 0.70703125
vt 0.31054688 0.6621094
vt 0.17480469 0.6899414
vt 0.29370117 0.6533203
vt 0.18688965 0.6748047
vt 0.27514648 0.64746094
vt 0.20166016 0.66259766
vt 0.25610352 0.6459961
vt 0.21862793 0.6538086
vt 0.23693848 0.6479492
vt 0.1965332 0.70458984
vt 0.20544434 0.6933594
vt 0.21618652 0.6845703
vt 0.2286377 0.6777344
vt 0.24206543 0.67333984
vt 0.25610352 0.671875
vt 0.19006348 0.7167969
vt 0.27001953 0.67333984
vt 0.18603516 0.73046875
vt 0.2836914 0.6772461
vt 0.18481445 0.7446289
vt 0.29614258 0.68408203
vt 0.1862793 0.7583008
vt 0.30688477 0.6928711
vt 0.19055176 0.77197266
vt 0.31591797 0.7036133
vt 0.19726562 0.7841797
vt 0.3227539 0.7158203
vt 0.20617676 0.7949219
vt 0.3269043 0.7294922
vt 0.21716309 0.80371094
vt 0.32836914 0.74365234
vt 0.22961426 0.8105469
vt 0.3269043 0.7573242
vt 0.24304199 0.8144531
vt 0.32299805 0.7709961
vt 0.25708008 0.8154297
vt 0.31640625 0.7832031
vt 0.2709961 0.81396484
vt 0.3076172 0.7944336
vt 0.28442383 0.8100586
vt 0.296875 0.80322266
vt 0.25708008 0.7910156
vt 0.26611328 0.79003906
vt 0.27490234 0.7871094
vt 0.28320312 0.78271484
vt 0.2902832 0.77685547
vt 0.29589844 0.76953125
vt 0.24780273 0.79003906
vt 0.30029297 0.76171875
vt 0.2388916 0.78759766
vt 0.30297852 0.7524414
vt 0.23071289 0.7832031
vt 0.30371094 0.74365234
vt 0.22351074 0.77734375
vt 0.30273438 0.734375
vt 0.21765137 0.7705078
vt 0.30004883 0.72558594
vt 0.21313477 0.76220703
vt 0.2956543 0.71728516
vt 0.21044922 0.75341797
vt 0.28955078 0.7104492
vt 0.20935059 0.7441406
vt 0.2824707 0.70458984
vt 0.21020508 0.7348633
vt 0.27416992 0.7001953
vt 0.21276855 0.7260742
vt 0.26538086 0.6972656
vt 0.21704102 0.71777344
vt 0.25610352 0.69677734
vt 0.22290039 0.7109375
vt 0.24694824 0.6977539
vt 0.22998047 0.7050781
vt 0.23815918 0.7001953
vt 0.23486328 0.7348633
vt 0.23693848 0.73095703
vt 0.2565918 0.74365234
vt 0.23352051 0.7397461
vt 0.23986816 0.72753906
vt 0.2331543 0.7441406
vt 0.24328613 0.7246094
vt 0.23364258 0.74853516
vt 0.24731445 0.72216797
vt 0.23498535 0.7529297
vt 0.25170898 0.7207031
vt 0.23718262 0.75683594
vt 0.25634766 0.72021484
vt 0.2401123 0.7607422
vt 0.26098633 0.7207031
vt 0.24377441 0.7636719
vt 0.26538086 0.72216797
vt 0.24780273 0.765625
vt 0.2692871 0.7241211
vt 0.25219727 0.76708984
vt 0.27294922 0.7270508
vt 0.25683594 0.76708984
vt 0.2758789 0.73046875
vt 0.2614746 0.76660156
vt 0.27807617 0.7348633
vt 0.26586914 0.765625
vt 0.27954102 0.7392578
vt 0.2697754 0.7631836
vt 0.2800293 0.74365234
vt 0.27319336 0.7602539
vt 0.27954102 0.7480469
vt 0.27612305 0.75683594
vt 0.2783203 0.7524414
vn -7.1525574E-07 0.19396973 -0.98095703
vn -0.19506836 1.1920929E-07 -0.98095703
vn -6.556511E-07 1.1920929E-07 -1
vn -0.19140625 0.19396973 -0.96240234
vn -0.38256836 5.9604645E-08 -0.9238281
vn 0.19140625 0.19396973 -0.96240234
vn 0.19506836 5.9604645E-08 -0.98095703
vn -0.37548828 0.19396973 -0.90625
vn -0.55566406 5.9604645E-08 -0.83154297
vn 0.37548828 0.19396973 -0.90625
vn 0.38256836 1.1920929E-07 -0.9238281
vn -0.5449219 0.19396973 -0.81591797
vn -0.70703125 5.9604645E-08 -0.70703125
vn 0.5449219 0.19396973 -0.81591797
vn 0.55566406 1.1920929E-07 -0.83154297
vn -0.69384766 0.19396973 -0.69384766
vn -0.83154297 5.9604645E-08 -0.55566406
vn 0.69384766 0.19396973 -0.69384766
vn 0.70703125 5.9604645E-08 -0.70703125
vn -0.81591797 0.19396973 -0.5449219
vn -0.9238281 0 -0.38256836
vn 0.81591797 0.19396973 -0.5449219
vn 0.83154297 0 -0.55566406
vn -0.90625 0.19396973 -0.37548828
vn -0.98095703 0 -0.19506836
vn 0.90625 0.19396973 -0.37548828
vn 0.9238281 2.9802322E-07 -0.38256836
vn -0.96240234 0.19396973 -0.19140625
vn -1 0 0
vn 0.96240234 0.19396973 -0.19140625
vn 0.98095703 5.9604645E-07 -0.19506836
vn -0.98095703 0.19396973 0
vn -0.98095703 0 0.19506836
vn 0.98095703 0.19396973 -1.6093254E-06
vn 1 2.9802322E-07 -1.5497208E-06
vn -0.96240234 0.19396973 0.19140625
vn -0.9238281 5.9604645E-08 0.38256836
vn 0.96240234 0.19396973 0.19140625
vn 0.98095703 2.9802322E-07 0.19506836
vn -0.90625 0.19396973 0.37548828
vn -0.83154297 5.9604645E-08 0.55566406
vn 0.90625 0.19396973 0.37548828
vn 0.9238281 5.9604645E-07 0.38256836
vn -0.81591797 0.19396973 0.5449219
vn -0.70703125 1.1920929E-07 0.70703125
vn 0.81591797 0.19396973 0.5449219
vn 0.83154297 3.5762787E-07 0.55566406
vn -0.69384766 0.19396973 0.69384766
vn -0.55566406 1.1920929E-07 0.83154297
vn 0.69384766 0.19396973 0.69384766
vn 0.70703125 5.9604645E-08 0.70703125
vn -0.5449219 0.19396973 0.81591797
vn -0.38256836 1.1920929E-07 0.9238281
vn 0.5449219 0.19396973 0.81591797
vn 0.55566406 1.1920929E-07 0.83154297
vn -0.37548828 0.19396973 0.90625
vn -0.19506836 1.7881393E-07 0.98095703
vn 0.37548828 0.19396973 0.90625
vn 0.38256836 1.7881393E-07 0.9238281
vn -0.19140625 0.19396973 0.96240234
vn 1.0728836E-06 2.9802322E-07 1
vn 0.19140625 0.19396973 0.96240234
vn 0.19506836 2.9802322E-07 0.98095703
vn 1.0728836E-06 0.19396973 0.98095703
vn 0.5136719 0.38061523 0.76904297
vn 0.3540039 0.38061523 0.8544922
vn 0.18041992 0.38061523 0.90722656
vn 1.013279E-06 0.38061523 0.9248047
vn -0.18041992 0.38061523 0.90722656
vn -0.3540039 0.38061523 0.8544922
vn 0.6538086 0.38061523 0.6538086
vn -0.5136719 0.38061523 0.76904297
vn 0.76904297 0.38061523 0.5136719
vn -0.6538086 0.38061523 0.6538086
vn 0.8544922 0.38061523 0.3540039
vn -0.76904297 0.38061523 0.5136719
vn 0.90722656 0.38061523 0.18041992
vn -0.8544922 0.38061523 0.3540039
vn 0.9248047 0.38061523 -1.2516975E-06
vn -0.90722656 0.38061523 0.18041992
vn 0.90722656 0.38061523 -0.18041992
vn -0.9248047 0.38061523 2.9802322E-07
vn 0.8544922 0.38061523 -0.3540039
vn -0.90722656 0.38061523 -0.18041992
vn 0.76904297 0.38061523 -0.5136719
vn -0.8544922 0.38061523 -0.3540039
vn 0.6538086 0.38061523 -0.6538086
vn -0.76904297 0.38061523 -0.5136719
vn 0.5136719 0.38061523 -0.76904297
vn -0.6538086 0.38061523 -0.6538086
vn 0.3540039 0.38061523 -0.8544922
vn -0.5136719 0.38061523 -0.76904297
vn 0.18041992 0.38061523 -0.90722656
vn -0.3540039 0.38061523 -0.8544922
vn -7.1525574E-07 0.38061523 -0.9248047
vn -0.18041992 0.38061523 -0.90722656
vn 0.46289062 0.5527344 -0.6928711
vn 0.31884766 0.5527344 -0.77001953
vn 0.16259766 0.5527344 -0.8173828
vn -5.364418E-07 0.5527344 -0.8334961
vn -0.16259766 0.5527344 -0.8173828
vn -0.31884766 0.5527344 -0.77001953
vn 0.58935547 0.5527344 -0.58935547
vn -0.46289062 0.5527344 -0.6928711
vn 0.6928711 0.5527344 -0.46289062
vn -0.58935547 0.5527344 -0.58935547
vn 0.77001953 0.5527344 -0.31884766
vn -0.6928711 0.5527344 -0.46289062
vn 0.8173828 0.5527344 -0.16259766
vn -0.77001953 0.5527344 -0.31884766
vn 0.8334961 0.5527344 -9.536743E-07
vn -0.8173828 0.5527344 -0.16259766
vn 0.8173828 0.5527344 0.16259766
vn -0.8334961 0.5527344 6.556511E-07
vn 0.77001953 0.5527344 0.31884766
vn -0.8173828 0.5527344 0.16259766
vn 0.6928711 0.5527344 0.46289062
vn -0.77001953 0.5527344 0.31884766
vn 0.58935547 0.5527344 0.58935547
vn -0.6928711 0.5527344 0.46289062
vn 0.46289062 0.5527344 0.6928711
vn -0.58935547 0.5527344 0.58935547
vn 0.31884766 0.5527344 0.77001953
vn -0.46289062 0.5527344 0.6928711
vn 0.16259766 0.5527344 0.8173828
vn -0.31884766 0.5527344 0.77001953
vn 6.556511E-07 0.5527344 0.8334961
vn -0.16259766 0.5527344 0.8173828
vn 0.27172852 0.70410156 0.65625
vn 0.1385498 0.70410156 0.69628906
vn 5.364418E-07 0.70410156 0.70996094
vn -0.1385498 0.70410156 0.69628906
vn -0.27172852 0.70410156 0.65625
vn -0.39453125 0.70410156 0.59033203
vn 0.39453125 0.70410156 0.59033203
vn -0.5019531 0.70410156 0.5019531
vn 0.5019531 0.70410156 0.5019531
vn -0.59033203 0.70410156 0.39453125
vn 0.59033203 0.70410156 0.39453125
vn -0.65625 0.70410156 0.27172852
vn 0.65625 0.70410156 0.27172852
vn -0.69628906 0.70410156 0.1385498
vn 0.69628906 0.70410156 0.1385498
vn -0.70996094 0.70410156 3.5762787E-07
vn 0.70996094 0.70410156 -3.5762787E-07
vn -0.69628906 0.70410156 -0.1385498
vn 0.69628906 0.70410156 -0.1385498
vn -0.65625 0.70410156 -0.27172852
vn 0.65625 0.70410156 -0.27172852
vn -0.59033203 0.70410156 -0.39453125
vn 0.59033203 0.70410156 -0.39453125
vn -0.5019531 0.70410156 -0.5019531
vn 0.5019531 0.70410156 -0.5019531
vn -0.39453125 0.70410156 -0.59033203
vn 0.39453125 0.70410156 -0.59033203
vn -0.27172852 0.70410156 -0.65625
vn 0.27172852 0.70410156 -0.65625
vn -0.1385498 0.70410156 -0.69628906
vn 0.1385498 0.70410156 -0.69628906
vn -4.172325E-07 0.70410156 -0.70996094
vn 0.39575195 0.8286133 -0.39575195
vn 0.31103516 0.8286133 -0.46533203
vn 0.2142334 0.8286133 -0.51708984
vn 0.109191895 0.8286133 -0.5488281
vn -3.5762787E-07 0.8286133 -0.5595703
vn -0.109191895 0.8286133 -0.5488281
vn 0.46533203 0.8286133 -0.31103516
vn -0.2142334 0.8286133 -0.51708984
vn 0.51708984 0.8286133 -0.2142334
vn -0.31103516 0.8286133 -0.46533203
vn 0.5488281 0.8286133 -0.109191895
vn -0.39575195 0.8286133 -0.39575195
vn 0.5595703 0.8286133 0
vn -0.46533203 0.8286133 -0.31103516
vn 0.5488281 0.8286133 0.109191895
vn -0.51708984 0.8286133 -0.2142334
vn 0.51708984 0.8286133 0.2142334
vn -0.5488281 0.8286133 -0.109191895
vn 0.46533203 0.8286133 0.31103516
vn -0.5595703 0.8286133 0
vn 0.39575195 0.8286133 0.39575195
vn -0.5488281 0.8286133 0.109191895
vn 0.31103516 0.8286133 0.46533203
vn -0.51708984 0.8286133 0.2142334
vn 0.2142334 0.8286133 0.51708984
vn -0.46533203 0.8286133 0.31103516
vn 0.109191895 0.8286133 0.5488281
vn -0.39575195 0.8286133 0.39575195
vn 5.364418E-07 0.8286133 0.5595703
vn -0.31103516 0.8286133 0.46533203
vn -0.109191895 0.8286133 0.5488281
vn -0.2142334 0.8286133 0.51708984
vn 0.075683594 0.921875 0.3803711
vn 5.364418E-07 0.921875 0.38793945
vn -0.075683594 0.921875 0.3803711
vn -0.1484375 0.921875 0.35839844
vn -0.2154541 0.921875 0.32250977
vn -0.27416992 0.921875 0.27416992
vn 0.1484375 0.921875 0.35839844
vn -0.32250977 0.921875 0.2154541
vn 0.2154541 0.921875 0.32250977
vn -0.35839844 0.921875 0.1484375
vn 0.27416992 0.921875 0.27416992
vn -0.3803711 0.921875 0.075683594
vn 0.32250977 0.921875 0.2154541
vn -0.38793945 0.921875 0
vn 0.35839844 0.921875 0.1484375
vn -0.3803711 0.921875 -0.075683594
vn 0.3803711 0.921875 0.075683594
vn -0.35839844 0.921875 -0.1484375
vn 0.38793945 0.921875 0
vn -0.32250977 0.921875 -0.2154541
vn 0.3803711 0.921875 -0.075683594
vn -0.27416992 0.921875 -0.27416992
vn 0.35839844 0.921875 -0.1484375
vn -0.2154541 0.921875 -0.32250977
vn 0.32250977 0.921875 -0.2154541
vn -0.1484375 0.921875 -0.35839844
vn 0.27416992 0.921875 -0.27416992
vn -0.075683594 0.921875 -0.3803711
vn 0.2154541 0.921875 -0.32250977
vn -1.7881393E-07 0.921875 -0.38793945
vn 0.1484375 0.921875 -0.35839844
vn 0.075683594 0.921875 -0.3803711
vn 0.16711426 0.9794922 -0.1116333
vn 0.14208984 0.9794922 -0.14208984
vn 1.1920929E-07 1 5.9604645E-08
vn 0.18566895 0.9794922 -0.0769043
vn 0.1116333 0.9794922 -0.16711426
vn 0.19714355 0.9794922 -0.039215088
vn 0.0769043 0.9794922 -0.18566895
vn 0.20092773 0.9794922 0
vn 0.039215088 0.9794922 -0.19714355
vn 0.19714355 0.9794922 0.039215088
vn -5.9604645E-08 0.9794922 -0.20092773
vn 0.18566895 0.9794922 0.0769043
vn -0.039215088 0.9794922 -0.19714355
vn 0.16711426 0.9794922 0.1116333
vn -0.0769043 0.9794922 -0.18566895
vn 0.14208984 0.9794922 0.14208984
vn -0.1116333 0.9794922 -0.16711426
vn 0.1116333 0.9794922 0.16711426
vn -0.14208984 0.9794922 -0.14208984
vn 0.0769043 0.9794922 0.18566895
vn -0.16711426 0.9794922 -0.1116333
vn 0.039215088 0.9794922 0.19714355
vn -0.18566895 0.9794922 -0.0769043
vn 2.3841858E-07 0.9794922 0.20092773
vn -0.19714355 0.9794922 -0.039215088
vn -0.039215088 0.9794922 0.19714355
vn -0.20092773 0.9794922 0
vn -0.0769043 0.9794922 0.18566895
vn -0.19714355 0.9794922 0.039215088
vn -0.1116333 0.9794922 0.16711426
vn -0.18566895 0.9794922 0.0769043
vn -0.14208984 0.9794922 0.14208984
vn -0.16711426 0.9794922 0.1116333
vn -6.556511E-07 1.1920929E-07 -1
vn -0.19506836 1.1920929E-07 -0.98095703
vn -0.19140625 -0.19396973 -0.96240234
vn -6.556511E-07 -0.19396973 -0.98095703
vn 0.19506836 5.9604645E-08 -0.98095703
vn -0.37548828 -0.19396973 -0.90625
vn -0.38256836 5.9604645E-08 -0.9238281
vn 0.19140625 -0.19396973 -0.96240234
vn 0.38256836 1.1920929E-07 -0.9238281
vn -0.5449219 -0.19396973 -0.81591797
vn -0.55566406 5.9604645E-08 -0.83154297
vn 0.37548828 -0.19396973 -0.90625
vn 0.55566406 1.1920929E-07 -0.83154297
vn -0.69384766 -0.19396973 -0.69384766
vn -0.70703125 5.9604645E-08 -0.70703125
vn 0.5449219 -0.19396973 -0.81591797
vn 0.70703125 5.9604645E-08 -0.70703125
vn -0.81591797 -0.19396973 -0.5449219
vn -0.83154297 5.9604645E-08 -0.55566406
vn 0.69384766 -0.19396973 -0.69384766
vn 0.83154297 0 -0.55566406
vn -0.90625 -0.19396973 -0.37548828
vn -0.9238281 0 -0.38256836
vn 0.81591797 -0.19396973 -0.5449219
vn 0.9238281 2.9802322E-07 -0.38256836
vn -0.96240234 -0.19396973 -0.19140625
vn -0.98095703 0 -0.19506836
vn 0.90625 -0.19396973 -0.37548828
vn 0.98095703 5.9604645E-07 -0.19506836
vn -0.98095703 -0.19396973 0
vn -1 0 0
vn 0.96240234 -0.19396973 -0.19140625
vn 1 2.9802322E-07 -1.5497208E-06
vn -0.96240234 -0.19396973 0.19140625
vn -0.98095703 0 0.19506836
vn 0.98095703 -0.19396973 -9.536743E-07
vn 0.98095703 2.9802322E-07 0.19506836
vn -0.90625 -0.19396973 0.37548828
vn -0.9238281 5.9604645E-08 0.38256836
vn 0.96240234 -0.19396973 0.19140625
vn 0.9238281 5.9604645E-07 0.38256836
vn -0.81591797 -0.19396973 0.5449219
vn -0.83154297 5.9604645E-08 0.55566406
vn 0.90625 -0.19396973 0.37548828
vn 0.83154297 3.5762787E-07 0.55566406
vn -0.69384766 -0.19396973 0.69384766
vn -0.70703125 1.1920929E-07 0.70703125
vn 0.81591797 -0.19396973 0.5449219
vn 0.70703125 5.9604645E-08 0.70703125
vn -0.5449219 -0.19396973 0.81591797
vn -0.55566406 1.1920929E-07 0.83154297
vn 0.69384766 -0.19396973 0.69384766
vn 0.55566406 1.1920929E-07 0.83154297
vn -0.37548828 -0.19396973 0.90625
vn -0.38256836 1.1920929E-07 0.9238281
vn 0.5449219 -0.19396973 0.81591797
vn 0.38256836 1.7881393E-07 0.9238281
vn -0.19140625 -0.19396973 0.96240234
vn -0.19506836 1.7881393E-07 0.98095703
vn 0.37548828 -0.19396973 0.90625
vn 0.19506836 2.9802322E-07 0.98095703
vn 9.536743E-07 -0.19396973 0.98095703
vn 1.0728836E-06 2.9802322E-07 1
vn 0.19140625 -0.19396973 0.96240234
vn -0.3540039 -0.38061523 0.8544922
vn -0.18041992 -0.38061523 0.90722656
vn 8.940697E-07 -0.38061523 0.9248047
vn 0.18041992 -0.38061523 0.90722656
vn 0.3540039 -0.38061523 0.8544922
vn 0.5136719 -0.38061523 0.76904297
vn -0.5136719 -0.38061523 0.76904297
vn 0.6538086 -0.38061523 0.6538086
vn -0.6538086 -0.38061523 0.6538086
vn 0.76904297 -0.38061523 0.5136719
vn -0.76904297 -0.38061523 0.5136719
vn 0.8544922 -0.38061523 0.3540039
vn -0.8544922 -0.38061523 0.3540039
vn 0.90722656 -0.38061523 0.18041992
vn -0.90722656 -0.38061523 0.18041992
vn 0.9248047 -0.38061523 -9.536743E-07
vn -0.9248047 -0.38061523 2.9802322E-07
vn 0.90722656 -0.38061523 -0.18041992
vn -0.90722656 -0.38061523 -0.18041992
vn 0.8544922 -0.38061523 -0.3540039
vn -0.8544922 -0.38061523 -0.3540039
vn 0.76904297 -0.38061523 -0.5136719
vn -0.76904297 -0.38061523 -0.5136719
vn 0.6538086 -0.38061523 -0.6538086
vn -0.6538086 -0.38061523 -0.6538086
vn 0.5136719 -0.38061523 -0.76904297
vn -0.5136719 -0.38061523 -0.76904297
vn 0.3540039 -0.38061523 -0.8544922
vn -0.3540039 -0.38061523 -0.8544922
vn 0.18041992 -0.38061523 -0.90722656
vn -0.18041992 -0.38061523 -0.90722656
vn -6.556511E-07 -0.38061523 -0.9248047
vn -0.58935547 -0.5527344 -0.58935547
vn -0.46289062 -0.5527344 -0.6928711
vn -0.31884766 -0.5527344 -0.77001953
vn -0.16259766 -0.5527344 -0.8173828
vn -5.364418E-07 -0.5527344 -0.8334961
vn 0.16259766 -0.5527344 -0.8173828
vn -0.6928711 -0.5527344 -0.46289062
vn 0.31884766 -0.5527344 -0.77001953
vn -0.77001953 -0.5527344 -0.31884766
vn 0.46289062 -0.5527344 -0.6928711
vn -0.8173828 -0.5527344 -0.16259766
vn 0.58935547 -0.5527344 -0.58935547
vn -0.8334961 -0.5527344 6.556511E-07
vn 0.6928711 -0.5527344 -0.46289062
vn -0.8173828 -0.5527344 0.16259766
vn 0.77001953 -0.5527344 -0.31884766
vn -0.77001953 -0.5527344 0.31884766
vn 0.8173828 -0.5527344 -0.16259766
vn -0.6928711 -0.5527344 0.46289062
vn 0.8334961 -0.5527344 -9.536743E-07
vn -0.58935547 -0.5527344 0.58935547
vn 0.8173828 -0.5527344 0.16259766
vn -0.46289062 -0.5527344 0.6928711
vn 0.77001953 -0.5527344 0.31884766
vn -0.31884766 -0.5527344 0.77001953
vn 0.6928711 -0.5527344 0.46289062
vn -0.16259766 -0.5527344 0.8173828
vn 0.58935547 -0.5527344 0.58935547
vn 5.9604645E-07 -0.5527344 0.8334961
vn 0.46289062 -0.5527344 0.6928711
vn 0.16259766 -0.5527344 0.8173828
vn 0.31884766 -0.5527344 0.77001953
vn -0.1385498 -0.70410156 0.69628906
vn 5.9604645E-07 -0.70410156 0.70996094
vn 0.1385498 -0.70410156 0.69628906
vn 0.27172852 -0.70410156 0.65625
vn 0.39453125 -0.70410156 0.59033203
vn 0.5019531 -0.70410156 0.5019531
vn -0.27172852 -0.70410156 0.65625
vn 0.59033203 -0.70410156 0.39453125
vn -0.39453125 -0.70410156 0.59033203
vn 0.65625 -0.70410156 0.27172852
vn -0.5019531 -0.70410156 0.5019531
vn 0.69628906 -0.70410156 0.1385498
vn -0.59033203 -0.70410156 0.39453125
vn 0.70996094 -0.70410156 -3.5762787E-07
vn -0.65625 -0.70410156 0.27172852
vn 0.69628906 -0.70410156 -0.1385498
vn -0.69628906 -0.70410156 0.1385498
vn 0.65625 -0.70410156 -0.27172852
vn -0.70996094 -0.70410156 3.5762787E-07
vn 0.59033203 -0.70410156 -0.39453125
vn -0.69628906 -0.70410156 -0.1385498
vn 0.5019531 -0.70410156 -0.5019531
vn -0.65625 -0.70410156 -0.27172852
vn 0.39453125 -0.70410156 -0.59033203
vn -0.59033203 -0.70410156 -0.39453125
vn 0.27172852 -0.70410156 -0.65625
vn -0.5019531 -0.70410156 -0.5019531
vn 0.1385498 -0.70410156 -0.69628906
vn -0.39453125 -0.70410156 -0.59033203
vn -4.172325E-07 -0.70410156 -0.70996094
vn -0.27172852 -0.70410156 -0.65625
vn -0.1385498 -0.70410156 -0.69628906
vn -0.46533203 -0.8286133 -0.31103516
vn -0.39575195 -0.8286133 -0.39575195
vn -0.31103516 -0.8286133 -0.46533203
vn -0.2142334 -0.8286133 -0.51708984
vn -0.109191895 -0.8286133 -0.5488281
vn -2.9802322E-07 -0.8286133 -0.5595703
vn -0.51708984 -0.8286133 -0.2142334
vn 0.109191895 -0.8286133 -0.5488281
vn -0.5488281 -0.8286133 -0.109191895
vn 0.2142334 -0.8286133 -0.51708984
vn -0.5595703 -0.8286133 2.9802322E-07
vn 0.31103516 -0.8286133 -0.46533203
vn -0.5488281 -0.8286133 0.109191895
vn 0.39575195 -0.8286133 -0.39575195
vn -0.51708984 -0.8286133 0.2142334
vn 0.46533203 -0.8286133 -0.31103516
vn -0.46533203 -0.8286133 0.31103516
vn 0.51708984 -0.8286133 -0.2142334
vn -0.39575195 -0.8286133 0.39575195
vn 0.5488281 -0.8286133 -0.109191895
vn -0.31103516 -0.8286133 0.46533203
vn 0.5595703 -0.8286133 -2.9802322E-07
vn -0.2142334 -0.8286133 0.51708984
vn 0.5488281 -0.8286133 0.109191895
vn -0.109191895 -0.8286133 0.5488281
vn 0.51708984 -0.8286133 0.2142334
vn 5.9604645E-07 -0.8286133 0.5595703
vn 0.46533203 -0.8286133 0.31103516
vn 0.109191895 -0.8286133 0.5488281
vn 0.39575195 -0.8286133 0.39575195
vn 0.2142334 -0.8286133 0.51708984
vn 0.31103516 -0.8286133 0.46533203
vn 5.364418E-07 -0.921875 0.38793945
vn 0.075683594 -0.921875 0.3803711
vn 0.1484375 -0.921875 0.35839844
vn 0.2154541 -0.921875 0.32250977
vn 0.27416992 -0.921875 0.27416992
vn 0.32250977 -0.921875 0.2154541
vn -0.075683594 -0.921875 0.3803711
vn 0.35839844 -0.921875 0.1484375
vn -0.1484375 -0.921875 0.35839844
vn 0.3803711 -0.921875 0.075683594
vn -0.2154541 -0.921875 0.32250977
vn 0.38793945 -0.921875 -5.9604645E-07
vn -0.27416992 -0.921875 0.27416992
vn 0.3803711 -0.921875 -0.075683594
vn -0.32250977 -0.921875 0.2154541
vn 0.35839844 -0.921875 -0.1484375
vn -0.35839844 -0.921875 0.1484375
vn 0.32250977 -0.921875 -0.2154541
vn -0.3803711 -0.921875 0.075683594
vn 0.27416992 -0.921875 -0.27416992
vn -0.38793945 -0.921875 6.556511E-07
vn 0.2154541 -0.921875 -0.32250977
vn -0.3803711 -0.921875 -0.075683594
vn 0.1484375 -0.921875 -0.35839844
vn -0.35839844 -0.921875 -0.1484375
vn 0.075683594 -0.921875 -0.3803711
vn -0.32250977 -0.921875 -0.2154541
vn -1.1920929E-07 -0.921875 -0.38793945
vn -0.27416992 -0.921875 -0.27416992
vn -0.075683594 -0.921875 -0.3803711
vn -0.2154541 -0.921875 -0.32250977
vn -0.1484375 -0.921875 -0.35839844
vn -0.18566895 -0.9794922 -0.0769043
vn -0.16711426 -0.9794922 -0.1116333
vn 5.9604645E-08 -1 0
vn -0.19714355 -0.9794922 -0.039215088
vn -0.14208984 -0.9794922 -0.14208984
vn -0.20092773 -0.9794922 3.5762787E-07
vn -0.1116333 -0.9794922 -0.16711426
vn -0.19714355 -0.9794922 0.039215088
vn -0.0769043 -0.9794922 -0.18566895
vn -0.18566895 -0.9794922 0.0769043
vn -0.039215088 -0.9794922 -0.19714355
vn -0.16711426 -0.9794922 0.1116333
vn -0 -0.9794922 -0.20092773
vn -0.14208984 -0.9794922 0.14208984
vn 0.039215088 -0.9794922 -0.19714355
vn -0.1116333 -0.9794922 0.16711426
vn 0.0769043 -0.9794922 -0.18566895
vn -0.0769043 -0.9794922 0.18566895
vn 0.1116333 -0.9794922 -0.16711426
vn -0.039215088 -0.9794922 0.19714355
vn 0.14208984 -0.9794922 -0.14208984
vn 2.3841858E-07 -0.9794922 0.20092773
vn 0.16711426 -0.9794922 -0.1116333
vn 0.039215088 -0.9794922 0.19714355
vn 0.18566895 -0.9794922 -0.0769043
vn 0.0769043 -0.9794922 0.18566895
vn 0.19714355 -0.9794922 -0.039215088
vn 0.1116333 -0.9794922 0.16711426
vn 0.20092773 -0.9794922 -3.5762787E-07
vn 0.14208984 -0.9794922 0.14208984
vn 0.19714355 -0.9794922 0.039215088
vn 0.16711426 -0.9794922 0.1116333
vn 0.18566895 -0.9794922 0.0769043
g EyeBall_0
f 3/3/3 2/2/2 1/1/1
f 2/2/2 4/4/4 1/1/1
f 2/2/2 5/5/5 4/4/4
f 3/3/3 1/1/1 6/6/6
f 7/7/7 3/3/3 6/6/6
f 5/5/5 8/8/8 4/4/4
f 5/5/5 9/9/9 8/8/8
f 7/7/7 6/6/6 10/10/10
f 11/11/11 7/7/7 10/10/10
f 9/9/9 12/12/12 8/8/8
f 9/9/9 13/13/13 12/12/12
f 11/11/11 10/10/10 14/14/14
f 15/15/15 11/11/11 14/14/14
f 13/13/13 16/16/16 12/12/12
f 13/13/13 17/17/17 16/16/16
f 15/15/15 14/14/14 18/18/18
f 19/19/19 15/15/15 18/18/18
f 17/17/17 20/20/20 16/16/16
f 17/17/17 21/21/21 20/20/20
f 19/19/19 18/18/18 22/22/22
f 23/23/23 19/19/19 22/22/22
f 21/21/21 24/24/24 20/20/20
f 21/21/21 25/25/25 24/24/24
f 23/23/23 22/22/22 26/26/26
f 27/27/27 23/23/23 26/26/26
f 25/25/25 28/28/28 24/24/24
f 25/25/25 29/29/29 28/28/28
f 27/27/27 26/26/26 30/30/30
f 31/31/31 27/27/27 30/30/30
f 29/29/29 32/32/32 28/28/28
f 29/29/29 33/33/33 32/32/32
f 31/31/31 30/30/30 34/34/34
f 35/35/35 31/31/31 34/34/34
f 33/33/33 36/36/36 32/32/32
f 33/33/33 37/37/37 36/36/36
f 35/35/35 34/34/34 38/38/38
f 39/39/39 35/35/35 38/38/38
f 37/37/37 40/40/40 36/36/36
f 37/37/37 41/41/41 40/40/40
f 39/39/39 38/38/38 42/42/42
f 43/43/43 39/39/39 42/42/42
f 41/41/41 44/44/44 40/40/40
f 41/41/41 45/45/45 44/44/44
f 43/43/43 42/42/42 46/46/46
f 47/47/47 43/43/43 46/46/46
f 45/45/45 48/48/48 44/44/44
f 45/45/45 49/49/49 48/48/48
f 47/47/47 46/46/46 50/50/50
f 51/51/51 47/47/47 50/50/50
f 49/49/49 52/52/52 48/48/48
f 49/49/49 53/53/53 52/52/52
f 51/51/51 50/50/50 54/54/54
f 55/55/55 51/51/51 54/54/54
f 53/53/53 56/56/56 52/52/52
f 53/53/53 57/57/57 56/56/56
f 55/55/55 54/54/54 58/58/58
f 59/59/59 55/55/55 58/58/58
f 57/57/57 60/60/60 56/56/56
f 57/57/57 61/61/61 60/60/60
f 59/59/59 58/58/58 62/62/62
f 63/63/63 59/59/59 62/62/62
f 61/61/61 63/63/63 64/64/64
f 61/61/61 64/64/64 60/60/60
f 63/63/63 62/62/62 64/64/64
f 54/54/54 50/50/50 65/65/65
f 58/58/58 54/54/54 66/66/66
f 54/54/54 65/65/65 66/66/66
f 62/62/62 58/58/58 67/67/67
f 58/58/58 66/66/66 67/67/67
f 64/64/64 62/62/62 68/68/68
f 62/62/62 67/67/67 68/68/68
f 60/60/60 64/64/64 69/69/69
f 64/64/64 68/68/68 69/69/69
f 56/56/56 60/60/60 70/70/70
f 60/60/60 69/69/69 70/70/70
f 50/50/50 71/71/71 65/65/65
f 50/50/50 46/46/46 71/71/71
f 56/56/56 70/70/70 72/72/72
f 52/52/52 56/56/56 72/72/72
f 46/46/46 73/73/73 71/71/71
f 46/46/46 42/42/42 73/73/73
f 52/52/52 72/72/72 74/74/74
f 48/48/48 52/52/52 74/74/74
f 42/42/42 75/75/75 73/73/73
f 42/42/42 38/38/38 75/75/75
f 48/48/48 74/74/74 76/76/76
f 44/44/44 48/48/48 76/76/76
f 38/38/38 77/77/77 75/75/75
f 38/38/38 34/34/34 77/77/77
f 44/44/44 76/76/76 78/78/78
f 40/40/40 44/44/44 78/78/78
f 34/34/34 79/79/79 77/77/77
f 34/34/34 30/30/30 79/79/79
f 40/40/40 78/78/78 80/80/80
f 36/36/36 40/40/40 80/80/80
f 30/30/30 81/81/81 79/79/79
f 30/30/30 26/26/26 81/81/81
f 36/36/36 80/80/80 82/82/82
f 32/32/32 36/36/36 82/82/82
f 26/26/26 83/83/83 81/81/81
f 26/26/26 22/22/22 83/83/83
f 32/32/32 82/82/82 84/84/84
f 28/28/28 32/32/32 84/84/84
f 22/22/22 85/85/85 83/83/83
f 22/22/22 18/18/18 85/85/85
f 28/28/28 84/84/84 86/86/86
f 24/24/24 28/28/28 86/86/86
f 18/18/18 87/87/87 85/85/85
f 18/18/18 14/14/14 87/87/87
f 24/24/24 86/86/86 88/88/88
f 20/20/20 24/24/24 88/88/88
f 14/14/14 89/89/89 87/87/87
f 14/14/14 10/10/10 89/89/89
f 20/20/20 88/88/88 90/90/90
f 16/16/16 20/20/20 90/90/90
f 10/10/10 91/91/91 89/89/89
f 10/10/10 6/6/6 91/91/91
f 16/16/16 90/90/90 92/92/92
f 12/12/12 16/16/16 92/92/92
f 6/6/6 93/93/93 91/91/91
f 6/6/6 1/1/1 93/93/93
f 12/12/12 92/92/92 94/94/94
f 8/8/8 12/12/12 94/94/94
f 1/1/1 95/95/95 93/93/93
f 1/1/1 4/4/4 95/95/95
f 4/4/4 8/8/8 96/96/96
f 8/8/8 94/94/94 96/96/96
f 4/4/4 96/96/96 95/95/95
f 89/89/89 91/91/91 97/97/97
f 91/91/91 93/93/93 98/98/98
f 91/91/91 98/98/98 97/97/97
f 93/93/93 95/95/95 99/99/99
f 93/93/93 99/99/99 98/98/98
f 95/95/95 96/96/96 100/100/100
f 95/95/95 100/100/100 99/99/99
f 96/96/96 94/94/94 101/101/101
f 96/96/96 101/101/101 100/100/100
f 94/94/94 92/92/92 102/102/102
f 94/94/94 102/102/102 101/101/101
f 89/89/89 97/97/97 103/103/103
f 87/87/87 89/89/89 103/103/103
f 92/92/92 104/104/104 102/102/102
f 92/92/92 90/90/90 104/104/104
f 87/87/87 103/103/103 105/105/105
f 85/85/85 87/87/87 105/105/105
f 90/90/90 106/106/106 104/104/104
f 90/90/90 88/88/88 106/106/106
f 85/85/85 105/105/105 107/107/107
f 83/83/83 85/85/85 107/107/107
f 88/88/88 108/108/108 106/106/106
f 88/88/88 86/86/86 108/108/108
f 83/83/83 107/107/107 109/109/109
f 81/81/81 83/83/83 109/109/109
f 86/86/86 110/110/110 108/108/108
f 86/86/86 84/84/84 110/110/110
f 81/81/81 109/109/109 111/111/111
f 79/79/79 81/81/81 111/111/111
f 84/84/84 112/112/112 110/110/110
f 84/84/84 82/82/82 112/112/112
f 79/79/79 111/111/111 113/113/113
f 77/77/77 79/79/79 113/113/113
f 82/82/82 114/114/114 112/112/112
f 82/82/82 80/80/80 114/114/114
f 77/77/77 113/113/113 115/115/115
f 75/75/75 77/77/77 115/115/115
f 80/80/80 116/116/116 114/114/114
f 80/80/80 78/78/78 116/116/116
f 75/75/75 115/115/115 117/117/117
f 73/73/73 75/75/75 117/117/117
f 78/78/78 118/118/118 116/116/116
f 78/78/78 76/76/76 118/118/118
f 73/73/73 117/117/117 119/119/119
f 71/71/71 73/73/73 119/119/119
f 76/76/76 120/120/120 118/118/118
f 76/76/76 74/74/74 120/120/120
f 71/71/71 119/119/119 121/121/121
f 65/65/65 71/71/71 121/121/121
f 74/74/74 122/122/122 120/120/120
f 74/74/74 72/72/72 122/122/122
f 65/65/65 121/121/121 123/123/123
f 66/66/66 65/65/65 123/123/123
f 72/72/72 124/124/124 122/122/122
f 72/72/72 70/70/70 124/124/124
f 66/66/66 123/123/123 125/125/125
f 67/67/67 66/66/66 125/125/125
f 70/70/70 126/126/126 124/124/124
f 70/70/70 69/69/69 126/126/126
f 67/67/67 125/125/125 127/127/127
f 68/68/68 67/67/67 127/127/127
f 69/69/69 68/68/68 128/128/128
f 69/69/69 128/128/128 126/126/126
f 68/68/68 127/127/127 128/128/128
f 123/123/123 121/121/121 129/129/129
f 125/125/125 123/123/123 130/130/130
f 123/123/123 129/129/129 130/130/130
f 127/127/127 125/125/125 131/131/131
f 125/125/125 130/130/130 131/131/131
f 128/128/128 127/127/127 132/132/132
f 127/127/127 131/131/131 132/132/132
f 126/126/126 128/128/128 133/133/133
f 128/128/128 132/132/132 133/133/133
f 124/124/124 126/126/126 134/134/134
f 126/126/126 133/133/133 134/134/134
f 121/121/121 135/135/135 129/129/129
f 121/121/121 119/119/119 135/135/135
f 124/124/124 134/134/134 136/136/136
f 122/122/122 124/124/124 136/136/136
f 119/119/119 137/137/137 135/135/135
f 119/119/119 117/117/117 137/137/137
f 122/122/122 136/136/136 138/138/138
f 120/120/120 122/122/122 138/138/138
f 117/117/117 139/139/139 137/137/137
f 117/117/117 115/115/115 139/139/139
f 120/120/120 138/138/138 140/140/140
f 118/118/118 120/120/120 140/140/140
f 115/115/115 141/141/141 139/139/139
f 115/115/115 113/113/113 141/141/141
f 118/118/118 140/140/140 142/142/142
f 116/116/116 118/118/118 142/142/142
f 113/113/113 143/143/143 141/141/141
f 113/113/113 111/111/111 143/143/143
f 116/116/116 142/142/142 144/144/144
f 114/114/114 116/116/116 144/144/144
f 111/111/111 145/145/145 143/143/143
f 111/111/111 109/109/109 145/145/145
f 114/114/114 144/144/144 146/146/146
f 112/112/112 114/114/114 146/146/146
f 109/109/109 147/147/147 145/145/145
f 109/109/109 107/107/107 147/147/147
f 112/112/112 146/146/146 148/148/148
f 110/110/110 112/112/112 148/148/148
f 107/107/107 149/149/149 147/147/147
f 107/107/107 105/105/105 149/149/149
f 110/110/110 148/148/148 150/150/150
f 108/108/108 110/110/110 150/150/150
f 105/105/105 151/151/151 149/149/149
f 105/105/105 103/103/103 151/151/151
f 108/108/108 150/150/150 152/152/152
f 106/106/106 108/108/108 152/152/152
f 103/103/103 153/153/153 151/151/151
f 103/103/103 97/97/97 153/153/153
f 106/106/106 152/152/152 154/154/154
f 104/104/104 106/106/106 154/154/154
f 97/97/97 155/155/155 153/153/153
f 97/97/97 98/98/98 155/155/155
f 104/104/104 154/154/154 156/156/156
f 102/102/102 104/104/104 156/156/156
f 98/98/98 157/157/157 155/155/155
f 98/98/98 99/99/99 157/157/157
f 102/102/102 156/156/156 158/158/158
f 101/101/101 102/102/102 158/158/158
f 99/99/99 159/159/159 157/157/157
f 99/99/99 100/100/100 159/159/159
f 100/100/100 101/101/101 160/160/160
f 101/101/101 158/158/158 160/160/160
f 100/100/100 160/160/160 159/159/159
f 153/153/153 155/155/155 161/161/161
f 155/155/155 157/157/157 162/162/162
f 155/155/155 162/162/162 161/161/161
f 157/157/157 159/159/159 163/163/163
f 157/157/157 163/163/163 162/162/162
f 159/159/159 160/160/160 164/164/164
f 159/159/159 164/164/164 163/163/163
f 160/160/160 158/158/158 165/165/165
f 160/160/160 165/165/165 164/164/164
f 158/158/158 156/156/156 166/166/166
f 158/158/158 166/166/166 165/165/165
f 153/153/153 161/161/161 167/167/167
f 151/151/151 153/153/153 167/167/167
f 156/156/156 168/168/168 166/166/166
f 156/156/156 154/154/154 168/168/168
f 151/151/151 167/167/167 169/169/169
f 149/149/149 151/151/151 169/169/169
f 154/154/154 170/170/170 168/168/168
f 154/154/154 152/152/152 170/170/170
f 149/149/149 169/169/169 171/171/171
f 147/147/147 149/149/149 171/171/171
f 152/152/152 172/172/172 170/170/170
f 152/152/152 150/150/150 172/172/172
f 147/147/147 171/171/171 173/173/173
f 145/145/145 147/147/147 173/173/173
f 150/150/150 174/174/174 172/172/172
f 150/150/150 148/148/148 174/174/174
f 145/145/145 173/173/173 175/175/175
f 143/143/143 145/145/145 175/175/175
f 148/148/148 176/176/176 174/174/174
f 148/148/148 146/146/146 176/176/176
f 143/143/143 175/175/175 177/177/177
f 141/141/141 143/143/143 177/177/177
f 146/146/146 178/178/178 176/176/176
f 146/146/146 144/144/144 178/178/178
f 141/141/141 177/177/177 179/179/179
f 139/139/139 141/141/141 179/179/179
f 144/144/144 180/180/180 178/178/178
f 144/144/144 142/142/142 180/180/180
f 139/139/139 179/179/179 181/181/181
f 137/137/137 139/139/139 181/181/181
f 142/142/142 182/182/182 180/180/180
f 142/142/142 140/140/140 182/182/182
f 137/137/137 181/181/181 183/183/183
f 135/135/135 137/137/137 183/183/183
f 140/140/140 184/184/184 182/182/182
f 140/140/140 138/138/138 184/184/184
f 135/135/135 183/183/183 185/185/185
f 129/129/129 135/135/135 185/185/185
f 138/138/138 186/186/186 184/184/184
f 138/138/138 136/136/136 186/186/186
f 129/129/129 185/185/185 187/187/187
f 130/130/130 129/129/129 187/187/187
f 136/136/136 188/188/188 186/186/186
f 136/136/136 134/134/134 188/188/188
f 130/130/130 187/187/187 189/189/189
f 131/131/131 130/130/130 189/189/189
f 134/134/134 190/190/190 188/188/188
f 134/134/134 133/133/133 190/190/190
f 131/131/131 189/189/189 191/191/191
f 132/132/132 131/131/131 191/191/191
f 133/133/133 132/132/132 192/192/192
f 133/133/133 192/192/192 190/190/190
f 132/132/132 191/191/191 192/192/192
f 187/187/187 185/185/185 193/193/193
f 189/189/189 187/187/187 194/194/194
f 187/187/187 193/193/193 194/194/194
f 191/191/191 189/189/189 195/195/195
f 189/189/189 194/194/194 195/195/195
f 192/192/192 191/191/191 196/196/196
f 191/191/191 195/195/195 196/196/196
f 190/190/190 192/192/192 197/197/197
f 192/192/192 196/196/196 197/197/197
f 188/188/188 190/190/190 198/198/198
f 190/190/190 197/197/197 198/198/198
f 185/185/185 199/199/199 193/193/193
f 185/185/185 183/183/183 199/199/199
f 188/188/188 198/198/198 200/200/200
f 186/186/186 188/188/188 200/200/200
f 183/183/183 201/201/201 199/199/199
f 183/183/183 181/181/181 201/201/201
f 186/186/186 200/200/200 202/202/202
f 184/184/184 186/186/186 202/202/202
f 181/181/181 203/203/203 201/201/201
f 181/181/181 179/179/179 203/203/203
f 184/184/184 202/202/202 204/204/204
f 182/182/182 184/184/184 204/204/204
f 179/179/179 205/205/205 203/203/203
f 179/179/179 177/177/177 205/205/205
f 182/182/182 204/204/204 206/206/206
f 180/180/180 182/182/182 206/206/206
f 177/177/177 207/207/207 205/205/205
f 177/177/177 175/175/175 207/207/207
f 180/180/180 206/206/206 208/208/208
f 178/178/178 180/180/180 208/208/208
f 175/175/175 209/209/209 207/207/207
f 175/175/175 173/173/173 209/209/209
f 178/178/178 208/208/208 210/210/210
f 176/176/176 178/178/178 210/210/210
f 173/173/173 211/211/211 209/209/209
f 173/173/173 171/171/171 211/211/211
f 176/176/176 210/210/210 212/212/212
f 174/174/174 176/176/176 212/212/212
f 171/171/171 213/213/213 211/211/211
f 171/171/171 169/169/169 213/213/213
f 174/174/174 212/212/212 214/214/214
f 172/172/172 174/174/174 214/214/214
f 169/169/169 215/215/215 213/213/213
f 169/169/169 167/167/167 215/215/215
f 172/172/172 214/214/214 216/216/216
f 170/170/170 172/172/172 216/216/216
f 167/167/167 217/217/217 215/215/215
f 167/167/167 161/161/161 217/217/217
f 170/170/170 216/216/216 218/218/218
f 168/168/168 170/170/170 218/218/218
f 161/161/161 219/219/219 217/217/217
f 161/161/161 162/162/162 219/219/219
f 168/168/168 218/218/218 220/220/220
f 166/166/166 168/168/168 220/220/220
f 162/162/162 221/221/221 219/219/219
f 162/162/162 163/163/163 221/221/221
f 166/166/166 220/220/220 222/222/222
f 165/165/165 166/166/166 222/222/222
f 163/163/163 223/223/223 221/221/221
f 163/163/163 164/164/164 223/223/223
f 164/164/164 165/165/165 224/224/224
f 165/165/165 222/222/222 224/224/224
f 164/164/164 224/224/224 223/223/223
f 217/217/217 219/219/219 225/225/225
f 219/219/219 221/221/221 226/226/226
f 219/219/219 226/226/226 225/225/225
f 225/225/225 226/226/226 227/227/227
f 217/217/217 225/225/225 228/228/228
f 228/228/228 225/225/225 227/227/227
f 215/215/215 217/217/217 228/228/228
f 221/221/221 229/229/229 226/226/226
f 221/221/221 223/223/223 229/229/229
f 226/226/226 229/229/229 227/227/227
f 215/215/215 228/228/228 230/230/230
f 230/230/230 228/228/228 227/227/227
f 213/213/213 215/215/215 230/230/230
f 223/223/223 231/231/231 229/229/229
f 223/223/223 224/224/224 231/231/231
f 229/229/229 231/231/231 227/227/227
f 213/213/213 230/230/230 232/232/232
f 232/232/232 230/230/230 227/227/227
f 211/211/211 213/213/213 232/232/232
f 224/224/224 233/233/233 231/231/231
f 231/231/231 233/233/233 227/227/227
f 234/234/234 232/232/232 227/227/227
f 211/211/211 232/232/232 234/234/234
f 233/233/233 235/235/235 227/227/227
f 224/224/224 222/222/222 233/233/233
f 222/222/222 235/235/235 233/233/233
f 209/209/209 211/211/211 234/234/234
f 222/222/222 220/220/220 235/235/235
f 209/209/209 234/234/234 236/236/236
f 236/236/236 234/234/234 227/227/227
f 207/207/207 209/209/209 236/236/236
f 220/220/220 237/237/237 235/235/235
f 235/235/235 237/237/237 227/227/227
f 220/220/220 218/218/218 237/237/237
f 207/207/207 236/236/236 238/238/238
f 238/238/238 236/236/236 227/227/227
f 205/205/205 207/207/207 238/238/238
f 218/218/218 239/239/239 237/237/237
f 237/237/237 239/239/239 227/227/227
f 218/218/218 216/216/216 239/239/239
f 205/205/205 238/238/238 240/240/240
f 240/240/240 238/238/238 227/227/227
f 203/203/203 205/205/205 240/240/240
f 239/239/239 241/241/241 227/227/227
f 216/216/216 241/241/241 239/239/239
f 242/242/242 240/240/240 227/227/227
f 203/203/203 240/240/240 242/242/242
f 241/241/241 243/243/243 227/227/227
f 216/216/216 214/214/214 241/241/241
f 214/214/214 243/243/243 241/241/241
f 201/201/201 203/203/203 242/242/242
f 214/214/214 212/212/212 243/243/243
f 201/201/201 242/242/242 244/244/244
f 244/244/244 242/242/242 227/227/227
f 199/199/199 201/201/201 244/244/244
f 212/212/212 245/245/245 243/243/243
f 243/243/243 245/245/245 227/227/227
f 212/212/212 210/210/210 245/245/245
f 199/199/199 244/244/244 246/246/246
f 246/246/246 244/244/244 227/227/227
f 193/193/193 199/199/199 246/246/246
f 210/210/210 247/247/247 245/245/245
f 245/245/245 247/247/247 227/227/227
f 210/210/210 208/208/208 247/247/247
f 193/193/193 246/246/246 248/248/248
f 248/248/248 246/246/246 227/227/227
f 194/194/194 193/193/193 248/248/248
f 247/247/247 249/249/249 227/227/227
f 208/208/208 249/249/249 247/247/247
f 250/250/250 248/248/248 227/227/227
f 194/194/194 248/248/248 250/250/250
f 249/249/249 251/251/251 227/227/227
f 208/208/208 206/206/206 249/249/249
f 206/206/206 251/251/251 249/249/249
f 195/195/195 194/194/194 250/250/250
f 206/206/206 204/204/204 251/251/251
f 195/195/195 250/250/250 252/252/252
f 252/252/252 250/250/250 227/227/227
f 196/196/196 195/195/195 252/252/252
f 204/204/204 253/253/253 251/251/251
f 251/251/251 253/253/253 227/227/227
f 204/204/204 202/202/202 253/253/253
f 196/196/196 252/252/252 254/254/254
f 254/254/254 252/252/252 227/227/227
f 197/197/197 196/196/196 254/254/254
f 202/202/202 255/255/255 253/253/253
f 253/253/253 255/255/255 227/227/227
f 202/202/202 200/200/200 255/255/255
f 197/197/197 254/254/254 256/256/256
f 256/256/256 254/254/254 227/227/227
f 198/198/198 197/197/197 256/256/256
f 255/255/255 257/257/257 227/227/227
f 200/200/200 257/257/257 255/255/255
f 257/257/257 256/256/256 227/227/227
f 198/198/198 256/256/256 257/257/257
f 200/200/200 198/198/198 257/257/257
f 260/260/260 259/259/259 258/258/258
f 261/261/261 260/260/260 258/258/258
f 261/261/261 258/258/258 262/262/262
f 260/260/260 263/263/263 259/259/259
f 263/263/263 264/264/264 259/259/259
f 265/265/265 261/261/261 262/262/262
f 265/265/265 262/262/262 266/266/266
f 263/263/263 267/267/267 264/264/264
f 267/267/267 268/268/268 264/264/264
f 269/269/269 265/265/265 266/266/266
f 269/269/269 266/266/266 270/270/270
f 267/267/267 271/271/271 268/268/268
f 271/271/271 272/272/272 268/268/268
f 273/273/273 269/269/269 270/270/270
f 273/273/273 270/270/270 274/274/274
f 271/271/271 275/275/275 272/272/272
f 275/275/275 276/276/276 272/272/272
f 277/277/277 273/273/273 274/274/274
f 277/277/277 274/274/274 278/278/278
f 275/275/275 279/279/279 276/276/276
f 279/279/279 280/280/280 276/276/276
f 281/281/281 277/277/277 278/278/278
f 281/281/281 278/278/278 282/282/282
f 279/279/279 283/283/283 280/280/280
f 283/283/283 284/284/284 280/280/280
f 285/285/285 281/281/281 282/282/282
f 285/285/285 282/282/282 286/286/286
f 283/283/283 287/287/287 284/284/284
f 287/287/287 288/288/288 284/284/284
f 289/289/289 285/285/285 286/286/286
f 289/289/289 286/286/286 290/290/290
f 287/287/287 291/291/291 288/288/288
f 291/291/291 292/292/292 288/288/288
f 293/293/293 289/289/289 290/290/290
f 293/293/293 290/290/290 294/294/294
f 291/291/291 295/295/295 292/292/292
f 295/295/295 296/296/296 292/292/292
f 297/297/297 293/293/293 294/294/294
f 297/297/297 294/294/294 298/298/298
f 295/295/295 299/299/299 296/296/296
f 299/299/299 300/300/300 296/296/296
f 301/301/301 297/297/297 298/298/298
f 301/301/301 298/298/298 302/302/302
f 299/299/299 303/303/303 300/300/300
f 303/303/303 304/304/304 300/300/300
f 305/305/305 301/301/301 302/302/302
f 305/305/305 302/302/302 306/306/306
f 303/303/303 307/307/307 304/304/304
f 307/307/307 308/308/308 304/304/304
f 309/309/309 305/305/305 306/306/306
f 309/309/309 306/306/306 310/310/310
f 307/307/307 311/311/311 308/308/308
f 311/311/311 312/312/312 308/308/308
f 313/313/313 309/309/309 310/310/310
f 313/313/313 310/310/310 314/314/314
f 311/311/311 315/315/315 312/312/312
f 315/315/315 316/316/316 312/312/312
f 317/317/317 313/313/313 314/314/314
f 317/317/317 314/314/314 318/318/318
f 315/315/315 319/319/319 316/316/316
f 319/319/319 320/320/320 316/316/316
f 321/321/321 318/318/318 320/320/320
f 321/321/321 317/317/317 318/318/318
f 319/319/319 321/321/321 320/320/320
f 322/322/322 311/311/311 307/307/307
f 323/323/323 315/315/315 311/311/311
f 322/322/322 323/323/323 311/311/311
f 324/324/324 319/319/319 315/315/315
f 323/323/323 324/324/324 315/315/315
f 325/325/325 321/321/321 319/319/319
f 324/324/324 325/325/325 319/319/319
f 326/326/326 317/317/317 321/321/321
f 325/325/325 326/326/326 321/321/321
f 327/327/327 313/313/313 317/317/317
f 326/326/326 327/327/327 317/317/317
f 328/328/328 322/322/322 307/307/307
f 328/328/328 307/307/307 303/303/303
f 327/327/327 329/329/329 313/313/313
f 329/329/329 309/309/309 313/313/313
f 330/330/330 328/328/328 303/303/303
f 330/330/330 303/303/303 299/299/299
f 329/329/329 331/331/331 309/309/309
f 331/331/331 305/305/305 309/309/309
f 332/332/332 330/330/330 299/299/299
f 332/332/332 299/299/299 295/295/295
f 331/331/331 333/333/333 305/305/305
f 333/333/333 301/301/301 305/305/305
f 334/334/334 332/332/332 295/295/295
f 334/334/334 295/295/295 291/291/291
f 333/333/333 335/335/335 301/301/301
f 335/335/335 297/297/297 301/301/301
f 336/336/336 334/334/334 291/291/291
f 336/336/336 291/291/291 287/287/287
f 335/335/335 337/337/337 297/297/297
f 337/337/337 293/293/293 297/297/297
f 338/338/338 336/336/336 287/287/287
f 338/338/338 287/287/287 283/283/283
f 337/337/337 339/339/339 293/293/293
f 339/339/339 289/289/289 293/293/293
f 340/340/340 338/338/338 283/283/283
f 340/340/340 283/283/283 279/279/279
f 339/339/339 341/341/341 289/289/289
f 341/341/341 285/285/285 289/289/289
f 342/342/342 340/340/340 279/279/279
f 342/342/342 279/279/279 275/275/275
f 341/341/341 343/343/343 285/285/285
f 343/343/343 281/281/281 285/285/285
f 344/344/344 342/342/342 275/275/275
f 344/344/344 275/275/275 271/271/271
f 343/343/343 345/345/345 281/281/281
f 345/345/345 277/277/277 281/281/281
f 346/346/346 344/344/344 271/271/271
f 346/346/346 271/271/271 267/267/267
f 345/345/345 347/347/347 277/277/277
f 347/347/347 273/273/273 277/277/277
f 348/348/348 346/346/346 267/267/267
f 348/348/348 267/267/267 263/263/263
f 347/347/347 349/349/349 273/273/273
f 349/349/349 269/269/269 273/273/273
f 350/350/350 348/348/348 263/263/263
f 350/350/350 263/263/263 260/260/260
f 349/349/349 351/351/351 269/269/269
f 351/351/351 265/265/265 269/269/269
f 352/352/352 350/350/350 260/260/260
f 352/352/352 260/260/260 261/261/261
f 353/353/353 261/261/261 265/265/265
f 351/351/351 353/353/353 265/265/265
f 353/353/353 352/352/352 261/261/261
f 354/354/354 346/346/346 348/348/348
f 355/355/355 348/348/348 350/350/350
f 355/355/355 354/354/354 348/348/348
f 356/356/356 350/350/350 352/352/352
f 356/356/356 355/355/355 350/350/350
f 357/357/357 352/352/352 353/353/353
f 357/357/357 356/356/356 352/352/352
f 358/358/358 353/353/353 351/351/351
f 358/358/358 357/357/357 353/353/353
f 359/359/359 351/351/351 349/349/349
f 359/359/359 358/358/358 351/351/351
f 354/354/354 360/360/360 346/346/346
f 360/360/360 344/344/344 346/346/346
f 361/361/361 359/359/359 349/349/349
f 361/361/361 349/349/349 347/347/347
f 360/360/360 362/362/362 344/344/344
f 362/362/362 342/342/342 344/344/344
f 363/363/363 361/361/361 347/347/347
f 363/363/363 347/347/347 345/345/345
f 362/362/362 364/364/364 342/342/342
f 364/364/364 340/340/340 342/342/342
f 365/365/365 363/363/363 345/345/345
f 365/365/365 345/345/345 343/343/343
f 364/364/364 366/366/366 340/340/340
f 366/366/366 338/338/338 340/340/340
f 367/367/367 365/365/365 343/343/343
f 367/367/367 343/343/343 341/341/341
f 366/366/366 368/368/368 338/338/338
f 368/368/368 336/336/336 338/338/338
f 369/369/369 367/367/367 341/341/341
f 369/369/369 341/341/341 339/339/339
f 368/368/368 370/370/370 336/336/336
f 370/370/370 334/334/334 336/336/336
f 371/371/371 369/369/369 339/339/339
f 371/371/371 339/339/339 337/337/337
f 370/370/370 372/372/372 334/334/334
f 372/372/372 332/332/332 334/334/334
f 373/373/373 371/371/371 337/337/337
f 373/373/373 337/337/337 335/335/335
f 372/372/372 374/374/374 332/332/332
f 374/374/374 330/330/330 332/332/332
f 375/375/375 373/373/373 335/335/335
f 375/375/375 335/335/335 333/333/333
f 374/374/374 376/376/376 330/330/330
f 376/376/376 328/328/328 330/330/330
f 377/377/377 375/375/375 333/333/333
f 377/377/377 333/333/333 331/331/331
f 376/376/376 378/378/378 328/328/328
f 378/378/378 322/322/322 328/328/328
f 379/379/379 377/377/377 331/331/331
f 379/379/379 331/331/331 329/329/329
f 378/378/378 380/380/380 322/322/322
f 380/380/380 323/323/323 322/322/322
f 381/381/381 379/379/379 329/329/329
f 381/381/381 329/329/329 327/327/327
f 380/380/380 382/382/382 323/323/323
f 382/382/382 324/324/324 323/323/323
f 383/383/383 381/381/381 327/327/327
f 383/383/383 327/327/327 326/326/326
f 382/382/382 384/384/384 324/324/324
f 384/384/384 325/325/325 324/324/324
f 385/385/385 326/326/326 325/325/325
f 385/385/385 383/383/383 326/326/326
f 384/384/384 385/385/385 325/325/325
f 386/386/386 380/380/380 378/378/378
f 387/387/387 382/382/382 380/380/380
f 386/386/386 387/387/387 380/380/380
f 388/388/388 384/384/384 382/382/382
f 387/387/387 388/388/388 382/382/382
f 389/389/389 385/385/385 384/384/384
f 388/388/388 389/389/389 384/384/384
f 390/390/390 383/383/383 385/385/385
f 389/389/389 390/390/390 385/385/385
f 391/391/391 381/381/381 383/383/383
f 390/390/390 391/391/391 383/383/383
f 392/392/392 386/386/386 378/378/378
f 392/392/392 378/378/378 376/376/376
f 391/391/391 393/393/393 381/381/381
f 393/393/393 379/379/379 381/381/381
f 394/394/394 392/392/392 376/376/376
f 394/394/394 376/376/376 374/374/374
f 393/393/393 395/395/395 379/379/379
f 395/395/395 377/377/377 379/379/379
f 396/396/396 394/394/394 374/374/374
f 396/396/396 374/374/374 372/372/372
f 395/395/395 397/397/397 377/377/377
f 397/397/397 375/375/375 377/377/377
f 398/398/398 396/396/396 372/372/372
f 398/398/398 372/372/372 370/370/370
f 397/397/397 399/399/399 375/375/375
f 399/399/399 373/373/373 375/375/375
f 400/400/400 398/398/398 370/370/370
f 400/400/400 370/370/370 368/368/368
f 399/399/399 401/401/401 373/373/373
f 401/401/401 371/371/371 373/373/373
f 402/402/402 400/400/400 368/368/368
f 402/402/402 368/368/368 366/366/366
f 401/401/401 403/403/403 371/371/371
f 403/403/403 369/369/369 371/371/371
f 404/404/404 402/402/402 366/366/366
f 404/404/404 366/366/366 364/364/364
f 403/403/403 405/405/405 369/369/369
f 405/405/405 367/367/367 369/369/369
f 406/406/406 404/404/404 364/364/364
f 406/406/406 364/364/364 362/362/362
f 405/405/405 407/407/407 367/367/367
f 407/407/407 365/365/365 367/367/367
f 408/408/408 406/406/406 362/362/362
f 408/408/408 362/362/362 360/360/360
f 407/407/407 409/409/409 365/365/365
f 409/409/409 363/363/363 365/365/365
f 410/410/410 408/408/408 360/360/360
f 410/410/410 360/360/360 354/354/354
f 409/409/409 411/411/411 363/363/363
f 411/411/411 361/361/361 363/363/363
f 412/412/412 410/410/410 354/354/354
f 412/412/412 354/354/354 355/355/355
f 411/411/411 413/413/413 361/361/361
f 413/413/413 359/359/359 361/361/361
f 414/414/414 412/412/412 355/355/355
f 414/414/414 355/355/355 356/356/356
f 413/413/413 415/415/415 359/359/359
f 415/415/415 358/358/358 359/359/359
f 416/416/416 414/414/414 356/356/356
f 416/416/416 356/356/356 357/357/357
f 417/417/417 357/357/357 358/358/358
f 415/415/415 417/417/417 358/358/358
f 417/417/417 416/416/416 357/357/357
f 418/418/418 410/410/410 412/412/412
f 419/419/419 412/412/412 414/414/414
f 419/419/419 418/418/418 412/412/412
f 420/420/420 414/414/414 416/416/416
f 420/420/420 419/419/419 414/414/414
f 421/421/421 416/416/416 417/417/417
f 421/421/421 420/420/420 416/416/416
f 422/422/422 417/417/417 415/415/415
f 422/422/422 421/421/421 417/417/417
f 423/423/423 415/415/415 413/413/413
f 423/423/423 422/422/422 415/415/415
f 418/418/418 424/424/424 410/410/410
f 424/424/424 408/408/408 410/410/410
f 425/425/425 423/423/423 413/413/413
f 425/425/425 413/413/413 411/411/411
f 424/424/424 426/426/426 408/408/408
f 426/426/426 406/406/406 408/408/408
f 427/427/427 425/425/425 411/411/411
f 427/427/427 411/411/411 409/409/409
f 426/426/426 428/428/428 406/406/406
f 428/428/428 404/404/404 406/406/406
f 429/429/429 427/427/427 409/409/409
f 429/429/429 409/409/409 407/407/407
f 428/428/428 430/430/430 404/404/404
f 430/430/430 402/402/402 404/404/404
f 431/431/431 429/429/429 407/407/407
f 431/431/431 407/407/407 405/405/405
f 430/430/430 432/432/432 402/402/402
f 432/432/432 400/400/400 402/402/402
f 433/433/433 431/431/431 405/405/405
f 433/433/433 405/405/405 403/403/403
f 432/432/432 434/434/434 400/400/400
f 434/434/434 398/398/398 400/400/400
f 435/435/435 433/433/433 403/403/403
f 435/435/435 403/403/403 401/401/401
f 434/434/434 436/436/436 398/398/398
f 436/436/436 396/396/396 398/398/398
f 437/437/437 435/435/435 401/401/401
f 437/437/437 401/401/401 399/399/399
f 436/436/436 438/438/438 396/396/396
f 438/438/438 394/394/394 396/396/396
f 439/439/439 437/437/437 399/399/399
f 439/439/439 399/399/399 397/397/397
f 438/438/438 440/440/440 394/394/394
f 440/440/440 392/392/392 394/394/394
f 441/441/441 439/439/439 397/397/397
f 441/441/441 397/397/397 395/395/395
f 440/440/440 442/442/442 392/392/392
f 442/442/442 386/386/386 392/392/392
f 443/443/443 441/441/441 395/395/395
f 443/443/443 395/395/395 393/393/393
f 442/442/442 444/444/444 386/386/386
f 444/444/444 387/387/387 386/386/386
f 445/445/445 443/443/443 393/393/393
f 445/445/445 393/393/393 391/391/391
f 444/444/444 446/446/446 387/387/387
f 446/446/446 388/388/388 387/387/387
f 447/447/447 445/445/445 391/391/391
f 447/447/447 391/391/391 390/390/390
f 446/446/446 448/448/448 388/388/388
f 448/448/448 389/389/389 388/388/388
f 449/449/449 390/390/390 389/389/389
f 449/449/449 447/447/447 390/390/390
f 448/448/448 449/449/449 389/389/389
f 450/450/450 444/444/444 442/442/442
f 451/451/451 446/446/446 444/444/444
f 450/450/450 451/451/451 444/444/444
f 452/452/452 448/448/448 446/446/446
f 451/451/451 452/452/452 446/446/446
f 453/453/453 449/449/449 448/448/448
f 452/452/452 453/453/453 448/448/448
f 454/454/454 447/447/447 449/449/449
f 453/453/453 454/454/454 449/449/449
f 455/455/455 445/445/445 447/447/447
f 454/454/454 455/455/455 447/447/447
f 456/456/456 450/450/450 442/442/442
f 456/456/456 442/442/442 440/440/440
f 455/455/455 457/457/457 445/445/445
f 457/457/457 443/443/443 445/445/445
f 458/458/458 456/456/456 440/440/440
f 458/458/458 440/440/440 438/438/438
f 457/457/457 459/459/459 443/443/443
f 459/459/459 441/441/441 443/443/443
f 460/460/460 458/458/458 438/438/438
f 460/460/460 438/438/438 436/436/436
f 459/459/459 461/461/461 441/441/441
f 461/461/461 439/439/439 441/441/441
f 462/462/462 460/460/460 436/436/436
f 462/462/462 436/436/436 434/434/434
f 461/461/461 463/463/463 439/439/439
f 463/463/463 437/437/437 439/439/439
f 464/464/464 462/462/462 434/434/434
f 464/464/464 434/434/434 432/432/432
f 463/463/463 465/465/465 437/437/437
f 465/465/465 435/435/435 437/437/437
f 466/466/466 464/464/464 432/432/432
f 466/466/466 432/432/432 430/430/430
f 465/465/465 467/467/467 435/435/435
f 467/467/467 433/433/433 435/435/435
f 468/468/468 466/466/466 430/430/430
f 468/468/468 430/430/430 428/428/428
f 467/467/467 469/469/469 433/433/433
f 469/469/469 431/431/431 433/433/433
f 470/470/470 468/468/468 428/428/428
f 470/470/470 428/428/428 426/426/426
f 469/469/469 471/471/471 431/431/431
f 471/471/471 429/429/429 431/431/431
f 472/472/472 470/470/470 426/426/426
f 472/472/472 426/426/426 424/424/424
f 471/471/471 473/473/473 429/429/429
f 473/473/473 427/427/427 429/429/429
f 474/474/474 472/472/472 424/424/424
f 474/474/474 424/424/424 418/418/418
f 473/473/473 475/475/475 427/427/427
f 475/475/475 425/425/425 427/427/427
f 476/476/476 474/474/474 418/418/418
f 476/476/476 418/418/418 419/419/419
f 475/475/475 477/477/477 425/425/425
f 477/477/477 423/423/423 425/425/425
f 478/478/478 476/476/476 419/419/419
f 478/478/478 419/419/419 420/420/420
f 477/477/477 479/479/479 423/423/423
f 479/479/479 422/422/422 423/423/423
f 480/480/480 478/478/478 420/420/420
f 480/480/480 420/420/420 421/421/421
f 481/481/481 421/421/421 422/422/422
f 479/479/479 481/481/481 422/422/422
f 481/481/481 480/480/480 421/421/421
f 482/482/482 474/474/474 476/476/476
f 483/483/483 476/476/476 478/478/478
f 483/483/483 482/482/482 476/476/476
f 482/482/482 483/483/483 484/484/484
f 482/482/482 485/485/485 474/474/474
f 485/485/485 482/482/482 484/484/484
f 485/485/485 472/472/472 474/474/474
f 486/486/486 483/483/483 478/478/478
f 486/486/486 478/478/478 480/480/480
f 483/483/483 486/486/486 484/484/484
f 485/485/485 487/487/487 472/472/472
f 487/487/487 485/485/485 484/484/484
f 487/487/487 470/470/470 472/472/472
f 488/488/488 486/486/486 480/480/480
f 488/488/488 480/480/480 481/481/481
f 486/486/486 488/488/488 484/484/484
f 487/487/487 489/489/489 470/470/470
f 489/489/489 487/487/487 484/484/484
f 489/489/489 468/468/468 470/470/470
f 490/490/490 488/488/488 481/481/481
f 488/488/488 490/490/490 484/484/484
f 491/491/491 489/489/489 484/484/484
f 489/489/489 491/491/491 468/468/468
f 490/490/490 492/492/492 484/484/484
f 490/490/490 481/481/481 479/479/479
f 492/492/492 490/490/490 479/479/479
f 491/491/491 466/466/466 468/468/468
f 492/492/492 479/479/479 477/477/477
f 491/491/491 493/493/493 466/466/466
f 493/493/493 491/491/491 484/484/484
f 493/493/493 464/464/464 466/466/466
f 494/494/494 492/492/492 477/477/477
f 492/492/492 494/494/494 484/484/484
f 494/494/494 477/477/477 475/475/475
f 493/493/493 495/495/495 464/464/464
f 495/495/495 493/493/493 484/484/484
f 495/495/495 462/462/462 464/464/464
f 496/496/496 494/494/494 475/475/475
f 494/494/494 496/496/496 484/484/484
f 496/496/496 475/475/475 473/473/473
f 495/495/495 497/497/497 462/462/462
f 497/497/497 495/495/495 484/484/484
f 497/497/497 460/460/460 462/462/462
f 498/498/498 496/496/496 473/473/473
f 496/496/496 498/498/498 484/484/484
f 499/499/499 497/497/497 484/484/484
f 497/497/497 499/499/499 460/460/460
f 498/498/498 500/500/500 484/484/484
f 498/498/498 473/473/473 471/471/471
f 500/500/500 498/498/498 471/471/471
f 499/499/499 458/458/458 460/460/460
f 500/500/500 471/471/471 469/469/469
f 499/499/499 501/501/501 458/458/458
f 501/501/501 499/499/499 484/484/484
f 501/501/501 456/456/456 458/458/458
f 502/502/502 500/500/500 469/469/469
f 500/500/500 502/502/502 484/484/484
f 502/502/502 469/469/469 467/467/467
f 501/501/501 503/503/503 456/456/456
f 503/503/503 501/501/501 484/484/484
f 503/503/503 450/450/450 456/456/456
f 504/504/504 502/502/502 467/467/467
f 502/502/502 504/504/504 484/484/484
f 504/504/504 467/467/467 465/465/465
f 503/503/503 505/505/505 450/450/450
f 505/505/505 503/503/503 484/484/484
f 505/505/505 451/451/451 450/450/450
f 506/506/506 504/504/504 465/465/465
f 504/504/504 506/506/506 484/484/484
f 507/507/507 505/505/505 484/484/484
f 505/505/505 507/507/507 451/451/451
f 506/506/506 508/508/508 484/484/484
f 506/506/506 465/465/465 463/463/463
f 508/508/508 506/506/506 463/463/463
f 507/507/507 452/452/452 451/451/451
f 508/508/508 463/463/463 461/461/461
f 507/507/507 509/509/509 452/452/452
f 509/509/509 507/507/507 484/484/484
f 509/509/509 453/453/453 452/452/452
f 510/510/510 508/508/508 461/461/461
f 508/508/508 510/510/510 484/484/484
f 510/510/510 461/461/461 459/459/459
f 509/509/509 511/511/511 453/453/453
f 511/511/511 509/509/509 484/484/484
f 511/511/511 454/454/454 453/453/453
f 512/512/512 510/510/510 459/459/459
f 510/510/510 512/512/512 484/484/484
f 512/512/512 459/459/459 457/457/457
f 511/511/511 513/513/513 454/454/454
f 513/513/513 511/511/511 484/484/484
f 513/513/513 455/455/455 454/454/454
f 514/514/514 457/457/457 455/455/455
f 514/514/514 512/512/512 457/457/457
f 512/512/512 514/514/514 484/484/484
f 513/513/513 514/514/514 455/455/455
f 514/514/514 513/513/513 484/484/484
